  0
SECTION
  2
HEADER
  9
$ACADVER
  1
AC1015
  9
$ACADMAINTVER
 70
    13
  9
$DWGCODEPAGE
  3
ANSI_1252
  9
$INSBASE
 10
0.0
 20
0.0
 30
0.0
  9
$EXTMIN
 10
11.62135930140767
 20
6.535571841866207
 30
0.0
  9
$EXTMAX
 10
21.98493086205244
 20
11.60378529890659
 30
0.0
  9
$LIMMIN
 10
0.0
 20
0.0
  9
$LIMMAX
 10
12.0
 20
9.0
  9
$ORTHOMODE
 70
     0
  9
$REGENMODE
 70
     1
  9
$FILLMODE
 70
     1
  9
$QTEXTMODE
 70
     0
  9
$MIRRTEXT
 70
     1
  9
$LTSCALE
 40
1.0
  9
$ATTMODE
 70
     1
  9
$TEXTSIZE
 40
0.2
  9
$TRACEWID
 40
0.05
  9
$TEXTSTYLE
  7
Standard
  9
$CLAYER
  8
0
  9
$CELTYPE
  6
ByLayer
  9
$CECOLOR
 62
   256
  9
$CELTSCALE
 40
1.0
  9
$DISPSILH
 70
     0
  9
$DIMSCALE
 40
1.0
  9
$DIMASZ
 40
0.18
  9
$DIMEXO
 40
0.0625
  9
$DIMDLI
 40
0.38
  9
$DIMRND
 40
0.0
  9
$DIMDLE
 40
0.0
  9
$DIMEXE
 40
0.18
  9
$DIMTP
 40
0.0
  9
$DIMTM
 40
0.0
  9
$DIMTXT
 40
0.18
  9
$DIMCEN
 40
0.09
  9
$DIMTSZ
 40
0.0
  9
$DIMTOL
 70
     0
  9
$DIMLIM
 70
     0
  9
$DIMTIH
 70
     1
  9
$DIMTOH
 70
     1
  9
$DIMSE1
 70
     0
  9
$DIMSE2
 70
     0
  9
$DIMTAD
 70
     0
  9
$DIMZIN
 70
     0
  9
$DIMBLK
  1

  9
$DIMASO
 70
     1
  9
$DIMSHO
 70
     1
  9
$DIMPOST
  1

  9
$DIMAPOST
  1

  9
$DIMALT
 70
     0
  9
$DIMALTD
 70
     2
  9
$DIMALTF
 40
25.4
  9
$DIMLFAC
 40
1.0
  9
$DIMTOFL
 70
     0
  9
$DIMTVP
 40
0.0
  9
$DIMTIX
 70
     0
  9
$DIMSOXD
 70
     0
  9
$DIMSAH
 70
     0
  9
$DIMBLK1
  1

  9
$DIMBLK2
  1

  9
$DIMSTYLE
  2
Standard
  9
$DIMCLRD
 70
     0
  9
$DIMCLRE
 70
     0
  9
$DIMCLRT
 70
     0
  9
$DIMTFAC
 40
1.0
  9
$DIMGAP
 40
0.09
  9
$DIMJUST
 70
     0
  9
$DIMSD1
 70
     0
  9
$DIMSD2
 70
     0
  9
$DIMTOLJ
 70
     1
  9
$DIMTZIN
 70
     0
  9
$DIMALTZ
 70
     0
  9
$DIMALTTZ
 70
     0
  9
$DIMUPT
 70
     0
  9
$DIMDEC
 70
     4
  9
$DIMTDEC
 70
     4
  9
$DIMALTU
 70
     2
  9
$DIMALTTD
 70
     2
  9
$DIMTXSTY
  7
Standard
  9
$DIMAUNIT
 70
     0
  9
$DIMADEC
 70
     0
  9
$DIMALTRND
 40
0.0
  9
$DIMAZIN
 70
     0
  9
$DIMDSEP
 70
    46
  9
$DIMATFIT
 70
     3
  9
$DIMFRAC
 70
     0
  9
$DIMLDRBLK
  1

  9
$DIMLUNIT
 70
     2
  9
$DIMLWD
 70
    -2
  9
$DIMLWE
 70
    -2
  9
$DIMTMOVE
 70
     0
  9
$LUNITS
 70
     2
  9
$LUPREC
 70
     4
  9
$SKETCHINC
 40
0.1
  9
$FILLETRAD
 40
0.5
  9
$AUNITS
 70
     0
  9
$AUPREC
 70
     0
  9
$MENU
  1
.
  9
$ELEVATION
 40
0.0
  9
$PELEVATION
 40
0.0
  9
$THICKNESS
 40
0.0
  9
$LIMCHECK
 70
     0
  9
$CHAMFERA
 40
0.5
  9
$CHAMFERB
 40
0.5
  9
$CHAMFERC
 40
1.0
  9
$CHAMFERD
 40
0.0
  9
$SKPOLY
 70
     0
  9
$TDCREATE
 40
2459275.327809502
  9
$TDUCREATE
 40
2459275.661142835
  9
$TDUPDATE
 40
2459275.331559340
  9
$TDUUPDATE
 40
2459275.664892673
  9
$TDINDWG
 40
0.0037498380
  9
$TDUSRTIMER
 40
0.0037498380
  9
$USRTIMER
 70
     1
  9
$ANGBASE
 50
0.0
  9
$ANGDIR
 70
     0
  9
$PDMODE
 70
     0
  9
$PDSIZE
 40
0.0
  9
$PLINEWID
 40
0.0
  9
$SPLFRAME
 70
     0
  9
$SPLINETYPE
 70
     6
  9
$SPLINESEGS
 70
     8
  9
$HANDSEED
  5
152
  9
$SURFTAB1
 70
     6
  9
$SURFTAB2
 70
     6
  9
$SURFTYPE
 70
     6
  9
$SURFU
 70
     6
  9
$SURFV
 70
     6
  9
$UCSBASE
  2

  9
$UCSNAME
  2

  9
$UCSORG
 10
0.0
 20
0.0
 30
0.0
  9
$UCSXDIR
 10
1.0
 20
0.0
 30
0.0
  9
$UCSYDIR
 10
0.0
 20
1.0
 30
0.0
  9
$UCSORTHOREF
  2

  9
$UCSORTHOVIEW
 70
     0
  9
$UCSORGTOP
 10
0.0
 20
0.0
 30
0.0
  9
$UCSORGBOTTOM
 10
0.0
 20
0.0
 30
0.0
  9
$UCSORGLEFT
 10
0.0
 20
0.0
 30
0.0
  9
$UCSORGRIGHT
 10
0.0
 20
0.0
 30
0.0
  9
$UCSORGFRONT
 10
0.0
 20
0.0
 30
0.0
  9
$UCSORGBACK
 10
0.0
 20
0.0
 30
0.0
  9
$PUCSBASE
  2

  9
$PUCSNAME
  2

  9
$PUCSORG
 10
0.0
 20
0.0
 30
0.0
  9
$PUCSXDIR
 10
1.0
 20
0.0
 30
0.0
  9
$PUCSYDIR
 10
0.0
 20
1.0
 30
0.0
  9
$PUCSORTHOREF
  2

  9
$PUCSORTHOVIEW
 70
     0
  9
$PUCSORGTOP
 10
0.0
 20
0.0
 30
0.0
  9
$PUCSORGBOTTOM
 10
0.0
 20
0.0
 30
0.0
  9
$PUCSORGLEFT
 10
0.0
 20
0.0
 30
0.0
  9
$PUCSORGRIGHT
 10
0.0
 20
0.0
 30
0.0
  9
$PUCSORGFRONT
 10
0.0
 20
0.0
 30
0.0
  9
$PUCSORGBACK
 10
0.0
 20
0.0
 30
0.0
  9
$USERI1
 70
     0
  9
$USERI2
 70
     0
  9
$USERI3
 70
     0
  9
$USERI4
 70
     0
  9
$USERI5
 70
     0
  9
$USERR1
 40
0.0
  9
$USERR2
 40
0.0
  9
$USERR3
 40
0.0
  9
$USERR4
 40
0.0
  9
$USERR5
 40
0.0
  9
$WORLDVIEW
 70
     1
  9
$SHADEDGE
 70
     3
  9
$SHADEDIF
 70
    70
  9
$TILEMODE
 70
     1
  9
$MAXACTVP
 70
    64
  9
$PINSBASE
 10
0.0
 20
0.0
 30
0.0
  9
$PLIMCHECK
 70
     0
  9
$PEXTMIN
 10
0.0
 20
0.0
 30
0.0
  9
$PEXTMAX
 10
0.0
 20
0.0
 30
0.0
  9
$PLIMMIN
 10
0.0
 20
0.0
  9
$PLIMMAX
 10
12.0
 20
9.0
  9
$UNITMODE
 70
     0
  9
$VISRETAIN
 70
     1
  9
$PLINEGEN
 70
     0
  9
$PSLTSCALE
 70
     1
  9
$TREEDEPTH
 70
  3020
  9
$CMLSTYLE
  2
Standard
  9
$CMLJUST
 70
     0
  9
$CMLSCALE
 40
1.0
  9
$PROXYGRAPHICS
 70
     1
  9
$MEASUREMENT
 70
     0
  9
$CELWEIGHT
370
    -1
  9
$ENDCAPS
280
     0
  9
$JOINSTYLE
280
     0
  9
$LWDISPLAY
290
     0
  9
$INSUNITS
 70
     1
  9
$HYPERLINKBASE
  1

  9
$STYLESHEET
  1

  9
$XEDIT
290
     1
  9
$CEPSNTYPE
380
     0
  9
$PSTYLEMODE
290
     1
  9
$FINGERPRINTGUID
  2
{FDEAD576-A652-11D2-9A35-0060089B3A3F}
  9
$VERSIONGUID
  2
{8D7E0B41-E9BD-4666-A336-EA6583659C96}
  9
$EXTNAMES
290
     1
  9
$PSVPSCALE
 40
0.0
  9
$OLESTARTUP
290
     0
  0
ENDSEC
  0
SECTION
  2
CLASSES
  0
CLASS
  1
ACDBDICTIONARYWDFLT
  2
AcDbDictionaryWithDefault
  3
AutoCAD 2000
 90
        0
280
     0
281
     0
  0
CLASS
  1
ACDBPLACEHOLDER
  2
AcDbPlaceHolder
  3
AutoCAD 2000
 90
        0
280
     0
281
     0
  0
CLASS
  1
LAYOUT
  2
AcDbLayout
  3
AutoCAD 2000
 90
        0
280
     0
281
     0
  0
CLASS
  1
DICTIONARYVAR
  2
AcDbDictionaryVar
  3
AutoCAD 2000
 90
        0
280
     0
281
     0
  0
CLASS
  1
DIMASSOC
  2
AcDbDimAssoc
  3
"AcDbDimAssoc|Product Desc:     AcDim ARX App For Dimension|Company:          Autodesk, Inc.|WEB Address:      www.autodesk.com"
 90
        0
280
     0
281
     0
  0
ENDSEC
  0
SECTION
  2
TABLES
  0
TABLE
  2
VPORT
  5
8
330
0
100
AcDbSymbolTable
 70
     3
  0
VPORT
  5
151
330
8
100
AcDbSymbolTableRecord
100
AcDbViewportTableRecord
  2
*Active
 70
     0
 10
0.0
 20
0.0
 11
1.0
 21
1.0
 12
15.07415884685316
 22
10.22293686241251
 13
0.0
 23
0.0
 14
0.5
 24
0.5
 15
0.5
 25
0.5
 16
0.0
 26
0.0
 36
1.0
 17
0.0
 27
0.0
 37
0.0
 40
9.725155840343994
 41
1.968888888888888
 42
50.0
 43
0.0
 44
0.0
 50
0.0
 51
0.0
 71
     0
 72
   100
 73
     1
 74
     3
 75
     0
 76
     0
 77
     0
 78
     0
281
     0
 65
     1
110
0.0
120
0.0
130
0.0
111
1.0
121
0.0
131
0.0
112
0.0
122
1.0
132
0.0
 79
     0
146
0.0
  0
ENDTAB
  0
TABLE
  2
LTYPE
  5
5
330
0
100
AcDbSymbolTable
 70
     1
  0
LTYPE
  5
14
330
5
100
AcDbSymbolTableRecord
100
AcDbLinetypeTableRecord
  2
ByBlock
 70
     0
  3

 72
    65
 73
     0
 40
0.0
  0
LTYPE
  5
15
330
5
100
AcDbSymbolTableRecord
100
AcDbLinetypeTableRecord
  2
ByLayer
 70
     0
  3

 72
    65
 73
     0
 40
0.0
  0
LTYPE
  5
16
330
5
100
AcDbSymbolTableRecord
100
AcDbLinetypeTableRecord
  2
Continuous
 70
     0
  3
Solid line
 72
    65
 73
     0
 40
0.0
  0
ENDTAB
  0
TABLE
  2
LAYER
  5
2
330
0
100
AcDbSymbolTable
 70
     3
  0
LAYER
  5
10
330
2
100
AcDbSymbolTableRecord
100
AcDbLayerTableRecord
  2
0
 70
     0
 62
     7
  6
Continuous
370
    -3
390
F
  0
LAYER
  5
A8
330
2
100
AcDbSymbolTableRecord
100
AcDbLayerTableRecord
  2
Defpoints
 70
     0
 62
     7
  6
Continuous
290
     0
370
    -3
390
F
  0
LAYER
  5
A9
330
2
100
AcDbSymbolTableRecord
100
AcDbLayerTableRecord
  2
Dems
 70
     0
 62
     7
  6
Continuous
370
    -3
390
F
  0
ENDTAB
  0
TABLE
  2
STYLE
  5
3
330
0
100
AcDbSymbolTable
 70
     1
  0
STYLE
  5
11
330
3
100
AcDbSymbolTableRecord
100
AcDbTextStyleTableRecord
  2
Standard
 70
     0
 40
0.0
 41
1.0
 50
0.0
 71
     0
 42
0.2
  3
txt
  4

  0
ENDTAB
  0
TABLE
  2
VIEW
  5
6
330
0
100
AcDbSymbolTable
 70
     0
  0
ENDTAB
  0
TABLE
  2
UCS
  5
7
330
0
100
AcDbSymbolTable
 70
     0
  0
ENDTAB
  0
TABLE
  2
APPID
  5
9
330
0
100
AcDbSymbolTable
 70
     1
  0
APPID
  5
12
330
9
100
AcDbSymbolTableRecord
100
AcDbRegAppTableRecord
  2
ACAD
 70
     0
  0
ENDTAB
  0
TABLE
  2
DIMSTYLE
  5
A
330
0
100
AcDbSymbolTable
 70
     1
100
AcDbDimStyleTable
 71
     0
  0
DIMSTYLE
105
27
102
{ACAD_REACTORS
330
12F
330
132
102
}
330
A
100
AcDbSymbolTableRecord
100
AcDbDimStyleTableRecord
  2
Standard
 70
     0
340
11
  0
ENDTAB
  0
TABLE
  2
BLOCK_RECORD
  5
1
330
0
100
AcDbSymbolTable
 70
    15
  0
BLOCK_RECORD
  5
1F
330
1
100
AcDbSymbolTableRecord
100
AcDbBlockTableRecord
  2
*Model_Space
340
22
  0
BLOCK_RECORD
  5
58
330
1
100
AcDbSymbolTableRecord
100
AcDbBlockTableRecord
  2
*Paper_Space
340
59
  0
BLOCK_RECORD
  5
5D
330
1
100
AcDbSymbolTableRecord
100
AcDbBlockTableRecord
  2
*Paper_Space0
340
5E
  0
BLOCK_RECORD
  5
74
330
1
100
AcDbSymbolTableRecord
100
AcDbBlockTableRecord
  2
*D1
340
0
  0
BLOCK_RECORD
  5
81
330
1
100
AcDbSymbolTableRecord
100
AcDbBlockTableRecord
  2
*D2
340
0
  0
BLOCK_RECORD
  5
8E
330
1
100
AcDbSymbolTableRecord
100
AcDbBlockTableRecord
  2
*D3
340
0
  0
BLOCK_RECORD
  5
9B
330
1
100
AcDbSymbolTableRecord
100
AcDbBlockTableRecord
  2
*D4
340
0
  0
BLOCK_RECORD
  5
D4
330
1
100
AcDbSymbolTableRecord
100
AcDbBlockTableRecord
  2
*D6
340
0
  0
BLOCK_RECORD
  5
E1
330
1
100
AcDbSymbolTableRecord
100
AcDbBlockTableRecord
  2
*D7
340
0
  0
BLOCK_RECORD
  5
EE
330
1
100
AcDbSymbolTableRecord
100
AcDbBlockTableRecord
  2
*D8
340
0
  0
BLOCK_RECORD
  5
FB
330
1
100
AcDbSymbolTableRecord
100
AcDbBlockTableRecord
  2
*D9
340
0
  0
BLOCK_RECORD
  5
108
330
1
100
AcDbSymbolTableRecord
100
AcDbBlockTableRecord
  2
*D10
340
0
  0
BLOCK_RECORD
  5
115
330
1
100
AcDbSymbolTableRecord
100
AcDbBlockTableRecord
  2
*D11
340
0
  0
BLOCK_RECORD
  5
136
330
1
100
AcDbSymbolTableRecord
100
AcDbBlockTableRecord
  2
*D13
340
0
  0
BLOCK_RECORD
  5
143
330
1
100
AcDbSymbolTableRecord
100
AcDbBlockTableRecord
  2
*D14
340
0
  0
ENDTAB
  0
ENDSEC
  0
SECTION
  2
BLOCKS
  0
BLOCK
  5
20
330
1F
100
AcDbEntity
  8
0
100
AcDbBlockBegin
  2
*Model_Space
 70
     0
 10
0.0
 20
0.0
 30
0.0
  3
*Model_Space
  1

  0
ENDBLK
  5
21
330
1F
100
AcDbEntity
  8
0
100
AcDbBlockEnd
  0
BLOCK
  5
5A
330
58
100
AcDbEntity
 67
     1
  8
0
100
AcDbBlockBegin
  2
*Paper_Space
 70
     0
 10
0.0
 20
0.0
 30
0.0
  3
*Paper_Space
  1

  0
ENDBLK
  5
5B
330
58
100
AcDbEntity
 67
     1
  8
0
100
AcDbBlockEnd
  0
BLOCK
  5
5F
330
5D
100
AcDbEntity
  8
0
100
AcDbBlockBegin
  2
*Paper_Space0
 70
     0
 10
0.0
 20
0.0
 30
0.0
  3
*Paper_Space0
  1

  0
ENDBLK
  5
60
330
5D
100
AcDbEntity
  8
0
100
AcDbBlockEnd
  0
BLOCK
  5
7F
330
74
100
AcDbEntity
  8
0
100
AcDbBlockBegin
  2
*D1
 70
     1
 10
0.0
 20
0.0
 30
0.0
  3
*D1
  1

  0
LINE
  5
75
330
74
100
AcDbEntity
  8
Dems
 62
     0
370
    -2
100
AcDbLine
 10
-7.614505055241792
 20
22.72404692513187
 30
0.0
 11
-7.614505055241792
 21
23.58765148825612
 31
0.0
  0
LINE
  5
76
330
74
100
AcDbEntity
  8
Dems
 62
     0
370
    -2
100
AcDbLine
 10
-7.864505055241792
 20
22.22404692513186
 30
0.0
 11
-7.864505055241792
 21
23.58765148825612
 31
0.0
  0
LINE
  5
77
330
74
100
AcDbEntity
  8
Dems
 62
     0
370
    -2
100
AcDbLine
 10
-7.434505055241793
 20
23.40765148825612
 30
0.0
 11
-7.254505055241792
 21
23.40765148825612
 31
0.0
  0
LINE
  5
78
330
74
100
AcDbEntity
  8
Dems
 62
     0
370
    -2
100
AcDbLine
 10
-8.044505055241792
 20
23.40765148825612
 30
0.0
 11
-8.224505055241792
 21
23.40765148825612
 31
0.0
  0
SOLID
  5
79
330
74
100
AcDbEntity
  8
Dems
 62
     0
100
AcDbTrace
 10
-7.434505055241793
 20
23.43765148825612
 30
0.0
 11
-7.434505055241793
 21
23.37765148825611
 31
0.0
 12
-7.614505055241792
 22
23.40765148825612
 32
0.0
 13
-7.614505055241792
 23
23.40765148825612
 33
0.0
  0
SOLID
  5
7A
330
74
100
AcDbEntity
  8
Dems
 62
     0
100
AcDbTrace
 10
-8.044505055241792
 20
23.43765148825612
 30
0.0
 11
-8.044505055241792
 21
23.37765148825611
 31
0.0
 12
-7.864505055241792
 22
23.40765148825612
 32
0.0
 13
-7.864505055241792
 23
23.40765148825612
 33
0.0
  0
MTEXT
  5
7B
330
74
100
AcDbEntity
  8
Dems
 62
     0
100
AcDbMText
 10
-8.569505055241792
 20
23.40765148825612
 30
0.0
 40
0.18
 41
0.0
 71
     5
 72
     1
  1
\A1;0.25
 73
     1
 44
1.0
  0
POINT
  5
7C
330
74
100
AcDbEntity
  8
Defpoints
 62
     0
100
AcDbPoint
 10
-7.614505055241792
 20
22.66154692513187
 30
0.0
  0
POINT
  5
7D
330
74
100
AcDbEntity
  8
Defpoints
 62
     0
100
AcDbPoint
 10
-7.864505055241792
 20
22.16154692513187
 30
0.0
  0
POINT
  5
7E
330
74
100
AcDbEntity
  8
Defpoints
 62
     0
100
AcDbPoint
 10
-7.864505055241792
 20
23.40765148825612
 30
0.0
  0
ENDBLK
  5
80
330
74
100
AcDbEntity
  8
0
100
AcDbBlockEnd
  0
BLOCK
  5
8C
330
81
100
AcDbEntity
  8
0
100
AcDbBlockBegin
  2
*D2
 70
     1
 10
0.0
 20
0.0
 30
0.0
  3
*D2
  1

  0
LINE
  5
82
330
81
100
AcDbEntity
  8
Dems
 62
     0
370
    -2
100
AcDbLine
 10
-7.552005055241792
 20
22.66154692513187
 30
0.0
 11
-6.378535846104036
 21
22.66154692513187
 31
0.0
  0
LINE
  5
83
330
81
100
AcDbEntity
  8
Dems
 62
     0
370
    -2
100
AcDbLine
 10
-7.802005055241792
 20
22.16154692513187
 30
0.0
 11
-6.378535846104036
 21
22.16154692513187
 31
0.0
  0
LINE
  5
84
330
81
100
AcDbEntity
  8
Dems
 62
     0
370
    -2
100
AcDbLine
 10
-6.558535846104035
 20
22.84154692513187
 30
0.0
 11
-6.558535846104035
 21
23.02154692513187
 31
0.0
  0
LINE
  5
85
330
81
100
AcDbEntity
  8
Dems
 62
     0
370
    -2
100
AcDbLine
 10
-6.558535846104036
 20
21.98154692513186
 30
0.0
 11
-6.558535846104036
 21
21.80154692513187
 31
0.0
  0
SOLID
  5
86
330
81
100
AcDbEntity
  8
Dems
 62
     0
100
AcDbTrace
 10
-6.588535846104035
 20
22.84154692513187
 30
0.0
 11
-6.528535846104035
 21
22.84154692513187
 31
0.0
 12
-6.558535846104035
 22
22.66154692513187
 32
0.0
 13
-6.558535846104035
 23
22.66154692513187
 33
0.0
  0
SOLID
  5
87
330
81
100
AcDbEntity
  8
Dems
 62
     0
100
AcDbTrace
 10
-6.588535846104036
 20
21.98154692513186
 30
0.0
 11
-6.528535846104036
 21
21.98154692513186
 31
0.0
 12
-6.558535846104035
 22
22.16154692513187
 32
0.0
 13
-6.558535846104035
 23
22.16154692513187
 33
0.0
  0
MTEXT
  5
88
330
81
100
AcDbEntity
  8
Dems
 62
     0
100
AcDbMText
 10
-6.558535846104039
 20
22.41154692513187
 30
0.0
 40
0.18
 41
0.0
 71
     5
 72
     1
  1
\A1;0.5
 73
     1
 44
1.0
  0
POINT
  5
89
330
81
100
AcDbEntity
  8
Defpoints
 62
     0
100
AcDbPoint
 10
-7.614505055241792
 20
22.66154692513187
 30
0.0
  0
POINT
  5
8A
330
81
100
AcDbEntity
  8
Defpoints
 62
     0
100
AcDbPoint
 10
-7.864505055241792
 20
22.16154692513187
 30
0.0
  0
POINT
  5
8B
330
81
100
AcDbEntity
  8
Defpoints
 62
     0
100
AcDbPoint
 10
-6.558535846104035
 20
22.16154692513187
 30
0.0
  0
ENDBLK
  5
8D
330
81
100
AcDbEntity
  8
0
100
AcDbBlockEnd
  0
BLOCK
  5
99
330
8E
100
AcDbEntity
  8
0
100
AcDbBlockBegin
  2
*D3
 70
     1
 10
0.0
 20
0.0
 30
0.0
  3
*D3
  1

  0
LINE
  5
8F
330
8E
100
AcDbEntity
  8
Dems
 62
     0
370
    -2
100
AcDbLine
 10
-7.802005055241792
 20
21.16154692513187
 30
0.0
 11
-6.378535846104036
 21
21.16154692513187
 31
0.0
  0
LINE
  5
90
330
8E
100
AcDbEntity
  8
Dems
 62
     0
370
    -2
100
AcDbLine
 10
-7.552005055241792
 20
20.66154692513187
 30
0.0
 11
-6.378535846104036
 21
20.66154692513187
 31
0.0
  0
LINE
  5
91
330
8E
100
AcDbEntity
  8
Dems
 62
     0
370
    -2
100
AcDbLine
 10
-6.558535846104035
 20
21.34154692513186
 30
0.0
 11
-6.558535846104035
 21
21.52154692513187
 31
0.0
  0
LINE
  5
92
330
8E
100
AcDbEntity
  8
Dems
 62
     0
370
    -2
100
AcDbLine
 10
-6.558535846104035
 20
20.48154692513187
 30
0.0
 11
-6.558535846104035
 21
20.30154692513187
 31
0.0
  0
SOLID
  5
93
330
8E
100
AcDbEntity
  8
Dems
 62
     0
100
AcDbTrace
 10
-6.588535846104035
 20
21.34154692513186
 30
0.0
 11
-6.528535846104035
 21
21.34154692513186
 31
0.0
 12
-6.558535846104035
 22
21.16154692513187
 32
0.0
 13
-6.558535846104035
 23
21.16154692513187
 33
0.0
  0
SOLID
  5
94
330
8E
100
AcDbEntity
  8
Dems
 62
     0
100
AcDbTrace
 10
-6.588535846104035
 20
20.48154692513187
 30
0.0
 11
-6.528535846104035
 21
20.48154692513187
 31
0.0
 12
-6.558535846104035
 22
20.66154692513187
 32
0.0
 13
-6.558535846104035
 23
20.66154692513187
 33
0.0
  0
MTEXT
  5
95
330
8E
100
AcDbEntity
  8
Dems
 62
     0
100
AcDbMText
 10
-6.558535846104039
 20
20.91154692513187
 30
0.0
 40
0.18
 41
0.0
 71
     5
 72
     1
  1
\A1;0.5
 73
     1
 44
1.0
  0
POINT
  5
96
330
8E
100
AcDbEntity
  8
Defpoints
 62
     0
100
AcDbPoint
 10
-7.864505055241792
 20
21.16154692513187
 30
0.0
  0
POINT
  5
97
330
8E
100
AcDbEntity
  8
Defpoints
 62
     0
100
AcDbPoint
 10
-7.614505055241792
 20
20.66154692513187
 30
0.0
  0
POINT
  5
98
330
8E
100
AcDbEntity
  8
Defpoints
 62
     0
100
AcDbPoint
 10
-6.558535846104035
 20
20.66154692513187
 30
0.0
  0
ENDBLK
  5
9A
330
8E
100
AcDbEntity
  8
0
100
AcDbBlockEnd
  0
BLOCK
  5
A6
330
9B
100
AcDbEntity
  8
0
100
AcDbBlockBegin
  2
*D4
 70
     1
 10
0.0
 20
0.0
 30
0.0
  3
*D4
  1

  0
LINE
  5
9C
330
9B
100
AcDbEntity
  8
Dems
 62
     0
370
    -2
100
AcDbLine
 10
-9.864505055241792
 20
22.22404692513186
 30
0.0
 11
-9.864505055241792
 21
23.60155035230231
 31
0.0
  0
LINE
  5
9D
330
9B
100
AcDbEntity
  8
Dems
 62
     0
370
    -2
100
AcDbLine
 10
-10.61450505524179
 20
22.72404692513187
 30
0.0
 11
-10.61450505524179
 21
23.60155035230231
 31
0.0
  0
LINE
  5
9E
330
9B
100
AcDbEntity
  8
Dems
 62
     0
370
    -2
100
AcDbLine
 10
-9.684505055241793
 20
23.42155035230232
 30
0.0
 11
-9.504505055241793
 21
23.42155035230232
 31
0.0
  0
LINE
  5
9F
330
9B
100
AcDbEntity
  8
Dems
 62
     0
370
    -2
100
AcDbLine
 10
-10.79450505524179
 20
23.42155035230232
 30
0.0
 11
-10.97450505524179
 21
23.42155035230232
 31
0.0
  0
SOLID
  5
A0
330
9B
100
AcDbEntity
  8
Dems
 62
     0
100
AcDbTrace
 10
-9.684505055241793
 20
23.45155035230232
 30
0.0
 11
-9.684505055241793
 21
23.39155035230231
 31
0.0
 12
-9.864505055241792
 22
23.42155035230232
 32
0.0
 13
-9.864505055241792
 23
23.42155035230232
 33
0.0
  0
SOLID
  5
A1
330
9B
100
AcDbEntity
  8
Dems
 62
     0
100
AcDbTrace
 10
-10.79450505524179
 20
23.45155035230232
 30
0.0
 11
-10.79450505524179
 21
23.39155035230231
 31
0.0
 12
-10.61450505524179
 22
23.42155035230232
 32
0.0
 13
-10.61450505524179
 23
23.42155035230232
 33
0.0
  0
MTEXT
  5
A2
330
9B
100
AcDbEntity
  8
Dems
 62
     0
100
AcDbMText
 10
-10.23950505524179
 20
23.42155035230232
 30
0.0
 40
0.18
 41
0.0
 71
     5
 72
     1
  1
\A1;0.75
 73
     1
 44
1.0
  0
POINT
  5
A3
330
9B
100
AcDbEntity
  8
Defpoints
 62
     0
100
AcDbPoint
 10
-9.864505055241792
 20
22.16154692513187
 30
0.0
  0
POINT
  5
A4
330
9B
100
AcDbEntity
  8
Defpoints
 62
     0
100
AcDbPoint
 10
-10.61450505524179
 20
22.66154692513187
 30
0.0
  0
POINT
  5
A5
330
9B
100
AcDbEntity
  8
Defpoints
 62
     0
100
AcDbPoint
 10
-10.61450505524179
 20
23.42155035230232
 30
0.0
  0
ENDBLK
  5
A7
330
9B
100
AcDbEntity
  8
0
100
AcDbBlockEnd
  0
BLOCK
  5
DF
330
D4
100
AcDbEntity
  8
0
100
AcDbBlockBegin
  2
*D6
 70
     1
 10
0.0
 20
0.0
 30
0.0
  3
*D6
  1

  0
LINE
  5
D5
330
D4
100
AcDbEntity
  8
Dems
 62
     0
370
    -2
100
AcDbLine
 10
14.98135930140767
 20
10.72628187173614
 30
0.0
 11
14.98135930140767
 21
11.58988643486039
 31
0.0
  0
LINE
  5
D6
330
D4
100
AcDbEntity
  8
Dems
 62
     0
370
    -2
100
AcDbLine
 10
14.73135930140768
 20
10.22628187173614
 30
0.0
 11
14.73135930140768
 21
11.58988643486039
 31
0.0
  0
LINE
  5
D7
330
D4
100
AcDbEntity
  8
Dems
 62
     0
370
    -2
100
AcDbLine
 10
15.16135930140768
 20
11.40988643486039
 30
0.0
 11
15.34135930140767
 21
11.40988643486039
 31
0.0
  0
LINE
  5
D8
330
D4
100
AcDbEntity
  8
Dems
 62
     0
370
    -2
100
AcDbLine
 10
14.55135930140768
 20
11.40988643486039
 30
0.0
 11
14.37135930140768
 21
11.40988643486039
 31
0.0
  0
SOLID
  5
D9
330
D4
100
AcDbEntity
  8
Dems
 62
     0
100
AcDbTrace
 10
15.16135930140768
 20
11.43988643486039
 30
0.0
 11
15.16135930140768
 21
11.37988643486039
 31
0.0
 12
14.98135930140767
 22
11.40988643486039
 32
0.0
 13
14.98135930140767
 23
11.40988643486039
 33
0.0
  0
SOLID
  5
DA
330
D4
100
AcDbEntity
  8
Dems
 62
     0
100
AcDbTrace
 10
14.55135930140768
 20
11.43988643486039
 30
0.0
 11
14.55135930140768
 21
11.37988643486039
 31
0.0
 12
14.73135930140768
 22
11.40988643486039
 32
0.0
 13
14.73135930140768
 23
11.40988643486039
 33
0.0
  0
MTEXT
  5
DB
330
D4
100
AcDbEntity
  8
Dems
 62
     0
100
AcDbMText
 10
14.02635930140768
 20
11.40988643486039
 30
0.0
 40
0.18
 41
0.0
 71
     5
 72
     1
  1
\A1;0.25
 73
     1
 44
1.0
  0
POINT
  5
DC
330
D4
100
AcDbEntity
  8
Defpoints
 62
     0
100
AcDbPoint
 10
14.98135930140767
 20
10.66378187173614
 30
0.0
  0
POINT
  5
DD
330
D4
100
AcDbEntity
  8
Defpoints
 62
     0
100
AcDbPoint
 10
14.73135930140768
 20
10.16378187173614
 30
0.0
  0
POINT
  5
DE
330
D4
100
AcDbEntity
  8
Defpoints
 62
     0
100
AcDbPoint
 10
14.73135930140768
 20
11.40988643486039
 30
0.0
  0
ENDBLK
  5
E0
330
D4
100
AcDbEntity
  8
0
100
AcDbBlockEnd
  0
BLOCK
  5
EC
330
E1
100
AcDbEntity
  8
0
100
AcDbBlockBegin
  2
*D7
 70
     1
 10
0.0
 20
0.0
 30
0.0
  3
*D7
  1

  0
LINE
  5
E2
330
E1
100
AcDbEntity
  8
Dems
 62
     0
370
    -2
100
AcDbLine
 10
15.04385930140768
 20
10.66378187173614
 30
0.0
 11
16.21732851054543
 21
10.66378187173614
 31
0.0
  0
LINE
  5
E3
330
E1
100
AcDbEntity
  8
Dems
 62
     0
370
    -2
100
AcDbLine
 10
14.79385930140767
 20
10.16378187173614
 30
0.0
 11
16.21732851054543
 21
10.16378187173614
 31
0.0
  0
LINE
  5
E4
330
E1
100
AcDbEntity
  8
Dems
 62
     0
370
    -2
100
AcDbLine
 10
16.03732851054543
 20
10.84378187173614
 30
0.0
 11
16.03732851054543
 21
11.02378187173614
 31
0.0
  0
LINE
  5
E5
330
E1
100
AcDbEntity
  8
Dems
 62
     0
370
    -2
100
AcDbLine
 10
16.03732851054543
 20
9.983781871736145
 30
0.0
 11
16.03732851054543
 21
9.803781871736145
 31
0.0
  0
SOLID
  5
E6
330
E1
100
AcDbEntity
  8
Dems
 62
     0
100
AcDbTrace
 10
16.00732851054543
 20
10.84378187173614
 30
0.0
 11
16.06732851054543
 21
10.84378187173614
 31
0.0
 12
16.03732851054543
 22
10.66378187173614
 32
0.0
 13
16.03732851054543
 23
10.66378187173614
 33
0.0
  0
SOLID
  5
E7
330
E1
100
AcDbEntity
  8
Dems
 62
     0
100
AcDbTrace
 10
16.00732851054543
 20
9.983781871736145
 30
0.0
 11
16.06732851054543
 21
9.983781871736145
 31
0.0
 12
16.03732851054543
 22
10.16378187173614
 32
0.0
 13
16.03732851054543
 23
10.16378187173614
 33
0.0
  0
MTEXT
  5
E8
330
E1
100
AcDbEntity
  8
Dems
 62
     0
100
AcDbMText
 10
16.03732851054543
 20
10.41378187173614
 30
0.0
 40
0.18
 41
0.0
 71
     5
 72
     1
  1
\A1;0.5
 73
     1
 44
1.0
  0
POINT
  5
E9
330
E1
100
AcDbEntity
  8
Defpoints
 62
     0
100
AcDbPoint
 10
14.98135930140767
 20
10.66378187173614
 30
0.0
  0
POINT
  5
EA
330
E1
100
AcDbEntity
  8
Defpoints
 62
     0
100
AcDbPoint
 10
14.73135930140768
 20
10.16378187173614
 30
0.0
  0
POINT
  5
EB
330
E1
100
AcDbEntity
  8
Defpoints
 62
     0
100
AcDbPoint
 10
16.03732851054543
 20
10.16378187173614
 30
0.0
  0
ENDBLK
  5
ED
330
E1
100
AcDbEntity
  8
0
100
AcDbBlockEnd
  0
BLOCK
  5
F9
330
EE
100
AcDbEntity
  8
0
100
AcDbBlockBegin
  2
*D8
 70
     1
 10
0.0
 20
0.0
 30
0.0
  3
*D8
  1

  0
LINE
  5
EF
330
EE
100
AcDbEntity
  8
Dems
 62
     0
370
    -2
100
AcDbLine
 10
14.79385930140767
 20
9.163781871736144
 30
0.0
 11
16.21732851054543
 21
9.163781871736144
 31
0.0
  0
LINE
  5
F0
330
EE
100
AcDbEntity
  8
Dems
 62
     0
370
    -2
100
AcDbLine
 10
15.04385930140768
 20
8.663781871736148
 30
0.0
 11
16.21732851054543
 21
8.663781871736148
 31
0.0
  0
LINE
  5
F1
330
EE
100
AcDbEntity
  8
Dems
 62
     0
370
    -2
100
AcDbLine
 10
16.03732851054543
 20
9.343781871736144
 30
0.0
 11
16.03732851054543
 21
9.523781871736144
 31
0.0
  0
LINE
  5
F2
330
EE
100
AcDbEntity
  8
Dems
 62
     0
370
    -2
100
AcDbLine
 10
16.03732851054543
 20
8.483781871736148
 30
0.0
 11
16.03732851054543
 21
8.303781871736148
 31
0.0
  0
SOLID
  5
F3
330
EE
100
AcDbEntity
  8
Dems
 62
     0
100
AcDbTrace
 10
16.00732851054543
 20
9.343781871736144
 30
0.0
 11
16.06732851054543
 21
9.343781871736144
 31
0.0
 12
16.03732851054543
 22
9.163781871736144
 32
0.0
 13
16.03732851054543
 23
9.163781871736144
 33
0.0
  0
SOLID
  5
F4
330
EE
100
AcDbEntity
  8
Dems
 62
     0
100
AcDbTrace
 10
16.00732851054543
 20
8.483781871736148
 30
0.0
 11
16.06732851054543
 21
8.483781871736148
 31
0.0
 12
16.03732851054543
 22
8.663781871736148
 32
0.0
 13
16.03732851054543
 23
8.663781871736148
 33
0.0
  0
MTEXT
  5
F5
330
EE
100
AcDbEntity
  8
Dems
 62
     0
100
AcDbMText
 10
16.03732851054543
 20
8.913781871736148
 30
0.0
 40
0.18
 41
0.0
 71
     5
 72
     1
  1
\A1;0.5
 73
     1
 44
1.0
  0
POINT
  5
F6
330
EE
100
AcDbEntity
  8
Defpoints
 62
     0
100
AcDbPoint
 10
14.73135930140768
 20
9.163781871736144
 30
0.0
  0
POINT
  5
F7
330
EE
100
AcDbEntity
  8
Defpoints
 62
     0
100
AcDbPoint
 10
14.98135930140767
 20
8.663781871736148
 30
0.0
  0
POINT
  5
F8
330
EE
100
AcDbEntity
  8
Defpoints
 62
     0
100
AcDbPoint
 10
16.03732851054543
 20
8.663781871736148
 30
0.0
  0
ENDBLK
  5
FA
330
EE
100
AcDbEntity
  8
0
100
AcDbBlockEnd
  0
BLOCK
  5
106
330
FB
100
AcDbEntity
  8
0
100
AcDbBlockBegin
  2
*D9
 70
     1
 10
0.0
 20
0.0
 30
0.0
  3
*D9
  1

  0
LINE
  5
FC
330
FB
100
AcDbEntity
  8
Dems
 62
     0
370
    -2
100
AcDbLine
 10
12.73135930140767
 20
10.22628187173614
 30
0.0
 11
12.73135930140767
 21
11.60378529890659
 31
0.0
  0
LINE
  5
FD
330
FB
100
AcDbEntity
  8
Dems
 62
     0
370
    -2
100
AcDbLine
 10
11.98135930140767
 20
10.72628187173614
 30
0.0
 11
11.98135930140767
 21
11.60378529890659
 31
0.0
  0
LINE
  5
FE
330
FB
100
AcDbEntity
  8
Dems
 62
     0
370
    -2
100
AcDbLine
 10
12.91135930140767
 20
11.42378529890659
 30
0.0
 11
13.09135930140767
 21
11.42378529890659
 31
0.0
  0
LINE
  5
FF
330
FB
100
AcDbEntity
  8
Dems
 62
     0
370
    -2
100
AcDbLine
 10
11.80135930140767
 20
11.42378529890659
 30
0.0
 11
11.62135930140767
 21
11.42378529890659
 31
0.0
  0
SOLID
  5
100
330
FB
100
AcDbEntity
  8
Dems
 62
     0
100
AcDbTrace
 10
12.91135930140767
 20
11.45378529890659
 30
0.0
 11
12.91135930140767
 21
11.39378529890659
 31
0.0
 12
12.73135930140767
 22
11.42378529890659
 32
0.0
 13
12.73135930140767
 23
11.42378529890659
 33
0.0
  0
SOLID
  5
101
330
FB
100
AcDbEntity
  8
Dems
 62
     0
100
AcDbTrace
 10
11.80135930140767
 20
11.45378529890659
 30
0.0
 11
11.80135930140767
 21
11.39378529890659
 31
0.0
 12
11.98135930140767
 22
11.42378529890659
 32
0.0
 13
11.98135930140767
 23
11.42378529890659
 33
0.0
  0
MTEXT
  5
102
330
FB
100
AcDbEntity
  8
Dems
 62
     0
100
AcDbMText
 10
12.35635930140768
 20
11.42378529890659
 30
0.0
 40
0.18
 41
0.0
 71
     5
 72
     1
  1
\A1;0.75
 73
     1
 44
1.0
  0
POINT
  5
103
330
FB
100
AcDbEntity
  8
Defpoints
 62
     0
100
AcDbPoint
 10
12.73135930140767
 20
10.16378187173614
 30
0.0
  0
POINT
  5
104
330
FB
100
AcDbEntity
  8
Defpoints
 62
     0
100
AcDbPoint
 10
11.98135930140767
 20
10.66378187173614
 30
0.0
  0
POINT
  5
105
330
FB
100
AcDbEntity
  8
Defpoints
 62
     0
100
AcDbPoint
 10
11.98135930140767
 20
11.42378529890659
 30
0.0
  0
ENDBLK
  5
107
330
FB
100
AcDbEntity
  8
0
100
AcDbBlockEnd
  0
BLOCK
  5
113
330
108
100
AcDbEntity
  8
0
100
AcDbBlockBegin
  2
*D10
 70
     1
 10
0.0
 20
0.0
 30
0.0
  3
*D10
  1

  0
LINE
  5
109
330
108
100
AcDbEntity
  8
0
 62
     0
370
    -2
100
AcDbLine
 10
32.16080004301676
 20
3.887172298656764
 30
0.0
 11
32.16080004301676
 21
2.483987889810244
 31
0.0
  0
LINE
  5
10A
330
108
100
AcDbEntity
  8
0
 62
     0
370
    -2
100
AcDbLine
 10
34.16080004301676
 20
3.887172298656764
 30
0.0
 11
34.16080004301676
 21
2.483987889810244
 31
0.0
  0
LINE
  5
10B
330
108
100
AcDbEntity
  8
0
 62
     0
370
    -2
100
AcDbLine
 10
32.34080004301676
 20
2.663987889810243
 30
0.0
 11
32.68080004301676
 21
2.663987889810243
 31
0.0
  0
LINE
  5
10C
330
108
100
AcDbEntity
  8
0
 62
     0
370
    -2
100
AcDbLine
 10
33.98080004301676
 20
2.663987889810243
 30
0.0
 11
33.64080004301676
 21
2.663987889810243
 31
0.0
  0
SOLID
  5
10D
330
108
100
AcDbEntity
  8
0
 62
     0
100
AcDbTrace
 10
32.34080004301676
 20
2.693987889810243
 30
0.0
 11
32.34080004301676
 21
2.633987889810244
 31
0.0
 12
32.16080004301676
 22
2.663987889810243
 32
0.0
 13
32.16080004301676
 23
2.663987889810243
 33
0.0
  0
SOLID
  5
10E
330
108
100
AcDbEntity
  8
0
 62
     0
100
AcDbTrace
 10
33.98080004301676
 20
2.693987889810243
 30
0.0
 11
33.98080004301676
 21
2.633987889810244
 31
0.0
 12
34.16080004301676
 22
2.663987889810243
 32
0.0
 13
34.16080004301676
 23
2.663987889810243
 33
0.0
  0
MTEXT
  5
10F
330
108
100
AcDbEntity
  8
0
 62
     0
100
AcDbMText
 10
33.16080004301676
 20
2.663987889810243
 30
0.0
 40
0.18
 41
0.0
 71
     5
 72
     1
  1
\A1;2.0000
 73
     1
 44
1.0
  0
POINT
  5
110
330
108
100
AcDbEntity
  8
Defpoints
 62
     0
100
AcDbPoint
 10
32.16080004301676
 20
3.949672298656764
 30
0.0
  0
POINT
  5
111
330
108
100
AcDbEntity
  8
Defpoints
 62
     0
100
AcDbPoint
 10
34.16080004301676
 20
3.949672298656764
 30
0.0
  0
POINT
  5
112
330
108
100
AcDbEntity
  8
Defpoints
 62
     0
100
AcDbPoint
 10
34.16080004301676
 20
2.663987889810243
 30
0.0
  0
ENDBLK
  5
114
330
108
100
AcDbEntity
  8
0
100
AcDbBlockEnd
  0
BLOCK
  5
120
330
115
100
AcDbEntity
  8
0
100
AcDbBlockBegin
  2
*D11
 70
     1
 10
0.0
 20
0.0
 30
0.0
  3
*D11
  1

  0
LINE
  5
116
330
115
100
AcDbEntity
  8
0
 62
     0
370
    -2
100
AcDbLine
 10
34.22330004301676
 20
4.949672298656764
 30
0.0
 11
36.25226343535984
 21
4.949672298656764
 31
0.0
  0
LINE
  5
117
330
115
100
AcDbEntity
  8
0
 62
     0
370
    -2
100
AcDbLine
 10
34.22330004301676
 20
3.949672298656764
 30
0.0
 11
36.25226343535984
 21
3.949672298656764
 31
0.0
  0
LINE
  5
118
330
115
100
AcDbEntity
  8
0
 62
     0
370
    -2
100
AcDbLine
 10
36.07226343535984
 20
4.769672298656765
 30
0.0
 11
36.07226343535984
 21
4.629672298656764
 31
0.0
  0
LINE
  5
119
330
115
100
AcDbEntity
  8
0
 62
     0
370
    -2
100
AcDbLine
 10
36.07226343535984
 20
4.129672298656764
 30
0.0
 11
36.07226343535984
 21
4.269672298656765
 31
0.0
  0
SOLID
  5
11A
330
115
100
AcDbEntity
  8
0
 62
     0
100
AcDbTrace
 10
36.04226343535984
 20
4.769672298656765
 30
0.0
 11
36.10226343535984
 21
4.769672298656765
 31
0.0
 12
36.07226343535984
 22
4.949672298656764
 32
0.0
 13
36.07226343535984
 23
4.949672298656764
 33
0.0
  0
SOLID
  5
11B
330
115
100
AcDbEntity
  8
0
 62
     0
100
AcDbTrace
 10
36.04226343535984
 20
4.129672298656764
 30
0.0
 11
36.10226343535984
 21
4.129672298656764
 31
0.0
 12
36.07226343535984
 22
3.949672298656764
 32
0.0
 13
36.07226343535984
 23
3.949672298656764
 33
0.0
  0
MTEXT
  5
11C
330
115
100
AcDbEntity
  8
0
 62
     0
100
AcDbMText
 10
36.07226343535984
 20
4.44967229865677
 30
0.0
 40
0.18
 41
0.0
 71
     5
 72
     1
  1
\A1;1.0000
 73
     1
 44
1.0
  0
POINT
  5
11D
330
115
100
AcDbEntity
  8
Defpoints
 62
     0
100
AcDbPoint
 10
34.16080004301676
 20
4.949672298656764
 30
0.0
  0
POINT
  5
11E
330
115
100
AcDbEntity
  8
Defpoints
 62
     0
100
AcDbPoint
 10
34.16080004301676
 20
3.949672298656764
 30
0.0
  0
POINT
  5
11F
330
115
100
AcDbEntity
  8
Defpoints
 62
     0
100
AcDbPoint
 10
36.07226343535984
 20
3.949672298656764
 30
0.0
  0
ENDBLK
  5
121
330
115
100
AcDbEntity
  8
0
100
AcDbBlockEnd
  0
BLOCK
  5
141
330
136
100
AcDbEntity
  8
0
100
AcDbBlockBegin
  2
*D13
 70
     1
 10
0.0
 20
0.0
 30
0.0
  3
*D13
  1

  0
LINE
  5
137
330
136
100
AcDbEntity
  8
0
 62
     0
370
    -2
100
AcDbLine
 10
17.71346746970935
 20
7.938756250712728
 30
0.0
 11
17.71346746970935
 21
6.535571841866207
 31
0.0
  0
LINE
  5
138
330
136
100
AcDbEntity
  8
0
 62
     0
370
    -2
100
AcDbLine
 10
19.71346746970935
 20
7.938756250712728
 30
0.0
 11
19.71346746970935
 21
6.535571841866207
 31
0.0
  0
LINE
  5
139
330
136
100
AcDbEntity
  8
0
 62
     0
370
    -2
100
AcDbLine
 10
17.89346746970935
 20
6.715571841866207
 30
0.0
 11
18.23346746970935
 21
6.715571841866207
 31
0.0
  0
LINE
  5
13A
330
136
100
AcDbEntity
  8
0
 62
     0
370
    -2
100
AcDbLine
 10
19.53346746970935
 20
6.715571841866207
 30
0.0
 11
19.19346746970935
 21
6.715571841866207
 31
0.0
  0
SOLID
  5
13B
330
136
100
AcDbEntity
  8
0
 62
     0
100
AcDbTrace
 10
17.89346746970935
 20
6.745571841866207
 30
0.0
 11
17.89346746970935
 21
6.685571841866207
 31
0.0
 12
17.71346746970935
 22
6.715571841866207
 32
0.0
 13
17.71346746970935
 23
6.715571841866207
 33
0.0
  0
SOLID
  5
13C
330
136
100
AcDbEntity
  8
0
 62
     0
100
AcDbTrace
 10
19.53346746970935
 20
6.745571841866207
 30
0.0
 11
19.53346746970935
 21
6.685571841866207
 31
0.0
 12
19.71346746970935
 22
6.715571841866207
 32
0.0
 13
19.71346746970935
 23
6.715571841866207
 33
0.0
  0
MTEXT
  5
13D
330
136
100
AcDbEntity
  8
0
 62
     0
100
AcDbMText
 10
18.71346746970935
 20
6.715571841866207
 30
0.0
 40
0.18
 41
0.0
 71
     5
 72
     1
  1
\A1;2.0000
 73
     1
 44
1.0
  0
POINT
  5
13E
330
136
100
AcDbEntity
  8
Defpoints
 62
     0
100
AcDbPoint
 10
17.71346746970935
 20
8.001256250712728
 30
0.0
  0
POINT
  5
13F
330
136
100
AcDbEntity
  8
Defpoints
 62
     0
100
AcDbPoint
 10
19.71346746970935
 20
8.001256250712728
 30
0.0
  0
POINT
  5
140
330
136
100
AcDbEntity
  8
Defpoints
 62
     0
100
AcDbPoint
 10
19.71346746970935
 20
6.715571841866207
 30
0.0
  0
ENDBLK
  5
142
330
136
100
AcDbEntity
  8
0
100
AcDbBlockEnd
  0
BLOCK
  5
14E
330
143
100
AcDbEntity
  8
0
100
AcDbBlockBegin
  2
*D14
 70
     1
 10
0.0
 20
0.0
 30
0.0
  3
*D14
  1

  0
LINE
  5
144
330
143
100
AcDbEntity
  8
0
 62
     0
370
    -2
100
AcDbLine
 10
19.77596746970935
 20
9.001256250712728
 30
0.0
 11
21.80493086205243
 21
9.001256250712726
 31
0.0
  0
LINE
  5
145
330
143
100
AcDbEntity
  8
0
 62
     0
370
    -2
100
AcDbLine
 10
19.77596746970935
 20
8.001256250712728
 30
0.0
 11
21.80493086205243
 21
8.001256250712726
 31
0.0
  0
LINE
  5
146
330
143
100
AcDbEntity
  8
0
 62
     0
370
    -2
100
AcDbLine
 10
21.62493086205243
 20
8.821256250712727
 30
0.0
 11
21.62493086205243
 21
8.681256250712726
 31
0.0
  0
LINE
  5
147
330
143
100
AcDbEntity
  8
0
 62
     0
370
    -2
100
AcDbLine
 10
21.62493086205243
 20
8.181256250712726
 30
0.0
 11
21.62493086205243
 21
8.321256250712727
 31
0.0
  0
SOLID
  5
148
330
143
100
AcDbEntity
  8
0
 62
     0
100
AcDbTrace
 10
21.59493086205243
 20
8.821256250712727
 30
0.0
 11
21.65493086205243
 21
8.821256250712727
 31
0.0
 12
21.62493086205243
 22
9.001256250712726
 32
0.0
 13
21.62493086205243
 23
9.001256250712726
 33
0.0
  0
SOLID
  5
149
330
143
100
AcDbEntity
  8
0
 62
     0
100
AcDbTrace
 10
21.59493086205243
 20
8.181256250712726
 30
0.0
 11
21.65493086205243
 21
8.181256250712726
 31
0.0
 12
21.62493086205243
 22
8.001256250712726
 32
0.0
 13
21.62493086205243
 23
8.001256250712726
 33
0.0
  0
MTEXT
  5
14A
330
143
100
AcDbEntity
  8
0
 62
     0
100
AcDbMText
 10
21.62493086205243
 20
8.50125625071273
 30
0.0
 40
0.18
 41
0.0
 71
     5
 72
     1
  1
\A1;1.0000
 73
     1
 44
1.0
  0
POINT
  5
14B
330
143
100
AcDbEntity
  8
Defpoints
 62
     0
100
AcDbPoint
 10
19.71346746970935
 20
9.001256250712728
 30
0.0
  0
POINT
  5
14C
330
143
100
AcDbEntity
  8
Defpoints
 62
     0
100
AcDbPoint
 10
19.71346746970935
 20
8.001256250712728
 30
0.0
  0
POINT
  5
14D
330
143
100
AcDbEntity
  8
Defpoints
 62
     0
100
AcDbPoint
 10
21.62493086205243
 20
8.001256250712726
 30
0.0
  0
ENDBLK
  5
14F
330
143
100
AcDbEntity
  8
0
100
AcDbBlockEnd
  0
ENDSEC
  0
SECTION
  2
ENTITIES
  0
CIRCLE
  5
C1
330
1F
100
AcDbEntity
  8
Dems
100
AcDbCircle
 10
12.73135930140767
 20
10.16378187173614
 30
0.0
 40
0.125
  0
LWPOLYLINE
  5
C2
330
1F
100
AcDbEntity
  8
Dems
100
AcDbPolyline
 90
        4
 70
     1
 43
0.0
 10
11.98135930140767
 20
10.66378187173614
 10
14.98135930140767
 20
10.66378187173614
 10
14.98135930140767
 20
8.663781871736148
 10
11.98135930140767
 20
8.663781871736148
  0
CIRCLE
  5
C3
330
1F
100
AcDbEntity
  8
Dems
100
AcDbCircle
 10
12.73135930140767
 20
9.163781871736144
 30
0.0
 40
0.125
  0
CIRCLE
  5
C4
330
1F
100
AcDbEntity
  8
Dems
100
AcDbCircle
 10
13.73135930140767
 20
10.16378187173614
 30
0.0
 40
0.125
  0
CIRCLE
  5
C5
330
1F
100
AcDbEntity
  8
Dems
100
AcDbCircle
 10
13.73135930140767
 20
9.163781871736144
 30
0.0
 40
0.125
  0
CIRCLE
  5
C6
330
1F
100
AcDbEntity
  8
Dems
100
AcDbCircle
 10
14.73135930140768
 20
10.16378187173614
 30
0.0
 40
0.125
  0
CIRCLE
  5
C7
330
1F
100
AcDbEntity
  8
Dems
100
AcDbCircle
 10
14.73135930140768
 20
9.163781871736144
 30
0.0
 40
0.125
  0
LWPOLYLINE
  5
12E
102
{ACAD_REACTORS
330
131
330
134
102
}
330
1F
100
AcDbEntity
  8
0
100
AcDbPolyline
 90
        4
 70
     1
 43
0.0
 10
17.71346746970935
 20
8.001256250712728
 10
19.71346746970935
 20
8.001256250712728
 10
19.71346746970935
 20
9.001256250712728
 10
17.71346746970935
 20
9.001256250712728
  0
DIMENSION
  5
12F
102
{ACAD_XDICTIONARY
360
130
102
}
102
{ACAD_REACTORS
330
131
102
}
330
1F
100
AcDbEntity
  8
0
100
AcDbDimension
  2
*D13
 10
19.71346746970935
 20
6.715571841866207
 30
0.0
 11
18.71346746970935
 21
6.715571841866207
 31
0.0
 70
    32
 71
     5
 42
2.0
  3
Standard
100
AcDbAlignedDimension
 13
17.71346746970935
 23
8.001256250712728
 33
0.0
 14
19.71346746970935
 24
8.001256250712728
 34
0.0
100
AcDbRotatedDimension
  0
DIMENSION
  5
132
102
{ACAD_XDICTIONARY
360
133
102
}
102
{ACAD_REACTORS
330
134
102
}
330
1F
100
AcDbEntity
  8
0
100
AcDbDimension
  2
*D14
 10
21.62493086205243
 20
8.001256250712726
 30
0.0
 11
21.62493086205243
 21
8.50125625071273
 31
0.0
 70
    32
 71
     5
  3
Standard
100
AcDbAlignedDimension
 13
19.71346746970935
 23
9.001256250712728
 33
0.0
 14
19.71346746970935
 24
8.001256250712728
 34
0.0
 50
90.0
100
AcDbRotatedDimension
  0
MTEXT
  5
135
330
1F
100
AcDbEntity
  8
0
100
AcDbMText
 10
17.66461010673519
 20
10.26439682080101
 30
0.0
 40
0.2
 41
3.734566969807845
 71
     1
 72
     5
  1
\A1;{\H0.7x;\S1/4;}" thick steel\Pwith 6) {\H0.7x;\S1/4;}" dia holes
 73
     1
 44
1.0
  0
ENDSEC
  0
SECTION
  2
OBJECTS
  0
DICTIONARY
  5
C
330
0
100
AcDbDictionary
281
     1
  3
ACAD_GROUP
350
D
  3
ACAD_LAYOUT
350
1A
  3
ACAD_MLINESTYLE
350
17
  3
ACAD_PLOTSETTINGS
350
19
  3
ACAD_PLOTSTYLENAME
350
E
  3
AcDbVariableDictionary
350
66
  0
DICTIONARY
  5
130
330
12F
100
AcDbDictionary
280
     1
281
     1
  3
ACAD_DIMASSOC
360
131
  0
DICTIONARY
  5
133
330
132
100
AcDbDictionary
280
     1
281
     1
  3
ACAD_DIMASSOC
360
134
  0
DICTIONARY
  5
D
102
{ACAD_REACTORS
330
C
102
}
330
C
100
AcDbDictionary
281
     1
  0
DICTIONARY
  5
1A
102
{ACAD_REACTORS
330
C
102
}
330
C
100
AcDbDictionary
281
     1
  3
Layout1
350
59
  3
Layout2
350
5E
  3
Model
350
22
  0
DICTIONARY
  5
17
102
{ACAD_REACTORS
330
C
102
}
330
C
100
AcDbDictionary
281
     1
  3
Standard
350
18
  0
DICTIONARY
  5
19
102
{ACAD_REACTORS
330
C
102
}
330
C
100
AcDbDictionary
281
     1
  0
ACDBDICTIONARYWDFLT
  5
E
102
{ACAD_REACTORS
330
C
102
}
330
C
100
AcDbDictionary
281
     1
  3
Normal
350
F
100
AcDbDictionaryWithDefault
340
F
  0
DICTIONARY
  5
66
102
{ACAD_REACTORS
330
C
102
}
330
C
100
AcDbDictionary
281
     1
  3
DIMASSOC
350
67
  3
HIDETEXT
350
6B
  0
DIMASSOC
  5
131
102
{ACAD_REACTORS
330
130
102
}
330
130
100
AcDbDimAssoc
330
12F
 90
        3
 70
     0
 71
     0
  1
AcDbOsnapPointRef
 72
    13
331
12E
 73
     2
 91
        1
 40
0.0
 10
17.71346746970935
 20
8.001256250712728
 30
0.0
 75
     0
  1
AcDbOsnapPointRef
 72
     1
331
12E
 73
     2
 91
        1
 40
1.0
 10
19.71346746970935
 20
8.001256250712728
 30
0.0
 75
     0
  0
DIMASSOC
  5
134
102
{ACAD_REACTORS
330
133
102
}
330
133
100
AcDbDimAssoc
330
132
 90
        3
 70
     0
 71
     0
  1
AcDbOsnapPointRef
 72
     1
331
12E
 73
     2
 91
        2
 40
1.0
 10
19.71346746970935
 20
9.001256250712728
 30
0.0
 75
     0
  1
AcDbOsnapPointRef
 72
     1
331
12E
 73
     2
 91
        1
 40
1.0
 10
19.71346746970935
 20
8.001256250712728
 30
0.0
 75
     0
  0
LAYOUT
  5
59
102
{ACAD_REACTORS
330
1A
102
}
330
1A
100
AcDbPlotSettings
  1

  2
None
  4

  6

 40
0.0
 41
0.0
 42
0.0
 43
0.0
 44
0.0
 45
0.0
 46
0.0
 47
0.0
 48
0.0
 49
0.0
140
0.0
141
0.0
142
1.0
143
1.0
 70
   688
 72
     0
 73
     0
 74
     5
  7

 75
    16
147
1.0
148
0.0
149
0.0
100
AcDbLayout
  1
Layout1
 70
     1
 71
     1
 10
0.0
 20
0.0
 11
12.0
 21
9.0
 12
0.0
 22
0.0
 32
0.0
 14
0.0
 24
0.0
 34
0.0
 15
0.0
 25
0.0
 35
0.0
146
0.0
 13
0.0
 23
0.0
 33
0.0
 16
1.0
 26
0.0
 36
0.0
 17
0.0
 27
1.0
 37
0.0
 76
     0
330
58
  0
LAYOUT
  5
5E
102
{ACAD_REACTORS
330
1A
102
}
330
1A
100
AcDbPlotSettings
  1

  2
None
  4

  6

 40
0.0
 41
0.0
 42
0.0
 43
0.0
 44
0.0
 45
0.0
 46
0.0
 47
0.0
 48
0.0
 49
0.0
140
0.0
141
0.0
142
1.0
143
1.0
 70
   688
 72
     0
 73
     0
 74
     5
  7

 75
    16
147
1.0
148
0.0
149
0.0
100
AcDbLayout
  1
Layout2
 70
     1
 71
     2
 10
0.0
 20
0.0
 11
12.0
 21
9.0
 12
0.0
 22
0.0
 32
0.0
 14
0.0
 24
0.0
 34
0.0
 15
0.0
 25
0.0
 35
0.0
146
0.0
 13
0.0
 23
0.0
 33
0.0
 16
1.0
 26
0.0
 36
0.0
 17
0.0
 27
1.0
 37
0.0
 76
     0
330
5D
  0
LAYOUT
  5
22
102
{ACAD_REACTORS
330
1A
102
}
330
1A
100
AcDbPlotSettings
  1

  2
none_device
  4
ANSI_A_(8.50_x_11.00_Inches)
  6

 40
6.349999904632568
 41
19.04999923706054
 42
6.350006103515625
 43
19.04998779296875
 44
215.8999938964843
 45
279.3999938964843
 46
0.0
 47
0.0
 48
0.0
 49
0.0
140
0.0
141
0.0
142
1.0
143
2.584895464708373
 70
 11952
 72
     0
 73
     1
 74
     0
  7

 75
     0
147
0.3868628397755418
148
0.0
149
0.0
100
AcDbLayout
  1
Model
 70
     1
 71
     0
 10
0.0
 20
0.0
 11
12.0
 21
9.0
 12
0.0
 22
0.0
 32
0.0
 14
0.0
 24
0.0
 34
0.0
 15
0.0
 25
0.0
 35
0.0
146
0.0
 13
0.0
 23
0.0
 33
0.0
 16
1.0
 26
0.0
 36
0.0
 17
0.0
 27
1.0
 37
0.0
 76
     0
330
1F
  0
MLINESTYLE
  5
18
102
{ACAD_REACTORS
330
17
102
}
330
17
100
AcDbMlineStyle
  2
STANDARD
 70
     0
  3

 62
   256
 51
90.0
 52
90.0
 71
     2
 49
0.5
 62
   256
  6
BYLAYER
 49
-0.5
 62
   256
  6
BYLAYER
  0
ACDBPLACEHOLDER
  5
F
102
{ACAD_REACTORS
330
E
102
}
330
E
  0
DICTIONARYVAR
  5
67
102
{ACAD_REACTORS
330
66
102
}
330
66
100
DictionaryVariables
280
     0
  1
2
  0
DICTIONARYVAR
  5
6B
102
{ACAD_REACTORS
330
66
102
}
330
66
100
DictionaryVariables
280
     0
  1
1
  0
ENDSEC
  0
EOF
