  0
SECTION
  2
HEADER
  9
$ACADVER
  1
AC1015
  9
$ACADMAINTVER
 70
    13
  9
$DWGCODEPAGE
  3
ANSI_1252
  9
$INSBASE
 10
0.0
 20
0.0
 30
0.0
  9
$EXTMIN
 10
19.38011907281648
 20
3.514736308137173
 30
0.0
  9
$EXTMAX
 10
33.59781596348522
 20
12.58585588230178
 30
0.0
  9
$LIMMIN
 10
0.0
 20
0.0
  9
$LIMMAX
 10
12.0
 20
9.0
  9
$ORTHOMODE
 70
     0
  9
$REGENMODE
 70
     1
  9
$FILLMODE
 70
     1
  9
$QTEXTMODE
 70
     0
  9
$MIRRTEXT
 70
     1
  9
$LTSCALE
 40
1.0
  9
$ATTMODE
 70
     1
  9
$TEXTSIZE
 40
0.2
  9
$TRACEWID
 40
0.05
  9
$TEXTSTYLE
  7
Standard
  9
$CLAYER
  8
0
  9
$CELTYPE
  6
ByLayer
  9
$CECOLOR
 62
   256
  9
$CELTSCALE
 40
1.0
  9
$DISPSILH
 70
     0
  9
$DIMSCALE
 40
1.0
  9
$DIMASZ
 40
0.18
  9
$DIMEXO
 40
0.0625
  9
$DIMDLI
 40
0.38
  9
$DIMRND
 40
0.0
  9
$DIMDLE
 40
0.0
  9
$DIMEXE
 40
0.18
  9
$DIMTP
 40
0.0
  9
$DIMTM
 40
0.0
  9
$DIMTXT
 40
0.18
  9
$DIMCEN
 40
0.09
  9
$DIMTSZ
 40
0.0
  9
$DIMTOL
 70
     0
  9
$DIMLIM
 70
     0
  9
$DIMTIH
 70
     1
  9
$DIMTOH
 70
     1
  9
$DIMSE1
 70
     0
  9
$DIMSE2
 70
     0
  9
$DIMTAD
 70
     0
  9
$DIMZIN
 70
     0
  9
$DIMBLK
  1

  9
$DIMASO
 70
     1
  9
$DIMSHO
 70
     1
  9
$DIMPOST
  1

  9
$DIMAPOST
  1

  9
$DIMALT
 70
     0
  9
$DIMALTD
 70
     2
  9
$DIMALTF
 40
25.4
  9
$DIMLFAC
 40
1.0
  9
$DIMTOFL
 70
     0
  9
$DIMTVP
 40
0.0
  9
$DIMTIX
 70
     0
  9
$DIMSOXD
 70
     0
  9
$DIMSAH
 70
     0
  9
$DIMBLK1
  1

  9
$DIMBLK2
  1

  9
$DIMSTYLE
  2
Standard
  9
$DIMCLRD
 70
     0
  9
$DIMCLRE
 70
     0
  9
$DIMCLRT
 70
     0
  9
$DIMTFAC
 40
1.0
  9
$DIMGAP
 40
0.09
  9
$DIMJUST
 70
     0
  9
$DIMSD1
 70
     0
  9
$DIMSD2
 70
     0
  9
$DIMTOLJ
 70
     1
  9
$DIMTZIN
 70
     0
  9
$DIMALTZ
 70
     0
  9
$DIMALTTZ
 70
     0
  9
$DIMUPT
 70
     0
  9
$DIMDEC
 70
     4
  9
$DIMTDEC
 70
     4
  9
$DIMALTU
 70
     2
  9
$DIMALTTD
 70
     2
  9
$DIMTXSTY
  7
Standard
  9
$DIMAUNIT
 70
     0
  9
$DIMADEC
 70
     0
  9
$DIMALTRND
 40
0.0
  9
$DIMAZIN
 70
     0
  9
$DIMDSEP
 70
    46
  9
$DIMATFIT
 70
     3
  9
$DIMFRAC
 70
     0
  9
$DIMLDRBLK
  1

  9
$DIMLUNIT
 70
     2
  9
$DIMLWD
 70
    -2
  9
$DIMLWE
 70
    -2
  9
$DIMTMOVE
 70
     0
  9
$LUNITS
 70
     2
  9
$LUPREC
 70
     4
  9
$SKETCHINC
 40
0.1
  9
$FILLETRAD
 40
0.5
  9
$AUNITS
 70
     0
  9
$AUPREC
 70
     0
  9
$MENU
  1
.
  9
$ELEVATION
 40
0.0
  9
$PELEVATION
 40
0.0
  9
$THICKNESS
 40
0.0
  9
$LIMCHECK
 70
     0
  9
$CHAMFERA
 40
0.5
  9
$CHAMFERB
 40
0.5
  9
$CHAMFERC
 40
1.0
  9
$CHAMFERD
 40
0.0
  9
$SKPOLY
 70
     0
  9
$TDCREATE
 40
2459275.324353380
  9
$TDUCREATE
 40
2459275.657686713
  9
$TDUPDATE
 40
2459275.327184884
  9
$TDUUPDATE
 40
2459275.660518217
  9
$TDINDWG
 40
0.0028315046
  9
$TDUSRTIMER
 40
0.0028315046
  9
$USRTIMER
 70
     1
  9
$ANGBASE
 50
0.0
  9
$ANGDIR
 70
     0
  9
$PDMODE
 70
     0
  9
$PDSIZE
 40
0.0
  9
$PLINEWID
 40
0.0
  9
$SPLFRAME
 70
     0
  9
$SPLINETYPE
 70
     6
  9
$SPLINESEGS
 70
     8
  9
$HANDSEED
  5
16E
  9
$SURFTAB1
 70
     6
  9
$SURFTAB2
 70
     6
  9
$SURFTYPE
 70
     6
  9
$SURFU
 70
     6
  9
$SURFV
 70
     6
  9
$UCSBASE
  2

  9
$UCSNAME
  2

  9
$UCSORG
 10
0.0
 20
0.0
 30
0.0
  9
$UCSXDIR
 10
1.0
 20
0.0
 30
0.0
  9
$UCSYDIR
 10
0.0
 20
1.0
 30
0.0
  9
$UCSORTHOREF
  2

  9
$UCSORTHOVIEW
 70
     0
  9
$UCSORGTOP
 10
0.0
 20
0.0
 30
0.0
  9
$UCSORGBOTTOM
 10
0.0
 20
0.0
 30
0.0
  9
$UCSORGLEFT
 10
0.0
 20
0.0
 30
0.0
  9
$UCSORGRIGHT
 10
0.0
 20
0.0
 30
0.0
  9
$UCSORGFRONT
 10
0.0
 20
0.0
 30
0.0
  9
$UCSORGBACK
 10
0.0
 20
0.0
 30
0.0
  9
$PUCSBASE
  2

  9
$PUCSNAME
  2

  9
$PUCSORG
 10
0.0
 20
0.0
 30
0.0
  9
$PUCSXDIR
 10
1.0
 20
0.0
 30
0.0
  9
$PUCSYDIR
 10
0.0
 20
1.0
 30
0.0
  9
$PUCSORTHOREF
  2

  9
$PUCSORTHOVIEW
 70
     0
  9
$PUCSORGTOP
 10
0.0
 20
0.0
 30
0.0
  9
$PUCSORGBOTTOM
 10
0.0
 20
0.0
 30
0.0
  9
$PUCSORGLEFT
 10
0.0
 20
0.0
 30
0.0
  9
$PUCSORGRIGHT
 10
0.0
 20
0.0
 30
0.0
  9
$PUCSORGFRONT
 10
0.0
 20
0.0
 30
0.0
  9
$PUCSORGBACK
 10
0.0
 20
0.0
 30
0.0
  9
$USERI1
 70
     0
  9
$USERI2
 70
     0
  9
$USERI3
 70
     0
  9
$USERI4
 70
     0
  9
$USERI5
 70
     0
  9
$USERR1
 40
0.0
  9
$USERR2
 40
0.0
  9
$USERR3
 40
0.0
  9
$USERR4
 40
0.0
  9
$USERR5
 40
0.0
  9
$WORLDVIEW
 70
     1
  9
$SHADEDGE
 70
     3
  9
$SHADEDIF
 70
    70
  9
$TILEMODE
 70
     1
  9
$MAXACTVP
 70
    64
  9
$PINSBASE
 10
0.0
 20
0.0
 30
0.0
  9
$PLIMCHECK
 70
     0
  9
$PEXTMIN
 10
0.0
 20
0.0
 30
0.0
  9
$PEXTMAX
 10
0.0
 20
0.0
 30
0.0
  9
$PLIMMIN
 10
0.0
 20
0.0
  9
$PLIMMAX
 10
12.0
 20
9.0
  9
$UNITMODE
 70
     0
  9
$VISRETAIN
 70
     1
  9
$PLINEGEN
 70
     0
  9
$PSLTSCALE
 70
     1
  9
$TREEDEPTH
 70
  3020
  9
$CMLSTYLE
  2
Standard
  9
$CMLJUST
 70
     0
  9
$CMLSCALE
 40
1.0
  9
$PROXYGRAPHICS
 70
     1
  9
$MEASUREMENT
 70
     0
  9
$CELWEIGHT
370
    -1
  9
$ENDCAPS
280
     0
  9
$JOINSTYLE
280
     0
  9
$LWDISPLAY
290
     0
  9
$INSUNITS
 70
     1
  9
$HYPERLINKBASE
  1

  9
$STYLESHEET
  1

  9
$XEDIT
290
     1
  9
$CEPSNTYPE
380
     0
  9
$PSTYLEMODE
290
     1
  9
$FINGERPRINTGUID
  2
{FDEAD576-A652-11D2-9A35-0060089B3A3F}
  9
$VERSIONGUID
  2
{104D9875-06B5-4134-9B71-999A21797872}
  9
$EXTNAMES
290
     1
  9
$PSVPSCALE
 40
0.0
  9
$OLESTARTUP
290
     0
  0
ENDSEC
  0
SECTION
  2
CLASSES
  0
CLASS
  1
ACDBDICTIONARYWDFLT
  2
AcDbDictionaryWithDefault
  3
AutoCAD 2000
 90
        0
280
     0
281
     0
  0
CLASS
  1
ACDBPLACEHOLDER
  2
AcDbPlaceHolder
  3
AutoCAD 2000
 90
        0
280
     0
281
     0
  0
CLASS
  1
LAYOUT
  2
AcDbLayout
  3
AutoCAD 2000
 90
        0
280
     0
281
     0
  0
CLASS
  1
DICTIONARYVAR
  2
AcDbDictionaryVar
  3
AutoCAD 2000
 90
        0
280
     0
281
     0
  0
CLASS
  1
DIMASSOC
  2
AcDbDimAssoc
  3
"AcDbDimAssoc|Product Desc:     AcDim ARX App For Dimension|Company:          Autodesk, Inc.|WEB Address:      www.autodesk.com"
 90
        0
280
     0
281
     0
  0
ENDSEC
  0
SECTION
  2
TABLES
  0
TABLE
  2
VPORT
  5
8
330
0
100
AcDbSymbolTable
 70
     3
  0
VPORT
  5
16D
330
8
100
AcDbSymbolTableRecord
100
AcDbViewportTableRecord
  2
*Active
 70
     0
 10
0.0
 20
0.0
 11
1.0
 21
1.0
 12
22.30023393388437
 22
8.251784137851712
 13
0.0
 23
0.0
 14
0.5
 24
0.5
 15
0.5
 25
0.5
 16
0.0
 26
0.0
 36
1.0
 17
0.0
 27
0.0
 37
0.0
 40
11.31934104853386
 41
2.239024390243902
 42
50.0
 43
0.0
 44
0.0
 50
0.0
 51
0.0
 71
     0
 72
   100
 73
     1
 74
     3
 75
     0
 76
     0
 77
     0
 78
     0
281
     0
 65
     1
110
0.0
120
0.0
130
0.0
111
1.0
121
0.0
131
0.0
112
0.0
122
1.0
132
0.0
 79
     0
146
0.0
  0
ENDTAB
  0
TABLE
  2
LTYPE
  5
5
330
0
100
AcDbSymbolTable
 70
     1
  0
LTYPE
  5
14
330
5
100
AcDbSymbolTableRecord
100
AcDbLinetypeTableRecord
  2
ByBlock
 70
     0
  3

 72
    65
 73
     0
 40
0.0
  0
LTYPE
  5
15
330
5
100
AcDbSymbolTableRecord
100
AcDbLinetypeTableRecord
  2
ByLayer
 70
     0
  3

 72
    65
 73
     0
 40
0.0
  0
LTYPE
  5
16
330
5
100
AcDbSymbolTableRecord
100
AcDbLinetypeTableRecord
  2
Continuous
 70
     0
  3
Solid line
 72
    65
 73
     0
 40
0.0
  0
ENDTAB
  0
TABLE
  2
LAYER
  5
2
330
0
100
AcDbSymbolTable
 70
     3
  0
LAYER
  5
10
330
2
100
AcDbSymbolTableRecord
100
AcDbLayerTableRecord
  2
0
 70
     0
 62
     7
  6
Continuous
370
    -3
390
F
  0
LAYER
  5
A6
330
2
100
AcDbSymbolTableRecord
100
AcDbLayerTableRecord
  2
Defpoints
 70
     0
 62
     7
  6
Continuous
290
     0
370
    -3
390
F
  0
LAYER
  5
A7
330
2
100
AcDbSymbolTableRecord
100
AcDbLayerTableRecord
  2
Dem
 70
     0
 62
     7
  6
Continuous
370
    -3
390
F
  0
ENDTAB
  0
TABLE
  2
STYLE
  5
3
330
0
100
AcDbSymbolTable
 70
     1
  0
STYLE
  5
11
330
3
100
AcDbSymbolTableRecord
100
AcDbTextStyleTableRecord
  2
Standard
 70
     0
 40
0.0
 41
1.0
 50
0.0
 71
     0
 42
0.2
  3
txt
  4

  0
ENDTAB
  0
TABLE
  2
VIEW
  5
6
330
0
100
AcDbSymbolTable
 70
     0
  0
ENDTAB
  0
TABLE
  2
UCS
  5
7
330
0
100
AcDbSymbolTable
 70
     0
  0
ENDTAB
  0
TABLE
  2
APPID
  5
9
330
0
100
AcDbSymbolTable
 70
     1
  0
APPID
  5
12
330
9
100
AcDbSymbolTableRecord
100
AcDbRegAppTableRecord
  2
ACAD
 70
     0
  0
ENDTAB
  0
TABLE
  2
DIMSTYLE
  5
A
330
0
100
AcDbSymbolTable
 70
     1
100
AcDbDimStyleTable
 71
     0
  0
DIMSTYLE
105
27
102
{ACAD_REACTORS
330
14B
330
14E
102
}
330
A
100
AcDbSymbolTableRecord
100
AcDbDimStyleTableRecord
  2
Standard
 70
     0
340
11
  0
ENDTAB
  0
TABLE
  2
BLOCK_RECORD
  5
1
330
0
100
AcDbSymbolTable
 70
    15
  0
BLOCK_RECORD
  5
1F
330
1
100
AcDbSymbolTableRecord
100
AcDbBlockTableRecord
  2
*Model_Space
340
22
  0
BLOCK_RECORD
  5
58
330
1
100
AcDbSymbolTableRecord
100
AcDbBlockTableRecord
  2
*Paper_Space
340
59
  0
BLOCK_RECORD
  5
5D
330
1
100
AcDbSymbolTableRecord
100
AcDbBlockTableRecord
  2
*Paper_Space0
340
5E
  0
BLOCK_RECORD
  5
74
330
1
100
AcDbSymbolTableRecord
100
AcDbBlockTableRecord
  2
*D1
340
0
  0
BLOCK_RECORD
  5
81
330
1
100
AcDbSymbolTableRecord
100
AcDbBlockTableRecord
  2
*D2
340
0
  0
BLOCK_RECORD
  5
8E
330
1
100
AcDbSymbolTableRecord
100
AcDbBlockTableRecord
  2
*D3
340
0
  0
BLOCK_RECORD
  5
9B
330
1
100
AcDbSymbolTableRecord
100
AcDbBlockTableRecord
  2
*D4
340
0
  0
BLOCK_RECORD
  5
EA
330
1
100
AcDbSymbolTableRecord
100
AcDbBlockTableRecord
  2
*D6
340
0
  0
BLOCK_RECORD
  5
F7
330
1
100
AcDbSymbolTableRecord
100
AcDbBlockTableRecord
  2
*D7
340
0
  0
BLOCK_RECORD
  5
104
330
1
100
AcDbSymbolTableRecord
100
AcDbBlockTableRecord
  2
*D8
340
0
  0
BLOCK_RECORD
  5
111
330
1
100
AcDbSymbolTableRecord
100
AcDbBlockTableRecord
  2
*D9
340
0
  0
BLOCK_RECORD
  5
124
330
1
100
AcDbSymbolTableRecord
100
AcDbBlockTableRecord
  2
*D10
340
0
  0
BLOCK_RECORD
  5
131
330
1
100
AcDbSymbolTableRecord
100
AcDbBlockTableRecord
  2
*D11
340
0
  0
BLOCK_RECORD
  5
152
330
1
100
AcDbSymbolTableRecord
100
AcDbBlockTableRecord
  2
*D13
340
0
  0
BLOCK_RECORD
  5
15F
330
1
100
AcDbSymbolTableRecord
100
AcDbBlockTableRecord
  2
*D14
340
0
  0
ENDTAB
  0
ENDSEC
  0
SECTION
  2
BLOCKS
  0
BLOCK
  5
20
330
1F
100
AcDbEntity
  8
0
100
AcDbBlockBegin
  2
*Model_Space
 70
     0
 10
0.0
 20
0.0
 30
0.0
  3
*Model_Space
  1

  0
ENDBLK
  5
21
330
1F
100
AcDbEntity
  8
0
100
AcDbBlockEnd
  0
BLOCK
  5
5A
330
58
100
AcDbEntity
 67
     1
  8
0
100
AcDbBlockBegin
  2
*Paper_Space
 70
     0
 10
0.0
 20
0.0
 30
0.0
  3
*Paper_Space
  1

  0
ENDBLK
  5
5B
330
58
100
AcDbEntity
 67
     1
  8
0
100
AcDbBlockEnd
  0
BLOCK
  5
5F
330
5D
100
AcDbEntity
  8
0
100
AcDbBlockBegin
  2
*Paper_Space0
 70
     0
 10
0.0
 20
0.0
 30
0.0
  3
*Paper_Space0
  1

  0
ENDBLK
  5
60
330
5D
100
AcDbEntity
  8
0
100
AcDbBlockEnd
  0
BLOCK
  5
7F
330
74
100
AcDbEntity
  8
0
100
AcDbBlockBegin
  2
*D1
 70
     1
 10
0.0
 20
0.0
 30
0.0
  3
*D1
  1

  0
LINE
  5
75
330
74
100
AcDbEntity
  8
Dem
 62
     0
370
    -2
100
AcDbLine
 10
-2.771573849911035
 20
18.15964833481993
 30
0.0
 11
-2.771573849911035
 21
19.77911279169477
 31
0.0
  0
LINE
  5
76
330
74
100
AcDbEntity
  8
Dem
 62
     0
370
    -2
100
AcDbLine
 10
-3.271573849911035
 20
18.65964833481993
 30
0.0
 11
-3.271573849911035
 21
19.77911279169477
 31
0.0
  0
LINE
  5
77
330
74
100
AcDbEntity
  8
Dem
 62
     0
370
    -2
100
AcDbLine
 10
-2.591573849911035
 20
19.59911279169477
 30
0.0
 11
-2.411573849911035
 21
19.59911279169477
 31
0.0
  0
LINE
  5
78
330
74
100
AcDbEntity
  8
Dem
 62
     0
370
    -2
100
AcDbLine
 10
-3.451573849911035
 20
19.59911279169477
 30
0.0
 11
-3.631573849911036
 21
19.59911279169477
 31
0.0
  0
SOLID
  5
79
330
74
100
AcDbEntity
  8
Dem
 62
     0
100
AcDbTrace
 10
-2.591573849911035
 20
19.62911279169478
 30
0.0
 11
-2.591573849911035
 21
19.56911279169477
 31
0.0
 12
-2.771573849911035
 22
19.59911279169477
 32
0.0
 13
-2.771573849911035
 23
19.59911279169477
 33
0.0
  0
SOLID
  5
7A
330
74
100
AcDbEntity
  8
Dem
 62
     0
100
AcDbTrace
 10
-3.451573849911035
 20
19.62911279169478
 30
0.0
 11
-3.451573849911035
 21
19.56911279169477
 31
0.0
 12
-3.271573849911035
 22
19.59911279169477
 32
0.0
 13
-3.271573849911035
 23
19.59911279169477
 33
0.0
  0
MTEXT
  5
7B
330
74
100
AcDbEntity
  8
Dem
 62
     0
100
AcDbMText
 10
-3.886573849911036
 20
19.59911279169477
 30
0.0
 40
0.18
 41
0.0
 71
     5
 72
     1
  1
\A1;0.5
 73
     1
 44
1.0
  0
POINT
  5
7C
330
74
100
AcDbEntity
  8
Defpoints
 62
     0
100
AcDbPoint
 10
-2.771573849911035
 20
18.09714833481993
 30
0.0
  0
POINT
  5
7D
330
74
100
AcDbEntity
  8
Defpoints
 62
     0
100
AcDbPoint
 10
-3.271573849911035
 20
18.59714833481993
 30
0.0
  0
POINT
  5
7E
330
74
100
AcDbEntity
  8
Defpoints
 62
     0
100
AcDbPoint
 10
-3.271573849911035
 20
19.59911279169477
 30
0.0
  0
ENDBLK
  5
80
330
74
100
AcDbEntity
  8
0
100
AcDbBlockEnd
  0
BLOCK
  5
8C
330
81
100
AcDbEntity
  8
0
100
AcDbBlockBegin
  2
*D2
 70
     1
 10
0.0
 20
0.0
 30
0.0
  3
*D2
  1

  0
LINE
  5
82
330
81
100
AcDbEntity
  8
Dem
 62
     0
370
    -2
100
AcDbLine
 10
2.290926150088964
 20
18.09714833481993
 30
0.0
 11
3.550359015846816
 21
18.09714833481993
 31
0.0
  0
LINE
  5
83
330
81
100
AcDbEntity
  8
Dem
 62
     0
370
    -2
100
AcDbLine
 10
2.290926150088964
 20
17.09714833481993
 30
0.0
 11
3.550359015846816
 21
17.09714833481993
 31
0.0
  0
LINE
  5
84
330
81
100
AcDbEntity
  8
Dem
 62
     0
370
    -2
100
AcDbLine
 10
3.370359015846815
 20
17.91714833481993
 30
0.0
 11
3.370359015846815
 21
17.77714833481993
 31
0.0
  0
LINE
  5
85
330
81
100
AcDbEntity
  8
Dem
 62
     0
370
    -2
100
AcDbLine
 10
3.370359015846815
 20
17.27714833481993
 30
0.0
 11
3.370359015846815
 21
17.41714833481993
 31
0.0
  0
SOLID
  5
86
330
81
100
AcDbEntity
  8
Dem
 62
     0
100
AcDbTrace
 10
3.340359015846816
 20
17.91714833481993
 30
0.0
 11
3.400359015846815
 21
17.91714833481993
 31
0.0
 12
3.370359015846815
 22
18.09714833481993
 32
0.0
 13
3.370359015846815
 23
18.09714833481993
 33
0.0
  0
SOLID
  5
87
330
81
100
AcDbEntity
  8
Dem
 62
     0
100
AcDbTrace
 10
3.340359015846816
 20
17.27714833481993
 30
0.0
 11
3.400359015846815
 21
17.27714833481993
 31
0.0
 12
3.370359015846815
 22
17.09714833481993
 32
0.0
 13
3.370359015846815
 23
17.09714833481993
 33
0.0
  0
MTEXT
  5
88
330
81
100
AcDbEntity
  8
Dem
 62
     0
100
AcDbMText
 10
3.370359015846812
 20
17.59714833481993
 30
0.0
 40
0.18
 41
0.0
 71
     5
 72
     1
  1
\A1;1.0
 73
     1
 44
1.0
  0
POINT
  5
89
330
81
100
AcDbEntity
  8
Defpoints
 62
     0
100
AcDbPoint
 10
2.228426150088964
 20
18.09714833481993
 30
0.0
  0
POINT
  5
8A
330
81
100
AcDbEntity
  8
Defpoints
 62
     0
100
AcDbPoint
 10
2.228426150088964
 20
17.09714833481993
 30
0.0
  0
POINT
  5
8B
330
81
100
AcDbEntity
  8
Defpoints
 62
     0
100
AcDbPoint
 10
3.370359015846815
 20
17.09714833481993
 30
0.0
  0
ENDBLK
  5
8D
330
81
100
AcDbEntity
  8
0
100
AcDbBlockEnd
  0
BLOCK
  5
99
330
8E
100
AcDbEntity
  8
0
100
AcDbBlockBegin
  2
*D3
 70
     1
 10
0.0
 20
0.0
 30
0.0
  3
*D3
  1

  0
LINE
  5
8F
330
8E
100
AcDbEntity
  8
Dem
 62
     0
370
    -2
100
AcDbLine
 10
2.228426150088964
 20
18.15964833481993
 30
0.0
 11
2.228426150088964
 21
19.54759449638213
 31
0.0
  0
LINE
  5
90
330
8E
100
AcDbEntity
  8
Dem
 62
     0
370
    -2
100
AcDbLine
 10
1.228426150088964
 20
18.15964833481993
 30
0.0
 11
1.228426150088964
 21
19.54759449638213
 31
0.0
  0
LINE
  5
91
330
8E
100
AcDbEntity
  8
Dem
 62
     0
370
    -2
100
AcDbLine
 10
2.048426150088964
 20
19.36759449638214
 30
0.0
 11
1.953426150088964
 21
19.36759449638214
 31
0.0
  0
LINE
  5
92
330
8E
100
AcDbEntity
  8
Dem
 62
     0
370
    -2
100
AcDbLine
 10
1.408426150088964
 20
19.36759449638214
 30
0.0
 11
1.503426150088964
 21
19.36759449638214
 31
0.0
  0
SOLID
  5
93
330
8E
100
AcDbEntity
  8
Dem
 62
     0
100
AcDbTrace
 10
2.048426150088964
 20
19.39759449638214
 30
0.0
 11
2.048426150088964
 21
19.33759449638214
 31
0.0
 12
2.228426150088964
 22
19.36759449638214
 32
0.0
 13
2.228426150088964
 23
19.36759449638214
 33
0.0
  0
SOLID
  5
94
330
8E
100
AcDbEntity
  8
Dem
 62
     0
100
AcDbTrace
 10
1.408426150088964
 20
19.39759449638214
 30
0.0
 11
1.408426150088964
 21
19.33759449638214
 31
0.0
 12
1.228426150088964
 22
19.36759449638214
 32
0.0
 13
1.228426150088964
 23
19.36759449638214
 33
0.0
  0
MTEXT
  5
95
330
8E
100
AcDbEntity
  8
Dem
 62
     0
100
AcDbMText
 10
1.728426150088964
 20
19.36759449638214
 30
0.0
 40
0.18
 41
0.0
 71
     5
 72
     1
  1
\A1;1.0
 73
     1
 44
1.0
  0
POINT
  5
96
330
8E
100
AcDbEntity
  8
Defpoints
 62
     0
100
AcDbPoint
 10
2.228426150088964
 20
18.09714833481993
 30
0.0
  0
POINT
  5
97
330
8E
100
AcDbEntity
  8
Defpoints
 62
     0
100
AcDbPoint
 10
1.228426150088964
 20
18.09714833481993
 30
0.0
  0
POINT
  5
98
330
8E
100
AcDbEntity
  8
Defpoints
 62
     0
100
AcDbPoint
 10
1.228426150088964
 20
19.36759449638214
 30
0.0
  0
ENDBLK
  5
9A
330
8E
100
AcDbEntity
  8
0
100
AcDbBlockEnd
  0
BLOCK
  5
A4
330
9B
100
AcDbEntity
  8
0
100
AcDbBlockBegin
  2
*D4
 70
     1
 10
0.0
 20
0.0
 30
0.0
  3
*D4
  1

  0
LINE
  5
9C
330
9B
100
AcDbEntity
  8
Dem
 62
     0
370
    -2
100
AcDbLine
 10
1.139148609877881
 20
15.60287456485018
 30
0.0
 11
0.7341486098778783
 21
15.60287456485018
 31
0.0
  0
LINE
  5
9D
330
9B
100
AcDbEntity
  8
Dem
 62
     0
370
    -2
100
AcDbLine
 10
0.7341486098778783
 20
15.60287456485018
 30
0.0
 11
0.5226886619093128
 21
15.28628544311183
 31
0.0
  0
MTEXT
  5
9E
330
9B
100
AcDbEntity
  8
Dem
 62
     0
100
AcDbMText
 10
1.49914860987788
 20
15.60287456485018
 30
0.0
 40
0.18
 41
0.0
 71
     5
 72
     1
  1
\A1;\U+22052.5
 73
     1
 44
1.0
  0
SOLID
  5
9F
330
9B
100
AcDbEntity
  8
Dem
 62
     0
100
AcDbTrace
 10
0.4977417295675251
 20
15.30294829301016
 30
0.0
 11
0.5476355942511005
 21
15.26962259321351
 31
0.0
 12
0.4227115625193392
 22
15.13660384906111
 32
0.0
 13
0.4227115625193392
 23
15.13660384906111
 33
0.0
  0
LINE
  5
A0
330
9B
100
AcDbEntity
  8
Dem
 62
     0
370
    -2
100
AcDbLine
 10
-0.3615738499110348
 20
14.09714833481993
 30
0.0
 11
-0.1815738499110351
 21
14.09714833481993
 31
0.0
  0
LINE
  5
A1
330
9B
100
AcDbEntity
  8
Dem
 62
     0
370
    -2
100
AcDbLine
 10
-0.2715738499110349
 20
14.00714833481993
 30
0.0
 11
-0.2715738499110341
 21
14.18714833481993
 31
0.0
  0
POINT
  5
A2
330
9B
100
AcDbEntity
  8
Defpoints
 62
     0
100
AcDbPoint
 10
0.4227115625193392
 20
15.13660384906111
 30
0.0
  0
POINT
  5
A3
330
9B
100
AcDbEntity
  8
Defpoints
 62
     0
100
AcDbPoint
 10
-0.9658592623414108
 20
13.05769282057875
 30
0.0
  0
ENDBLK
  5
A5
330
9B
100
AcDbEntity
  8
0
100
AcDbBlockEnd
  0
BLOCK
  5
F5
330
EA
100
AcDbEntity
  8
0
100
AcDbBlockBegin
  2
*D6
 70
     1
 10
0.0
 20
0.0
 30
0.0
  3
*D6
  1

  0
LINE
  5
EB
330
EA
100
AcDbEntity
  8
Dem
 62
     0
370
    -2
100
AcDbLine
 10
20.66011907281648
 20
10.96639142542694
 30
0.0
 11
20.66011907281648
 21
12.58585588230178
 31
0.0
  0
LINE
  5
EC
330
EA
100
AcDbEntity
  8
Dem
 62
     0
370
    -2
100
AcDbLine
 10
20.16011907281648
 20
11.46639142542694
 30
0.0
 11
20.16011907281648
 21
12.58585588230178
 31
0.0
  0
LINE
  5
ED
330
EA
100
AcDbEntity
  8
Dem
 62
     0
370
    -2
100
AcDbLine
 10
20.84011907281648
 20
12.40585588230178
 30
0.0
 11
21.02011907281648
 21
12.40585588230178
 31
0.0
  0
LINE
  5
EE
330
EA
100
AcDbEntity
  8
Dem
 62
     0
370
    -2
100
AcDbLine
 10
19.98011907281648
 20
12.40585588230178
 30
0.0
 11
19.80011907281648
 21
12.40585588230178
 31
0.0
  0
SOLID
  5
EF
330
EA
100
AcDbEntity
  8
Dem
 62
     0
100
AcDbTrace
 10
20.84011907281648
 20
12.43585588230178
 30
0.0
 11
20.84011907281648
 21
12.37585588230178
 31
0.0
 12
20.66011907281648
 22
12.40585588230178
 32
0.0
 13
20.66011907281648
 23
12.40585588230178
 33
0.0
  0
SOLID
  5
F0
330
EA
100
AcDbEntity
  8
Dem
 62
     0
100
AcDbTrace
 10
19.98011907281648
 20
12.43585588230178
 30
0.0
 11
19.98011907281648
 21
12.37585588230178
 31
0.0
 12
20.16011907281648
 22
12.40585588230178
 32
0.0
 13
20.16011907281648
 23
12.40585588230178
 33
0.0
  0
MTEXT
  5
F1
330
EA
100
AcDbEntity
  8
Dem
 62
     0
100
AcDbMText
 10
19.54511907281648
 20
12.40585588230178
 30
0.0
 40
0.18
 41
0.0
 71
     5
 72
     1
  1
\A1;0.5
 73
     1
 44
1.0
  0
POINT
  5
F2
330
EA
100
AcDbEntity
  8
Defpoints
 62
     0
100
AcDbPoint
 10
20.66011907281648
 20
10.90389142542694
 30
0.0
  0
POINT
  5
F3
330
EA
100
AcDbEntity
  8
Defpoints
 62
     0
100
AcDbPoint
 10
20.16011907281648
 20
11.40389142542694
 30
0.0
  0
POINT
  5
F4
330
EA
100
AcDbEntity
  8
Defpoints
 62
     0
100
AcDbPoint
 10
20.16011907281648
 20
12.40585588230178
 30
0.0
  0
ENDBLK
  5
F6
330
EA
100
AcDbEntity
  8
0
100
AcDbBlockEnd
  0
BLOCK
  5
102
330
F7
100
AcDbEntity
  8
0
100
AcDbBlockBegin
  2
*D7
 70
     1
 10
0.0
 20
0.0
 30
0.0
  3
*D7
  1

  0
LINE
  5
F8
330
F7
100
AcDbEntity
  8
Dem
 62
     0
370
    -2
100
AcDbLine
 10
25.72261907281648
 20
10.90389142542694
 30
0.0
 11
26.98205193857433
 21
10.90389142542694
 31
0.0
  0
LINE
  5
F9
330
F7
100
AcDbEntity
  8
Dem
 62
     0
370
    -2
100
AcDbLine
 10
25.72261907281648
 20
9.903891425426941
 30
0.0
 11
26.98205193857433
 21
9.903891425426941
 31
0.0
  0
LINE
  5
FA
330
F7
100
AcDbEntity
  8
Dem
 62
     0
370
    -2
100
AcDbLine
 10
26.80205193857434
 20
10.72389142542694
 30
0.0
 11
26.80205193857434
 21
10.58389142542694
 31
0.0
  0
LINE
  5
FB
330
F7
100
AcDbEntity
  8
Dem
 62
     0
370
    -2
100
AcDbLine
 10
26.80205193857434
 20
10.08389142542694
 30
0.0
 11
26.80205193857434
 21
10.22389142542694
 31
0.0
  0
SOLID
  5
FC
330
F7
100
AcDbEntity
  8
Dem
 62
     0
100
AcDbTrace
 10
26.77205193857433
 20
10.72389142542694
 30
0.0
 11
26.83205193857434
 21
10.72389142542694
 31
0.0
 12
26.80205193857434
 22
10.90389142542694
 32
0.0
 13
26.80205193857434
 23
10.90389142542694
 33
0.0
  0
SOLID
  5
FD
330
F7
100
AcDbEntity
  8
Dem
 62
     0
100
AcDbTrace
 10
26.77205193857433
 20
10.08389142542694
 30
0.0
 11
26.83205193857434
 21
10.08389142542694
 31
0.0
 12
26.80205193857434
 22
9.903891425426941
 32
0.0
 13
26.80205193857434
 23
9.903891425426941
 33
0.0
  0
MTEXT
  5
FE
330
F7
100
AcDbEntity
  8
Dem
 62
     0
100
AcDbMText
 10
26.80205193857433
 20
10.40389142542694
 30
0.0
 40
0.18
 41
0.0
 71
     5
 72
     1
  1
\A1;1.0
 73
     1
 44
1.0
  0
POINT
  5
FF
330
F7
100
AcDbEntity
  8
Defpoints
 62
     0
100
AcDbPoint
 10
25.66011907281648
 20
10.90389142542694
 30
0.0
  0
POINT
  5
100
330
F7
100
AcDbEntity
  8
Defpoints
 62
     0
100
AcDbPoint
 10
25.66011907281648
 20
9.903891425426941
 30
0.0
  0
POINT
  5
101
330
F7
100
AcDbEntity
  8
Defpoints
 62
     0
100
AcDbPoint
 10
26.80205193857434
 20
9.903891425426941
 30
0.0
  0
ENDBLK
  5
103
330
F7
100
AcDbEntity
  8
0
100
AcDbBlockEnd
  0
BLOCK
  5
10F
330
104
100
AcDbEntity
  8
0
100
AcDbBlockBegin
  2
*D8
 70
     1
 10
0.0
 20
0.0
 30
0.0
  3
*D8
  1

  0
LINE
  5
105
330
104
100
AcDbEntity
  8
Dem
 62
     0
370
    -2
100
AcDbLine
 10
25.66011907281648
 20
10.96639142542694
 30
0.0
 11
25.66011907281648
 21
12.35433758698914
 31
0.0
  0
LINE
  5
106
330
104
100
AcDbEntity
  8
Dem
 62
     0
370
    -2
100
AcDbLine
 10
24.66011907281648
 20
10.96639142542694
 30
0.0
 11
24.66011907281648
 21
12.35433758698914
 31
0.0
  0
LINE
  5
107
330
104
100
AcDbEntity
  8
Dem
 62
     0
370
    -2
100
AcDbLine
 10
25.48011907281648
 20
12.17433758698914
 30
0.0
 11
25.38511907281648
 21
12.17433758698914
 31
0.0
  0
LINE
  5
108
330
104
100
AcDbEntity
  8
Dem
 62
     0
370
    -2
100
AcDbLine
 10
24.84011907281648
 20
12.17433758698914
 30
0.0
 11
24.93511907281648
 21
12.17433758698914
 31
0.0
  0
SOLID
  5
109
330
104
100
AcDbEntity
  8
Dem
 62
     0
100
AcDbTrace
 10
25.48011907281648
 20
12.20433758698914
 30
0.0
 11
25.48011907281648
 21
12.14433758698914
 31
0.0
 12
25.66011907281648
 22
12.17433758698914
 32
0.0
 13
25.66011907281648
 23
12.17433758698914
 33
0.0
  0
SOLID
  5
10A
330
104
100
AcDbEntity
  8
Dem
 62
     0
100
AcDbTrace
 10
24.84011907281648
 20
12.20433758698914
 30
0.0
 11
24.84011907281648
 21
12.14433758698914
 31
0.0
 12
24.66011907281648
 22
12.17433758698914
 32
0.0
 13
24.66011907281648
 23
12.17433758698914
 33
0.0
  0
MTEXT
  5
10B
330
104
100
AcDbEntity
  8
Dem
 62
     0
100
AcDbMText
 10
25.16011907281648
 20
12.17433758698914
 30
0.0
 40
0.18
 41
0.0
 71
     5
 72
     1
  1
\A1;1.0
 73
     1
 44
1.0
  0
POINT
  5
10C
330
104
100
AcDbEntity
  8
Defpoints
 62
     0
100
AcDbPoint
 10
25.66011907281648
 20
10.90389142542694
 30
0.0
  0
POINT
  5
10D
330
104
100
AcDbEntity
  8
Defpoints
 62
     0
100
AcDbPoint
 10
24.66011907281648
 20
10.90389142542694
 30
0.0
  0
POINT
  5
10E
330
104
100
AcDbEntity
  8
Defpoints
 62
     0
100
AcDbPoint
 10
24.66011907281648
 20
12.17433758698914
 30
0.0
  0
ENDBLK
  5
110
330
104
100
AcDbEntity
  8
0
100
AcDbBlockEnd
  0
BLOCK
  5
11A
330
111
100
AcDbEntity
  8
0
100
AcDbBlockBegin
  2
*D9
 70
     1
 10
0.0
 20
0.0
 30
0.0
  3
*D9
  1

  0
LINE
  5
11C
330
111
100
AcDbEntity
  8
Dem
 62
     0
370
    -2
100
AcDbLine
 10
24.5708415326054
 20
8.409617655457195
 30
0.0
 11
24.1658415326054
 21
8.409617655457193
 31
0.0
  0
LINE
  5
11D
330
111
100
AcDbEntity
  8
Dem
 62
     0
370
    -2
100
AcDbLine
 10
24.1658415326054
 20
8.409617655457193
 30
0.0
 11
23.95438158463683
 21
8.093028533718847
 31
0.0
  0
MTEXT
  5
11E
330
111
100
AcDbEntity
  8
Dem
 62
     0
100
AcDbMText
 10
24.93084153260539
 20
8.409617655457184
 30
0.0
 40
0.18
 41
0.0
 71
     5
 72
     1
  1
\A1;\U+22052.5
 73
     1
 44
1.0
  0
SOLID
  5
11F
330
111
100
AcDbEntity
  8
Dem
 62
     0
100
AcDbTrace
 10
23.92943465229504
 20
8.109691383617175
 30
0.0
 11
23.97932851697862
 21
8.076365683820517
 31
0.0
 12
23.85440448524686
 22
7.943346939668117
 32
0.0
 13
23.85440448524686
 23
7.943346939668117
 33
0.0
  0
LINE
  5
120
330
111
100
AcDbEntity
  8
Dem
 62
     0
370
    -2
100
AcDbLine
 10
23.07011907281648
 20
6.903891425426939
 30
0.0
 11
23.25011907281648
 21
6.903891425426939
 31
0.0
  0
LINE
  5
121
330
111
100
AcDbEntity
  8
Dem
 62
     0
370
    -2
100
AcDbLine
 10
23.16011907281648
 20
6.813891425426936
 30
0.0
 11
23.16011907281648
 21
6.993891425426939
 31
0.0
  0
POINT
  5
122
330
111
100
AcDbEntity
  8
Defpoints
 62
     0
100
AcDbPoint
 10
23.85440448524686
 20
7.943346939668117
 30
0.0
  0
POINT
  5
123
330
111
100
AcDbEntity
  8
Defpoints
 62
     0
100
AcDbPoint
 10
22.46583366038611
 20
5.864435911185765
 30
0.0
  0
ENDBLK
  5
11B
330
111
100
AcDbEntity
  8
0
100
AcDbBlockEnd
  0
BLOCK
  5
12F
330
124
100
AcDbEntity
  8
0
100
AcDbBlockBegin
  2
*D10
 70
     1
 10
0.0
 20
0.0
 30
0.0
  3
*D10
  1

  0
LINE
  5
125
330
124
100
AcDbEntity
  8
0
 62
     0
370
    -2
100
AcDbLine
 10
32.16080004301676
 20
3.887172298656764
 30
0.0
 11
32.16080004301676
 21
2.483987889810244
 31
0.0
  0
LINE
  5
126
330
124
100
AcDbEntity
  8
0
 62
     0
370
    -2
100
AcDbLine
 10
34.16080004301676
 20
3.887172298656764
 30
0.0
 11
34.16080004301676
 21
2.483987889810244
 31
0.0
  0
LINE
  5
127
330
124
100
AcDbEntity
  8
0
 62
     0
370
    -2
100
AcDbLine
 10
32.34080004301676
 20
2.663987889810243
 30
0.0
 11
32.68080004301676
 21
2.663987889810243
 31
0.0
  0
LINE
  5
128
330
124
100
AcDbEntity
  8
0
 62
     0
370
    -2
100
AcDbLine
 10
33.98080004301676
 20
2.663987889810243
 30
0.0
 11
33.64080004301676
 21
2.663987889810243
 31
0.0
  0
SOLID
  5
129
330
124
100
AcDbEntity
  8
0
 62
     0
100
AcDbTrace
 10
32.34080004301676
 20
2.693987889810243
 30
0.0
 11
32.34080004301676
 21
2.633987889810244
 31
0.0
 12
32.16080004301676
 22
2.663987889810243
 32
0.0
 13
32.16080004301676
 23
2.663987889810243
 33
0.0
  0
SOLID
  5
12A
330
124
100
AcDbEntity
  8
0
 62
     0
100
AcDbTrace
 10
33.98080004301676
 20
2.693987889810243
 30
0.0
 11
33.98080004301676
 21
2.633987889810244
 31
0.0
 12
34.16080004301676
 22
2.663987889810243
 32
0.0
 13
34.16080004301676
 23
2.663987889810243
 33
0.0
  0
MTEXT
  5
12B
330
124
100
AcDbEntity
  8
0
 62
     0
100
AcDbMText
 10
33.16080004301676
 20
2.663987889810243
 30
0.0
 40
0.18
 41
0.0
 71
     5
 72
     1
  1
\A1;2.0000
 73
     1
 44
1.0
  0
POINT
  5
12C
330
124
100
AcDbEntity
  8
Defpoints
 62
     0
100
AcDbPoint
 10
32.16080004301676
 20
3.949672298656764
 30
0.0
  0
POINT
  5
12D
330
124
100
AcDbEntity
  8
Defpoints
 62
     0
100
AcDbPoint
 10
34.16080004301676
 20
3.949672298656764
 30
0.0
  0
POINT
  5
12E
330
124
100
AcDbEntity
  8
Defpoints
 62
     0
100
AcDbPoint
 10
34.16080004301676
 20
2.663987889810243
 30
0.0
  0
ENDBLK
  5
130
330
124
100
AcDbEntity
  8
0
100
AcDbBlockEnd
  0
BLOCK
  5
13C
330
131
100
AcDbEntity
  8
0
100
AcDbBlockBegin
  2
*D11
 70
     1
 10
0.0
 20
0.0
 30
0.0
  3
*D11
  1

  0
LINE
  5
132
330
131
100
AcDbEntity
  8
0
 62
     0
370
    -2
100
AcDbLine
 10
34.22330004301676
 20
4.949672298656764
 30
0.0
 11
36.25226343535984
 21
4.949672298656764
 31
0.0
  0
LINE
  5
133
330
131
100
AcDbEntity
  8
0
 62
     0
370
    -2
100
AcDbLine
 10
34.22330004301676
 20
3.949672298656764
 30
0.0
 11
36.25226343535984
 21
3.949672298656764
 31
0.0
  0
LINE
  5
134
330
131
100
AcDbEntity
  8
0
 62
     0
370
    -2
100
AcDbLine
 10
36.07226343535984
 20
4.769672298656765
 30
0.0
 11
36.07226343535984
 21
4.629672298656764
 31
0.0
  0
LINE
  5
135
330
131
100
AcDbEntity
  8
0
 62
     0
370
    -2
100
AcDbLine
 10
36.07226343535984
 20
4.129672298656764
 30
0.0
 11
36.07226343535984
 21
4.269672298656765
 31
0.0
  0
SOLID
  5
136
330
131
100
AcDbEntity
  8
0
 62
     0
100
AcDbTrace
 10
36.04226343535984
 20
4.769672298656765
 30
0.0
 11
36.10226343535984
 21
4.769672298656765
 31
0.0
 12
36.07226343535984
 22
4.949672298656764
 32
0.0
 13
36.07226343535984
 23
4.949672298656764
 33
0.0
  0
SOLID
  5
137
330
131
100
AcDbEntity
  8
0
 62
     0
100
AcDbTrace
 10
36.04226343535984
 20
4.129672298656764
 30
0.0
 11
36.10226343535984
 21
4.129672298656764
 31
0.0
 12
36.07226343535984
 22
3.949672298656764
 32
0.0
 13
36.07226343535984
 23
3.949672298656764
 33
0.0
  0
MTEXT
  5
138
330
131
100
AcDbEntity
  8
0
 62
     0
100
AcDbMText
 10
36.07226343535984
 20
4.44967229865677
 30
0.0
 40
0.18
 41
0.0
 71
     5
 72
     1
  1
\A1;1.0000
 73
     1
 44
1.0
  0
POINT
  5
139
330
131
100
AcDbEntity
  8
Defpoints
 62
     0
100
AcDbPoint
 10
34.16080004301676
 20
4.949672298656764
 30
0.0
  0
POINT
  5
13A
330
131
100
AcDbEntity
  8
Defpoints
 62
     0
100
AcDbPoint
 10
34.16080004301676
 20
3.949672298656764
 30
0.0
  0
POINT
  5
13B
330
131
100
AcDbEntity
  8
Defpoints
 62
     0
100
AcDbPoint
 10
36.07226343535984
 20
3.949672298656764
 30
0.0
  0
ENDBLK
  5
13D
330
131
100
AcDbEntity
  8
0
100
AcDbBlockEnd
  0
BLOCK
  5
15D
330
152
100
AcDbEntity
  8
0
100
AcDbBlockBegin
  2
*D13
 70
     1
 10
0.0
 20
0.0
 30
0.0
  3
*D13
  1

  0
LINE
  5
153
330
152
100
AcDbEntity
  8
0
 62
     0
370
    -2
100
AcDbLine
 10
29.32635257114213
 20
4.917920716983694
 30
0.0
 11
29.32635257114213
 21
3.514736308137173
 31
0.0
  0
LINE
  5
154
330
152
100
AcDbEntity
  8
0
 62
     0
370
    -2
100
AcDbLine
 10
31.32635257114213
 20
4.917920716983694
 30
0.0
 11
31.32635257114213
 21
3.514736308137173
 31
0.0
  0
LINE
  5
155
330
152
100
AcDbEntity
  8
0
 62
     0
370
    -2
100
AcDbLine
 10
29.50635257114214
 20
3.694736308137173
 30
0.0
 11
29.84635257114213
 21
3.694736308137173
 31
0.0
  0
LINE
  5
156
330
152
100
AcDbEntity
  8
0
 62
     0
370
    -2
100
AcDbLine
 10
31.14635257114214
 20
3.694736308137173
 30
0.0
 11
30.80635257114213
 21
3.694736308137173
 31
0.0
  0
SOLID
  5
157
330
152
100
AcDbEntity
  8
0
 62
     0
100
AcDbTrace
 10
29.50635257114214
 20
3.724736308137173
 30
0.0
 11
29.50635257114214
 21
3.664736308137173
 31
0.0
 12
29.32635257114213
 22
3.694736308137173
 32
0.0
 13
29.32635257114213
 23
3.694736308137173
 33
0.0
  0
SOLID
  5
158
330
152
100
AcDbEntity
  8
0
 62
     0
100
AcDbTrace
 10
31.14635257114214
 20
3.724736308137173
 30
0.0
 11
31.14635257114214
 21
3.664736308137173
 31
0.0
 12
31.32635257114213
 22
3.694736308137173
 32
0.0
 13
31.32635257114213
 23
3.694736308137173
 33
0.0
  0
MTEXT
  5
159
330
152
100
AcDbEntity
  8
0
 62
     0
100
AcDbMText
 10
30.32635257114213
 20
3.694736308137173
 30
0.0
 40
0.18
 41
0.0
 71
     5
 72
     1
  1
\A1;2.0000
 73
     1
 44
1.0
  0
POINT
  5
15A
330
152
100
AcDbEntity
  8
Defpoints
 62
     0
100
AcDbPoint
 10
29.32635257114213
 20
4.980420716983694
 30
0.0
  0
POINT
  5
15B
330
152
100
AcDbEntity
  8
Defpoints
 62
     0
100
AcDbPoint
 10
31.32635257114213
 20
4.980420716983694
 30
0.0
  0
POINT
  5
15C
330
152
100
AcDbEntity
  8
Defpoints
 62
     0
100
AcDbPoint
 10
31.32635257114213
 20
3.694736308137173
 30
0.0
  0
ENDBLK
  5
15E
330
152
100
AcDbEntity
  8
0
100
AcDbBlockEnd
  0
BLOCK
  5
16A
330
15F
100
AcDbEntity
  8
0
100
AcDbBlockBegin
  2
*D14
 70
     1
 10
0.0
 20
0.0
 30
0.0
  3
*D14
  1

  0
LINE
  5
160
330
15F
100
AcDbEntity
  8
0
 62
     0
370
    -2
100
AcDbLine
 10
31.38885257114214
 20
5.980420716983694
 30
0.0
 11
33.41781596348521
 21
5.980420716983694
 31
0.0
  0
LINE
  5
161
330
15F
100
AcDbEntity
  8
0
 62
     0
370
    -2
100
AcDbLine
 10
31.38885257114214
 20
4.980420716983694
 30
0.0
 11
33.41781596348521
 21
4.980420716983694
 31
0.0
  0
LINE
  5
162
330
15F
100
AcDbEntity
  8
0
 62
     0
370
    -2
100
AcDbLine
 10
33.23781596348521
 20
5.800420716983694
 30
0.0
 11
33.23781596348521
 21
5.660420716983693
 31
0.0
  0
LINE
  5
163
330
15F
100
AcDbEntity
  8
0
 62
     0
370
    -2
100
AcDbLine
 10
33.23781596348521
 20
5.160420716983693
 30
0.0
 11
33.23781596348521
 21
5.300420716983694
 31
0.0
  0
SOLID
  5
164
330
15F
100
AcDbEntity
  8
0
 62
     0
100
AcDbTrace
 10
33.20781596348521
 20
5.800420716983694
 30
0.0
 11
33.26781596348522
 21
5.800420716983694
 31
0.0
 12
33.23781596348521
 22
5.980420716983694
 32
0.0
 13
33.23781596348521
 23
5.980420716983694
 33
0.0
  0
SOLID
  5
165
330
15F
100
AcDbEntity
  8
0
 62
     0
100
AcDbTrace
 10
33.20781596348521
 20
5.160420716983693
 30
0.0
 11
33.26781596348522
 21
5.160420716983693
 31
0.0
 12
33.23781596348521
 22
4.980420716983694
 32
0.0
 13
33.23781596348521
 23
4.980420716983694
 33
0.0
  0
MTEXT
  5
166
330
15F
100
AcDbEntity
  8
0
 62
     0
100
AcDbMText
 10
33.23781596348521
 20
5.480420716983699
 30
0.0
 40
0.18
 41
0.0
 71
     5
 72
     1
  1
\A1;1.0000
 73
     1
 44
1.0
  0
POINT
  5
167
330
15F
100
AcDbEntity
  8
Defpoints
 62
     0
100
AcDbPoint
 10
31.32635257114213
 20
5.980420716983694
 30
0.0
  0
POINT
  5
168
330
15F
100
AcDbEntity
  8
Defpoints
 62
     0
100
AcDbPoint
 10
31.32635257114213
 20
4.980420716983694
 30
0.0
  0
POINT
  5
169
330
15F
100
AcDbEntity
  8
Defpoints
 62
     0
100
AcDbPoint
 10
33.23781596348521
 20
4.980420716983694
 30
0.0
  0
ENDBLK
  5
16B
330
15F
100
AcDbEntity
  8
0
100
AcDbBlockEnd
  0
ENDSEC
  0
SECTION
  2
ENTITIES
  0
CIRCLE
  5
CB
330
1F
100
AcDbEntity
  8
Dem
100
AcDbCircle
 10
20.66011907281648
 20
10.90389142542694
 30
0.0
 40
0.125
  0
CIRCLE
  5
CC
330
1F
100
AcDbEntity
  8
Dem
100
AcDbCircle
 10
21.66011907281648
 20
10.90389142542694
 30
0.0
 40
0.125
  0
CIRCLE
  5
CD
330
1F
100
AcDbEntity
  8
Dem
100
AcDbCircle
 10
22.66011907281648
 20
10.90389142542694
 30
0.0
 40
0.125
  0
CIRCLE
  5
CE
330
1F
100
AcDbEntity
  8
Dem
100
AcDbCircle
 10
23.66011907281648
 20
10.90389142542694
 30
0.0
 40
0.125
  0
CIRCLE
  5
CF
330
1F
100
AcDbEntity
  8
Dem
100
AcDbCircle
 10
24.66011907281648
 20
10.90389142542694
 30
0.0
 40
0.125
  0
CIRCLE
  5
D0
330
1F
100
AcDbEntity
  8
Dem
100
AcDbCircle
 10
25.66011907281648
 20
10.90389142542694
 30
0.0
 40
0.125
  0
LWPOLYLINE
  5
D4
330
1F
100
AcDbEntity
  8
Dem
100
AcDbPolyline
 90
        4
 70
     1
 43
0.0
 10
20.16011907281648
 20
11.40389142542694
 10
26.16011907281648
 20
11.40389142542694
 10
26.16011907281648
 20
5.403891425426941
 10
20.16011907281648
 20
5.403891425426941
  0
CIRCLE
  5
D5
330
1F
100
AcDbEntity
  8
Dem
100
AcDbCircle
 10
20.66011907281648
 20
9.903891425426941
 30
0.0
 40
0.125
  0
CIRCLE
  5
D6
330
1F
100
AcDbEntity
  8
Dem
100
AcDbCircle
 10
21.66011907281648
 20
10.90389142542694
 30
0.0
 40
0.125
  0
CIRCLE
  5
D7
330
1F
100
AcDbEntity
  8
Dem
100
AcDbCircle
 10
21.66011907281648
 20
9.903891425426941
 30
0.0
 40
0.125
  0
CIRCLE
  5
D8
330
1F
100
AcDbEntity
  8
Dem
100
AcDbCircle
 10
22.66011907281648
 20
10.90389142542694
 30
0.0
 40
0.125
  0
CIRCLE
  5
D9
330
1F
100
AcDbEntity
  8
Dem
100
AcDbCircle
 10
22.66011907281648
 20
9.903891425426941
 30
0.0
 40
0.125
  0
CIRCLE
  5
DA
330
1F
100
AcDbEntity
  8
Dem
100
AcDbCircle
 10
23.66011907281648
 20
10.90389142542694
 30
0.0
 40
0.125
  0
CIRCLE
  5
DB
330
1F
100
AcDbEntity
  8
Dem
100
AcDbCircle
 10
23.66011907281648
 20
9.903891425426941
 30
0.0
 40
0.125
  0
CIRCLE
  5
DC
330
1F
100
AcDbEntity
  8
Dem
100
AcDbCircle
 10
24.66011907281648
 20
10.90389142542694
 30
0.0
 40
0.125
  0
CIRCLE
  5
DD
330
1F
100
AcDbEntity
  8
Dem
100
AcDbCircle
 10
24.66011907281648
 20
9.903891425426941
 30
0.0
 40
0.125
  0
CIRCLE
  5
DE
330
1F
100
AcDbEntity
  8
Dem
100
AcDbCircle
 10
25.66011907281648
 20
10.90389142542694
 30
0.0
 40
0.125
  0
CIRCLE
  5
DF
330
1F
100
AcDbEntity
  8
Dem
100
AcDbCircle
 10
25.66011907281648
 20
9.903891425426941
 30
0.0
 40
0.125
  0
CIRCLE
  5
E6
330
1F
100
AcDbEntity
  8
Dem
100
AcDbCircle
 10
23.16011907281648
 20
6.903891425426941
 30
0.0
 40
1.25
  0
LWPOLYLINE
  5
14A
102
{ACAD_REACTORS
330
14D
330
150
102
}
330
1F
100
AcDbEntity
  8
0
100
AcDbPolyline
 90
        4
 70
     1
 43
0.0
 10
29.32635257114213
 20
4.980420716983694
 10
31.32635257114213
 20
4.980420716983694
 10
31.32635257114213
 20
5.980420716983694
 10
29.32635257114213
 20
5.980420716983694
  0
DIMENSION
  5
14B
102
{ACAD_XDICTIONARY
360
14C
102
}
102
{ACAD_REACTORS
330
14D
102
}
330
1F
100
AcDbEntity
  8
0
100
AcDbDimension
  2
*D13
 10
31.32635257114213
 20
3.694736308137173
 30
0.0
 11
30.32635257114213
 21
3.694736308137173
 31
0.0
 70
    32
 71
     5
 42
2.0
  3
Standard
100
AcDbAlignedDimension
 13
29.32635257114213
 23
4.980420716983694
 33
0.0
 14
31.32635257114213
 24
4.980420716983694
 34
0.0
100
AcDbRotatedDimension
  0
DIMENSION
  5
14E
102
{ACAD_XDICTIONARY
360
14F
102
}
102
{ACAD_REACTORS
330
150
102
}
330
1F
100
AcDbEntity
  8
0
100
AcDbDimension
  2
*D14
 10
33.23781596348521
 20
4.980420716983694
 30
0.0
 11
33.23781596348521
 21
5.480420716983699
 31
0.0
 70
    32
 71
     5
  3
Standard
100
AcDbAlignedDimension
 13
31.32635257114213
 23
5.980420716983694
 33
0.0
 14
31.32635257114213
 24
4.980420716983694
 34
0.0
 50
90.0
100
AcDbRotatedDimension
  0
MTEXT
  5
151
330
1F
100
AcDbEntity
  8
0
100
AcDbMText
 10
29.27749520816798
 20
7.243561287071976
 30
0.0
 40
0.2
 41
3.269
 71
     1
 72
     5
  1
\A1;{\H0.7x;\S1/4;}" thick steel\P12) {\H0.7x;\S1/4;}" holes and \P1) 2.5" hole
 73
     1
 44
1.0
  0
ENDSEC
  0
SECTION
  2
OBJECTS
  0
DICTIONARY
  5
C
330
0
100
AcDbDictionary
281
     1
  3
ACAD_GROUP
350
D
  3
ACAD_LAYOUT
350
1A
  3
ACAD_MLINESTYLE
350
17
  3
ACAD_PLOTSETTINGS
350
19
  3
ACAD_PLOTSTYLENAME
350
E
  3
AcDbVariableDictionary
350
66
  0
DICTIONARY
  5
14C
330
14B
100
AcDbDictionary
280
     1
281
     1
  3
ACAD_DIMASSOC
360
14D
  0
DICTIONARY
  5
14F
330
14E
100
AcDbDictionary
280
     1
281
     1
  3
ACAD_DIMASSOC
360
150
  0
DICTIONARY
  5
D
102
{ACAD_REACTORS
330
C
102
}
330
C
100
AcDbDictionary
281
     1
  0
DICTIONARY
  5
1A
102
{ACAD_REACTORS
330
C
102
}
330
C
100
AcDbDictionary
281
     1
  3
Layout1
350
59
  3
Layout2
350
5E
  3
Model
350
22
  0
DICTIONARY
  5
17
102
{ACAD_REACTORS
330
C
102
}
330
C
100
AcDbDictionary
281
     1
  3
Standard
350
18
  0
DICTIONARY
  5
19
102
{ACAD_REACTORS
330
C
102
}
330
C
100
AcDbDictionary
281
     1
  0
ACDBDICTIONARYWDFLT
  5
E
102
{ACAD_REACTORS
330
C
102
}
330
C
100
AcDbDictionary
281
     1
  3
Normal
350
F
100
AcDbDictionaryWithDefault
340
F
  0
DICTIONARY
  5
66
102
{ACAD_REACTORS
330
C
102
}
330
C
100
AcDbDictionary
281
     1
  3
DIMASSOC
350
67
  3
HIDETEXT
350
6B
  0
DIMASSOC
  5
14D
102
{ACAD_REACTORS
330
14C
102
}
330
14C
100
AcDbDimAssoc
330
14B
 90
        3
 70
     0
 71
     0
  1
AcDbOsnapPointRef
 72
    13
331
14A
 73
     2
 91
        1
 40
0.0
 10
29.32635257114213
 20
4.980420716983694
 30
0.0
 75
     0
  1
AcDbOsnapPointRef
 72
     1
331
14A
 73
     2
 91
        1
 40
1.0
 10
31.32635257114213
 20
4.980420716983694
 30
0.0
 75
     0
  0
DIMASSOC
  5
150
102
{ACAD_REACTORS
330
14F
102
}
330
14F
100
AcDbDimAssoc
330
14E
 90
        3
 70
     0
 71
     0
  1
AcDbOsnapPointRef
 72
     1
331
14A
 73
     2
 91
        2
 40
1.0
 10
31.32635257114213
 20
5.980420716983694
 30
0.0
 75
     0
  1
AcDbOsnapPointRef
 72
     1
331
14A
 73
     2
 91
        1
 40
1.0
 10
31.32635257114213
 20
4.980420716983694
 30
0.0
 75
     0
  0
LAYOUT
  5
59
102
{ACAD_REACTORS
330
1A
102
}
330
1A
100
AcDbPlotSettings
  1

  2
None
  4

  6

 40
0.0
 41
0.0
 42
0.0
 43
0.0
 44
0.0
 45
0.0
 46
0.0
 47
0.0
 48
0.0
 49
0.0
140
0.0
141
0.0
142
1.0
143
1.0
 70
   688
 72
     0
 73
     0
 74
     5
  7

 75
    16
147
1.0
148
0.0
149
0.0
100
AcDbLayout
  1
Layout1
 70
     1
 71
     1
 10
0.0
 20
0.0
 11
12.0
 21
9.0
 12
0.0
 22
0.0
 32
0.0
 14
0.0
 24
0.0
 34
0.0
 15
0.0
 25
0.0
 35
0.0
146
0.0
 13
0.0
 23
0.0
 33
0.0
 16
1.0
 26
0.0
 36
0.0
 17
0.0
 27
1.0
 37
0.0
 76
     0
330
58
  0
LAYOUT
  5
5E
102
{ACAD_REACTORS
330
1A
102
}
330
1A
100
AcDbPlotSettings
  1

  2
None
  4

  6

 40
0.0
 41
0.0
 42
0.0
 43
0.0
 44
0.0
 45
0.0
 46
0.0
 47
0.0
 48
0.0
 49
0.0
140
0.0
141
0.0
142
1.0
143
1.0
 70
   688
 72
     0
 73
     0
 74
     5
  7

 75
    16
147
1.0
148
0.0
149
0.0
100
AcDbLayout
  1
Layout2
 70
     1
 71
     2
 10
0.0
 20
0.0
 11
12.0
 21
9.0
 12
0.0
 22
0.0
 32
0.0
 14
0.0
 24
0.0
 34
0.0
 15
0.0
 25
0.0
 35
0.0
146
0.0
 13
0.0
 23
0.0
 33
0.0
 16
1.0
 26
0.0
 36
0.0
 17
0.0
 27
1.0
 37
0.0
 76
     0
330
5D
  0
LAYOUT
  5
22
102
{ACAD_REACTORS
330
1A
102
}
330
1A
100
AcDbPlotSettings
  1

  2
none_device
  4
ANSI_A_(8.50_x_11.00_Inches)
  6

 40
6.349999904632568
 41
19.04999923706054
 42
6.350006103515625
 43
19.04998779296875
 44
215.8999938964843
 45
279.3999938964843
 46
0.0
 47
0.0
 48
0.0
 49
0.0
140
0.0
141
0.0
142
1.0
143
2.584895464708373
 70
 11952
 72
     0
 73
     1
 74
     0
  7

 75
     0
147
0.3868628397755418
148
0.0
149
0.0
100
AcDbLayout
  1
Model
 70
     1
 71
     0
 10
0.0
 20
0.0
 11
12.0
 21
9.0
 12
0.0
 22
0.0
 32
0.0
 14
0.0
 24
0.0
 34
0.0
 15
0.0
 25
0.0
 35
0.0
146
0.0
 13
0.0
 23
0.0
 33
0.0
 16
1.0
 26
0.0
 36
0.0
 17
0.0
 27
1.0
 37
0.0
 76
     0
330
1F
  0
MLINESTYLE
  5
18
102
{ACAD_REACTORS
330
17
102
}
330
17
100
AcDbMlineStyle
  2
STANDARD
 70
     0
  3

 62
   256
 51
90.0
 52
90.0
 71
     2
 49
0.5
 62
   256
  6
BYLAYER
 49
-0.5
 62
   256
  6
BYLAYER
  0
ACDBPLACEHOLDER
  5
F
102
{ACAD_REACTORS
330
E
102
}
330
E
  0
DICTIONARYVAR
  5
67
102
{ACAD_REACTORS
330
66
102
}
330
66
100
DictionaryVariables
280
     0
  1
2
  0
DICTIONARYVAR
  5
6B
102
{ACAD_REACTORS
330
66
102
}
330
66
100
DictionaryVariables
280
     0
  1
1
  0
ENDSEC
  0
EOF
