  0
SECTION
  2
HEADER
  9
$ACADVER
  1
AC1015
  9
$ACADMAINTVER
 70
    13
  9
$DWGCODEPAGE
  3
ANSI_1252
  9
$INSBASE
 10
0.0
 20
0.0
 30
0.0
  9
$EXTMIN
 10
-4.766007527502814
 20
-9.105153927768554
 30
0.0
  9
$EXTMAX
 10
38.85339667927823
 20
21.3622901144187
 30
0.0
  9
$LIMMIN
 10
0.0
 20
0.0
  9
$LIMMAX
 10
12.0
 20
9.0
  9
$ORTHOMODE
 70
     0
  9
$REGENMODE
 70
     1
  9
$FILLMODE
 70
     1
  9
$QTEXTMODE
 70
     0
  9
$MIRRTEXT
 70
     1
  9
$LTSCALE
 40
1.0
  9
$ATTMODE
 70
     1
  9
$TEXTSIZE
 40
0.2
  9
$TRACEWID
 40
0.05
  9
$TEXTSTYLE
  7
Standard
  9
$CLAYER
  8
Dem
  9
$CELTYPE
  6
ByLayer
  9
$CECOLOR
 62
   256
  9
$CELTSCALE
 40
1.0
  9
$DISPSILH
 70
     0
  9
$DIMSCALE
 40
1.0
  9
$DIMASZ
 40
0.18
  9
$DIMEXO
 40
0.0625
  9
$DIMDLI
 40
0.38
  9
$DIMRND
 40
0.0
  9
$DIMDLE
 40
0.0
  9
$DIMEXE
 40
0.18
  9
$DIMTP
 40
0.0
  9
$DIMTM
 40
0.0
  9
$DIMTXT
 40
0.18
  9
$DIMCEN
 40
0.09
  9
$DIMTSZ
 40
0.0
  9
$DIMTOL
 70
     0
  9
$DIMLIM
 70
     0
  9
$DIMTIH
 70
     1
  9
$DIMTOH
 70
     1
  9
$DIMSE1
 70
     0
  9
$DIMSE2
 70
     0
  9
$DIMTAD
 70
     0
  9
$DIMZIN
 70
     0
  9
$DIMBLK
  1

  9
$DIMASO
 70
     1
  9
$DIMSHO
 70
     1
  9
$DIMPOST
  1

  9
$DIMAPOST
  1

  9
$DIMALT
 70
     0
  9
$DIMALTD
 70
     2
  9
$DIMALTF
 40
25.4
  9
$DIMLFAC
 40
1.0
  9
$DIMTOFL
 70
     0
  9
$DIMTVP
 40
0.0
  9
$DIMTIX
 70
     0
  9
$DIMSOXD
 70
     0
  9
$DIMSAH
 70
     0
  9
$DIMBLK1
  1

  9
$DIMBLK2
  1

  9
$DIMSTYLE
  2
Standard
  9
$DIMCLRD
 70
     0
  9
$DIMCLRE
 70
     0
  9
$DIMCLRT
 70
     0
  9
$DIMTFAC
 40
1.0
  9
$DIMGAP
 40
0.09
  9
$DIMJUST
 70
     0
  9
$DIMSD1
 70
     0
  9
$DIMSD2
 70
     0
  9
$DIMTOLJ
 70
     1
  9
$DIMTZIN
 70
     0
  9
$DIMALTZ
 70
     0
  9
$DIMALTTZ
 70
     0
  9
$DIMUPT
 70
     0
  9
$DIMDEC
 70
     4
  9
$DIMTDEC
 70
     4
  9
$DIMALTU
 70
     2
  9
$DIMALTTD
 70
     2
  9
$DIMTXSTY
  7
Standard
  9
$DIMAUNIT
 70
     0
  9
$DIMADEC
 70
     0
  9
$DIMALTRND
 40
0.0
  9
$DIMAZIN
 70
     0
  9
$DIMDSEP
 70
    46
  9
$DIMATFIT
 70
     3
  9
$DIMFRAC
 70
     0
  9
$DIMLDRBLK
  1

  9
$DIMLUNIT
 70
     2
  9
$DIMLWD
 70
    -2
  9
$DIMLWE
 70
    -2
  9
$DIMTMOVE
 70
     0
  9
$LUNITS
 70
     2
  9
$LUPREC
 70
     4
  9
$SKETCHINC
 40
0.1
  9
$FILLETRAD
 40
0.1
  9
$AUNITS
 70
     0
  9
$AUPREC
 70
     0
  9
$MENU
  1
.
  9
$ELEVATION
 40
0.0
  9
$PELEVATION
 40
0.0
  9
$THICKNESS
 40
0.0
  9
$LIMCHECK
 70
     0
  9
$CHAMFERA
 40
0.5
  9
$CHAMFERB
 40
0.5
  9
$CHAMFERC
 40
1.0
  9
$CHAMFERD
 40
0.0
  9
$SKPOLY
 70
     0
  9
$TDCREATE
 40
2458893.604061551
  9
$TDUCREATE
 40
2458893.937394884
  9
$TDUPDATE
 40
2459578.540235439
  9
$TDUUPDATE
 40
2459578.873568773
  9
$TDINDWG
 40
1.1228135185
  9
$TDUSRTIMER
 40
1.1228135185
  9
$USRTIMER
 70
     1
  9
$ANGBASE
 50
0.0
  9
$ANGDIR
 70
     0
  9
$PDMODE
 70
     0
  9
$PDSIZE
 40
0.0
  9
$PLINEWID
 40
0.0
  9
$SPLFRAME
 70
     0
  9
$SPLINETYPE
 70
     6
  9
$SPLINESEGS
 70
     8
  9
$HANDSEED
  5
AAC
  9
$SURFTAB1
 70
     6
  9
$SURFTAB2
 70
     6
  9
$SURFTYPE
 70
     6
  9
$SURFU
 70
     6
  9
$SURFV
 70
     6
  9
$UCSBASE
  2

  9
$UCSNAME
  2

  9
$UCSORG
 10
0.0
 20
0.0
 30
0.0
  9
$UCSXDIR
 10
1.0
 20
0.0
 30
0.0
  9
$UCSYDIR
 10
0.0
 20
1.0
 30
0.0
  9
$UCSORTHOREF
  2

  9
$UCSORTHOVIEW
 70
     0
  9
$UCSORGTOP
 10
0.0
 20
0.0
 30
0.0
  9
$UCSORGBOTTOM
 10
0.0
 20
0.0
 30
0.0
  9
$UCSORGLEFT
 10
0.0
 20
0.0
 30
0.0
  9
$UCSORGRIGHT
 10
0.0
 20
0.0
 30
0.0
  9
$UCSORGFRONT
 10
0.0
 20
0.0
 30
0.0
  9
$UCSORGBACK
 10
0.0
 20
0.0
 30
0.0
  9
$PUCSBASE
  2

  9
$PUCSNAME
  2

  9
$PUCSORG
 10
0.0
 20
0.0
 30
0.0
  9
$PUCSXDIR
 10
1.0
 20
0.0
 30
0.0
  9
$PUCSYDIR
 10
0.0
 20
1.0
 30
0.0
  9
$PUCSORTHOREF
  2

  9
$PUCSORTHOVIEW
 70
     0
  9
$PUCSORGTOP
 10
0.0
 20
0.0
 30
0.0
  9
$PUCSORGBOTTOM
 10
0.0
 20
0.0
 30
0.0
  9
$PUCSORGLEFT
 10
0.0
 20
0.0
 30
0.0
  9
$PUCSORGRIGHT
 10
0.0
 20
0.0
 30
0.0
  9
$PUCSORGFRONT
 10
0.0
 20
0.0
 30
0.0
  9
$PUCSORGBACK
 10
0.0
 20
0.0
 30
0.0
  9
$USERI1
 70
     0
  9
$USERI2
 70
     0
  9
$USERI3
 70
     0
  9
$USERI4
 70
     0
  9
$USERI5
 70
     0
  9
$USERR1
 40
0.0
  9
$USERR2
 40
0.0
  9
$USERR3
 40
0.0
  9
$USERR4
 40
0.0
  9
$USERR5
 40
0.0
  9
$WORLDVIEW
 70
     1
  9
$SHADEDGE
 70
     3
  9
$SHADEDIF
 70
    70
  9
$TILEMODE
 70
     1
  9
$MAXACTVP
 70
    64
  9
$PINSBASE
 10
0.0
 20
0.0
 30
0.0
  9
$PLIMCHECK
 70
     0
  9
$PEXTMIN
 10
0.0
 20
0.0
 30
0.0
  9
$PEXTMAX
 10
0.0
 20
0.0
 30
0.0
  9
$PLIMMIN
 10
0.0
 20
0.0
  9
$PLIMMAX
 10
12.0
 20
9.0
  9
$UNITMODE
 70
     0
  9
$VISRETAIN
 70
     1
  9
$PLINEGEN
 70
     0
  9
$PSLTSCALE
 70
     1
  9
$TREEDEPTH
 70
  3020
  9
$CMLSTYLE
  2
Standard
  9
$CMLJUST
 70
     0
  9
$CMLSCALE
 40
1.0
  9
$PROXYGRAPHICS
 70
     1
  9
$MEASUREMENT
 70
     0
  9
$CELWEIGHT
370
    -1
  9
$ENDCAPS
280
     0
  9
$JOINSTYLE
280
     0
  9
$LWDISPLAY
290
     0
  9
$INSUNITS
 70
     1
  9
$HYPERLINKBASE
  1

  9
$STYLESHEET
  1

  9
$XEDIT
290
     1
  9
$CEPSNTYPE
380
     0
  9
$PSTYLEMODE
290
     1
  9
$FINGERPRINTGUID
  2
{FDEAD576-A652-11D2-9A35-0060089B3A3F}
  9
$VERSIONGUID
  2
{23F4640A-350B-47B1-A095-2921BB7010C0}
  9
$EXTNAMES
290
     1
  9
$PSVPSCALE
 40
0.0
  9
$OLESTARTUP
290
     0
  0
ENDSEC
  0
SECTION
  2
CLASSES
  0
CLASS
  1
ACDBDICTIONARYWDFLT
  2
AcDbDictionaryWithDefault
  3
AutoCAD 2000
 90
        0
280
     0
281
     0
  0
CLASS
  1
ACDBPLACEHOLDER
  2
AcDbPlaceHolder
  3
AutoCAD 2000
 90
        0
280
     0
281
     0
  0
CLASS
  1
LAYOUT
  2
AcDbLayout
  3
AutoCAD 2000
 90
        0
280
     0
281
     0
  0
CLASS
  1
DICTIONARYVAR
  2
AcDbDictionaryVar
  3
AutoCAD 2000
 90
        0
280
     0
281
     0
  0
CLASS
  1
DIMASSOC
  2
AcDbDimAssoc
  3
"AcDbDimAssoc|Product Desc:     AcDim ARX App For Dimension|Company:          Autodesk, Inc.|WEB Address:      www.autodesk.com"
 90
        0
280
     0
281
     0
  0
CLASS
  1
SORTENTSTABLE
  2
AcDbSortentsTable
  3
AutoCAD 2000
 90
        0
280
     0
281
     0
  0
ENDSEC
  0
SECTION
  2
TABLES
  0
TABLE
  2
VPORT
  5
8
330
0
100
AcDbSymbolTable
 70
     2
  0
VPORT
  5
AAB
330
8
100
AcDbSymbolTableRecord
100
AcDbViewportTableRecord
  2
*Active
 70
     0
 10
0.0
 20
0.0
 11
1.0
 21
1.0
 12
4.656609073074754
 22
15.48827460616581
 13
0.0
 23
0.0
 14
0.5
 24
0.5
 15
0.5
 25
0.5
 16
0.0
 26
0.0
 36
1.0
 17
0.0
 27
0.0
 37
0.0
 40
13.20380201770559
 41
1.800687285223367
 42
50.0
 43
0.0
 44
0.0
 50
0.0
 51
0.0
 71
     0
 72
   100
 73
     1
 74
     3
 75
     0
 76
     0
 77
     0
 78
     0
281
     0
 65
     1
110
0.0
120
0.0
130
0.0
111
1.0
121
0.0
131
0.0
112
0.0
122
1.0
132
0.0
 79
     0
146
0.0
  0
ENDTAB
  0
TABLE
  2
LTYPE
  5
5
330
0
100
AcDbSymbolTable
 70
     3
  0
LTYPE
  5
14
330
5
100
AcDbSymbolTableRecord
100
AcDbLinetypeTableRecord
  2
ByBlock
 70
     0
  3

 72
    65
 73
     0
 40
0.0
  0
LTYPE
  5
15
330
5
100
AcDbSymbolTableRecord
100
AcDbLinetypeTableRecord
  2
ByLayer
 70
     0
  3

 72
    65
 73
     0
 40
0.0
  0
LTYPE
  5
16
330
5
100
AcDbSymbolTableRecord
100
AcDbLinetypeTableRecord
  2
Continuous
 70
     0
  3
Solid line
 72
    65
 73
     0
 40
0.0
  0
LTYPE
  5
8D
330
5
100
AcDbSymbolTableRecord
100
AcDbLinetypeTableRecord
  2
CENTER
 70
     0
  3
Center ____ _ ____ _ ____ _ ____ _ ____ _ ____
 72
    65
 73
     4
 40
2.0
 49
1.25
 74
     0
 49
-0.25
 74
     0
 49
0.25
 74
     0
 49
-0.25
 74
     0
  0
LTYPE
  5
8E
330
5
100
AcDbSymbolTableRecord
100
AcDbLinetypeTableRecord
  2
DASHED2
 70
     0
  3
Dashed (.5x) _ _ _ _ _ _ _ _ _ _ _ _ _ _ _ _ _
 72
    65
 73
     2
 40
0.375
 49
0.25
 74
     0
 49
-0.125
 74
     0
  0
ENDTAB
  0
TABLE
  2
LAYER
  5
2
330
0
100
AcDbSymbolTable
 70
     3
  0
LAYER
  5
10
330
2
100
AcDbSymbolTableRecord
100
AcDbLayerTableRecord
  2
0
 70
     0
 62
     7
  6
Continuous
370
    -3
390
F
  0
LAYER
  5
D8
330
2
100
AcDbSymbolTableRecord
100
AcDbLayerTableRecord
  2
Defpoints
 70
     0
 62
     7
  6
Continuous
290
     0
370
    -3
390
F
  0
LAYER
  5
484
330
2
100
AcDbSymbolTableRecord
100
AcDbLayerTableRecord
  2
Dem
 70
     0
 62
     7
  6
Continuous
370
    -3
390
F
  0
ENDTAB
  0
TABLE
  2
STYLE
  5
3
330
0
100
AcDbSymbolTable
 70
     1
  0
STYLE
  5
11
330
3
100
AcDbSymbolTableRecord
100
AcDbTextStyleTableRecord
  2
Standard
 70
     0
 40
0.0
 41
1.0
 50
0.0
 71
     0
 42
0.2
  3
txt
  4

  0
ENDTAB
  0
TABLE
  2
VIEW
  5
6
330
0
100
AcDbSymbolTable
 70
     0
  0
ENDTAB
  0
TABLE
  2
UCS
  5
7
330
0
100
AcDbSymbolTable
 70
     0
  0
ENDTAB
  0
TABLE
  2
APPID
  5
9
330
0
100
AcDbSymbolTable
 70
     1
  0
APPID
  5
12
330
9
100
AcDbSymbolTableRecord
100
AcDbRegAppTableRecord
  2
ACAD
 70
     0
  0
ENDTAB
  0
TABLE
  2
DIMSTYLE
  5
A
330
0
100
AcDbSymbolTable
 70
     1
100
AcDbDimStyleTable
 71
     1
340
27
  0
DIMSTYLE
105
27
102
{ACAD_REACTORS
330
485
330
4E8
330
511
330
598
330
5BC
330
5E0
330
61E
330
6F3
330
717
330
73B
330
7DA
330
7FF
330
874
330
896
330
92B
330
92C
330
92F
330
997
330
9B1
330
9E7
330
A01
330
A49
330
A86
102
}
330
A
100
AcDbSymbolTableRecord
100
AcDbDimStyleTableRecord
  2
Standard
 70
     0
340
11
  0
ENDTAB
  0
TABLE
  2
BLOCK_RECORD
  5
1
330
0
100
AcDbSymbolTable
 70
    25
  0
BLOCK_RECORD
  5
1F
102
{ACAD_XDICTIONARY
360
42E
102
}
330
1
100
AcDbSymbolTableRecord
100
AcDbBlockTableRecord
  2
*Model_Space
340
22
  0
BLOCK_RECORD
  5
58
330
1
100
AcDbSymbolTableRecord
100
AcDbBlockTableRecord
  2
*Paper_Space
340
59
  0
BLOCK_RECORD
  5
5D
330
1
100
AcDbSymbolTableRecord
100
AcDbBlockTableRecord
  2
*Paper_Space0
340
5E
  0
BLOCK_RECORD
  5
486
330
1
100
AcDbSymbolTableRecord
100
AcDbBlockTableRecord
  2
*D1
340
0
  0
BLOCK_RECORD
  5
4E9
330
1
100
AcDbSymbolTableRecord
100
AcDbBlockTableRecord
  2
*D2
340
0
  0
BLOCK_RECORD
  5
512
330
1
100
AcDbSymbolTableRecord
100
AcDbBlockTableRecord
  2
*D3
340
0
  0
BLOCK_RECORD
  5
599
330
1
100
AcDbSymbolTableRecord
100
AcDbBlockTableRecord
  2
*D4
340
0
  0
BLOCK_RECORD
  5
5BD
330
1
100
AcDbSymbolTableRecord
100
AcDbBlockTableRecord
  2
*D5
340
0
  0
BLOCK_RECORD
  5
5E1
330
1
100
AcDbSymbolTableRecord
100
AcDbBlockTableRecord
  2
*D6
340
0
  0
BLOCK_RECORD
  5
61F
330
1
100
AcDbSymbolTableRecord
100
AcDbBlockTableRecord
  2
*D7
340
0
  0
BLOCK_RECORD
  5
6F4
330
1
100
AcDbSymbolTableRecord
100
AcDbBlockTableRecord
  2
*D8
340
0
  0
BLOCK_RECORD
  5
718
330
1
100
AcDbSymbolTableRecord
100
AcDbBlockTableRecord
  2
*D9
340
0
  0
BLOCK_RECORD
  5
73C
330
1
100
AcDbSymbolTableRecord
100
AcDbBlockTableRecord
  2
*D10
340
0
  0
BLOCK_RECORD
  5
7DB
330
1
100
AcDbSymbolTableRecord
100
AcDbBlockTableRecord
  2
*D11
340
0
  0
BLOCK_RECORD
  5
800
330
1
100
AcDbSymbolTableRecord
100
AcDbBlockTableRecord
  2
*D12
340
0
  0
BLOCK_RECORD
  5
875
330
1
100
AcDbSymbolTableRecord
100
AcDbBlockTableRecord
  2
*D13
340
0
  0
BLOCK_RECORD
  5
897
330
1
100
AcDbSymbolTableRecord
100
AcDbBlockTableRecord
  2
*D14
340
0
  0
BLOCK_RECORD
  5
943
330
1
100
AcDbSymbolTableRecord
100
AcDbBlockTableRecord
  2
*D15
340
0
  0
BLOCK_RECORD
  5
967
330
1
100
AcDbSymbolTableRecord
100
AcDbBlockTableRecord
  2
*D16
340
0
  0
BLOCK_RECORD
  5
974
330
1
100
AcDbSymbolTableRecord
100
AcDbBlockTableRecord
  2
*D17
340
0
  0
BLOCK_RECORD
  5
998
330
1
100
AcDbSymbolTableRecord
100
AcDbBlockTableRecord
  2
*D19
340
0
  0
BLOCK_RECORD
  5
9B2
330
1
100
AcDbSymbolTableRecord
100
AcDbBlockTableRecord
  2
*D20
340
0
  0
BLOCK_RECORD
  5
9E8
330
1
100
AcDbSymbolTableRecord
100
AcDbBlockTableRecord
  2
*D21
340
0
  0
BLOCK_RECORD
  5
A02
330
1
100
AcDbSymbolTableRecord
100
AcDbBlockTableRecord
  2
*D22
340
0
  0
BLOCK_RECORD
  5
A4A
330
1
100
AcDbSymbolTableRecord
100
AcDbBlockTableRecord
  2
*D23
340
0
  0
BLOCK_RECORD
  5
A87
330
1
100
AcDbSymbolTableRecord
100
AcDbBlockTableRecord
  2
*D24
340
0
  0
ENDTAB
  0
ENDSEC
  0
SECTION
  2
BLOCKS
  0
BLOCK
  5
20
330
1F
100
AcDbEntity
  8
0
100
AcDbBlockBegin
  2
*Model_Space
 70
     0
 10
0.0
 20
0.0
 30
0.0
  3
*Model_Space
  1

  0
ENDBLK
  5
21
330
1F
100
AcDbEntity
  8
0
100
AcDbBlockEnd
  0
BLOCK
  5
5A
330
58
100
AcDbEntity
 67
     1
  8
0
100
AcDbBlockBegin
  2
*Paper_Space
 70
     0
 10
0.0
 20
0.0
 30
0.0
  3
*Paper_Space
  1

  0
ENDBLK
  5
5B
330
58
100
AcDbEntity
 67
     1
  8
0
100
AcDbBlockEnd
  0
BLOCK
  5
5F
330
5D
100
AcDbEntity
  8
0
100
AcDbBlockBegin
  2
*Paper_Space0
 70
     0
 10
0.0
 20
0.0
 30
0.0
  3
*Paper_Space0
  1

  0
ENDBLK
  5
60
330
5D
100
AcDbEntity
  8
0
100
AcDbBlockEnd
  0
BLOCK
  5
491
330
486
100
AcDbEntity
  8
0
100
AcDbBlockBegin
  2
*D1
 70
     1
 10
0.0
 20
0.0
 30
0.0
  3
*D1
  1

  0
LINE
  5
54F
330
486
100
AcDbEntity
  8
Dem
 62
     0
370
    -2
100
AcDbLine
 10
34.85339667927823
 20
13.78983429271197
 30
0.0
 11
34.85339667927823
 21
11.93419018512342
 31
0.0
  0
LINE
  5
550
330
486
100
AcDbEntity
  8
Dem
 62
     0
370
    -2
100
AcDbLine
 10
38.85339667927823
 20
13.78983429271197
 30
0.0
 11
38.85339667927823
 21
11.93419018512342
 31
0.0
  0
LINE
  5
551
330
486
100
AcDbEntity
  8
Dem
 62
     0
370
    -2
100
AcDbLine
 10
35.03339667927823
 20
12.11419018512342
 30
0.0
 11
36.59839667927823
 21
12.11419018512342
 31
0.0
  0
LINE
  5
552
330
486
100
AcDbEntity
  8
Dem
 62
     0
370
    -2
100
AcDbLine
 10
38.67339667927823
 20
12.11419018512342
 30
0.0
 11
37.10839667927823
 21
12.11419018512342
 31
0.0
  0
SOLID
  5
553
330
486
100
AcDbEntity
  8
Dem
 62
     0
100
AcDbTrace
 10
35.03339667927823
 20
12.14419018512342
 30
0.0
 11
35.03339667927823
 21
12.08419018512342
 31
0.0
 12
34.85339667927823
 22
12.11419018512342
 32
0.0
 13
34.85339667927823
 23
12.11419018512342
 33
0.0
  0
SOLID
  5
554
330
486
100
AcDbEntity
  8
Dem
 62
     0
100
AcDbTrace
 10
38.67339667927823
 20
12.14419018512342
 30
0.0
 11
38.67339667927823
 21
12.08419018512342
 31
0.0
 12
38.85339667927823
 22
12.11419018512342
 32
0.0
 13
38.85339667927823
 23
12.11419018512342
 33
0.0
  0
MTEXT
  5
555
330
486
100
AcDbEntity
  8
Dem
 62
     0
100
AcDbMText
 10
36.85339667927823
 20
12.11419018512342
 30
0.0
 40
0.18
 41
0.0
 71
     5
 72
     1
  1
\A1;4.0
 73
     1
 44
1.0
  0
POINT
  5
556
330
486
100
AcDbEntity
  8
Defpoints
 62
     0
100
AcDbPoint
 10
34.85339667927823
 20
13.85233429271196
 30
0.0
  0
POINT
  5
557
330
486
100
AcDbEntity
  8
Defpoints
 62
     0
100
AcDbPoint
 10
38.85339667927823
 20
13.85233429271196
 30
0.0
  0
POINT
  5
558
330
486
100
AcDbEntity
  8
Defpoints
 62
     0
100
AcDbPoint
 10
38.85339667927823
 20
12.11419018512342
 30
0.0
  0
ENDBLK
  5
492
330
486
100
AcDbEntity
  8
0
100
AcDbBlockEnd
  0
BLOCK
  5
4F4
330
4E9
100
AcDbEntity
  8
0
100
AcDbBlockBegin
  2
*D2
 70
     1
 10
0.0
 20
0.0
 30
0.0
  3
*D2
  1

  0
LINE
  5
839
330
4E9
100
AcDbEntity
  8
Dem
 62
     0
370
    -2
100
AcDbLine
 10
20.09699655200009
 20
18.35233429271197
 30
0.0
 11
23.24994825399393
 21
18.35233429271197
 31
0.0
  0
LINE
  5
83A
330
4E9
100
AcDbEntity
  8
Dem
 62
     0
370
    -2
100
AcDbLine
 10
20.59699655200009
 20
15.85233429271197
 30
0.0
 11
23.24994825399393
 21
15.85233429271197
 31
0.0
  0
LINE
  5
83B
330
4E9
100
AcDbEntity
  8
Dem
 62
     0
370
    -2
100
AcDbLine
 10
23.06994825399392
 20
18.17233429271197
 30
0.0
 11
23.06994825399392
 21
17.28233429271197
 31
0.0
  0
LINE
  5
83C
330
4E9
100
AcDbEntity
  8
Dem
 62
     0
370
    -2
100
AcDbLine
 10
23.06994825399392
 20
16.03233429271197
 30
0.0
 11
23.06994825399392
 21
16.92233429271197
 31
0.0
  0
SOLID
  5
83D
330
4E9
100
AcDbEntity
  8
Dem
 62
     0
100
AcDbTrace
 10
23.03994825399392
 20
18.17233429271197
 30
0.0
 11
23.09994825399392
 21
18.17233429271197
 31
0.0
 12
23.06994825399392
 22
18.35233429271197
 32
0.0
 13
23.06994825399392
 23
18.35233429271197
 33
0.0
  0
SOLID
  5
83E
330
4E9
100
AcDbEntity
  8
Dem
 62
     0
100
AcDbTrace
 10
23.03994825399392
 20
16.03233429271197
 30
0.0
 11
23.09994825399392
 21
16.03233429271197
 31
0.0
 12
23.06994825399392
 22
15.85233429271197
 32
0.0
 13
23.06994825399392
 23
15.85233429271197
 33
0.0
  0
MTEXT
  5
83F
330
4E9
100
AcDbEntity
  8
Dem
 62
     0
100
AcDbMText
 10
23.06994825399392
 20
17.10233429271197
 30
0.0
 40
0.18
 41
0.0
 71
     5
 72
     1
  1
\A1;2.5000
 73
     1
 44
1.0
  0
POINT
  5
840
330
4E9
100
AcDbEntity
  8
Defpoints
 62
     0
100
AcDbPoint
 10
20.03449655200009
 20
18.35233429271197
 30
0.0
  0
POINT
  5
841
330
4E9
100
AcDbEntity
  8
Defpoints
 62
     0
100
AcDbPoint
 10
20.53449655200009
 20
15.85233429271197
 30
0.0
  0
POINT
  5
842
330
4E9
100
AcDbEntity
  8
Defpoints
 62
     0
100
AcDbPoint
 10
23.06994825399392
 20
15.85233429271197
 30
0.0
  0
ENDBLK
  5
4F5
330
4E9
100
AcDbEntity
  8
0
100
AcDbBlockEnd
  0
BLOCK
  5
51D
330
512
100
AcDbEntity
  8
0
100
AcDbBlockBegin
  2
*D3
 70
     1
 10
0.0
 20
0.0
 30
0.0
  3
*D3
  1

  0
LINE
  5
857
330
512
100
AcDbEntity
  8
Dem
 62
     0
370
    -2
100
AcDbLine
 10
23.18744825399392
 20
15.85233429271197
 30
0.0
 11
22.87623863973267
 21
15.85233429271197
 31
0.0
  0
LINE
  5
858
330
512
100
AcDbEntity
  8
Dem
 62
     0
370
    -2
100
AcDbLine
 10
18.59699655200009
 20
5.852334292711972
 30
0.0
 11
23.23623863973267
 21
5.852334292711971
 31
0.0
  0
LINE
  5
859
330
512
100
AcDbEntity
  8
Dem
 62
     0
370
    -2
100
AcDbLine
 10
23.05623863973267
 20
15.67233429271197
 30
0.0
 11
23.05623863973267
 21
11.03233429271197
 31
0.0
  0
LINE
  5
85A
330
512
100
AcDbEntity
  8
Dem
 62
     0
370
    -2
100
AcDbLine
 10
23.05623863973266
 20
6.032334292711971
 30
0.0
 11
23.05623863973267
 21
10.67233429271197
 31
0.0
  0
SOLID
  5
85B
330
512
100
AcDbEntity
  8
Dem
 62
     0
100
AcDbTrace
 10
23.02623863973267
 20
15.67233429271197
 30
0.0
 11
23.08623863973267
 21
15.67233429271197
 31
0.0
 12
23.05623863973267
 22
15.85233429271197
 32
0.0
 13
23.05623863973267
 23
15.85233429271197
 33
0.0
  0
SOLID
  5
85C
330
512
100
AcDbEntity
  8
Dem
 62
     0
100
AcDbTrace
 10
23.02623863973266
 20
6.032334292711971
 30
0.0
 11
23.08623863973267
 21
6.032334292711971
 31
0.0
 12
23.05623863973266
 22
5.852334292711971
 32
0.0
 13
23.05623863973266
 23
5.852334292711971
 33
0.0
  0
MTEXT
  5
85D
330
512
100
AcDbEntity
  8
Dem
 62
     0
100
AcDbMText
 10
23.05623863973266
 20
10.85233429271197
 30
0.0
 40
0.18
 41
0.0
 71
     5
 72
     1
  1
\A1;10.0000
 73
     1
 44
1.0
  0
POINT
  5
85E
330
512
100
AcDbEntity
  8
Defpoints
 62
     0
100
AcDbPoint
 10
23.24994825399393
 20
15.85233429271197
 30
0.0
  0
POINT
  5
85F
330
512
100
AcDbEntity
  8
Defpoints
 62
     0
100
AcDbPoint
 10
18.53449655200009
 20
5.852334292711972
 30
0.0
  0
POINT
  5
860
330
512
100
AcDbEntity
  8
Defpoints
 62
     0
100
AcDbPoint
 10
23.05623863973266
 20
5.852334292711971
 30
0.0
  0
ENDBLK
  5
51E
330
512
100
AcDbEntity
  8
0
100
AcDbBlockEnd
  0
BLOCK
  5
5A4
330
599
100
AcDbEntity
  8
0
100
AcDbBlockBegin
  2
*D4
 70
     1
 10
0.0
 20
0.0
 30
0.0
  3
*D4
  1

  0
LINE
  5
A3F
330
599
100
AcDbEntity
  8
Dem
 62
     0
370
    -2
100
AcDbLine
 10
14.97199655200009
 20
16.35233429271197
 30
0.0
 11
10.8199680457504
 21
16.35233429271197
 31
0.0
  0
LINE
  5
A40
330
599
100
AcDbEntity
  8
Dem
 62
     0
370
    -2
100
AcDbLine
 10
14.97199655200009
 20
12.85233429271197
 30
0.0
 11
10.8199680457504
 21
12.85233429271197
 31
0.0
  0
LINE
  5
A41
330
599
100
AcDbEntity
  8
Dem
 62
     0
370
    -2
100
AcDbLine
 10
10.9999680457504
 20
16.17233429271197
 30
0.0
 11
10.9999680457504
 21
14.78233429271197
 31
0.0
  0
LINE
  5
A42
330
599
100
AcDbEntity
  8
Dem
 62
     0
370
    -2
100
AcDbLine
 10
10.9999680457504
 20
13.03233429271197
 30
0.0
 11
10.9999680457504
 21
14.42233429271197
 31
0.0
  0
SOLID
  5
A43
330
599
100
AcDbEntity
  8
Dem
 62
     0
100
AcDbTrace
 10
10.9699680457504
 20
16.17233429271197
 30
0.0
 11
11.0299680457504
 21
16.17233429271197
 31
0.0
 12
10.9999680457504
 22
16.35233429271197
 32
0.0
 13
10.9999680457504
 23
16.35233429271197
 33
0.0
  0
SOLID
  5
A44
330
599
100
AcDbEntity
  8
Dem
 62
     0
100
AcDbTrace
 10
10.9699680457504
 20
13.03233429271197
 30
0.0
 11
11.0299680457504
 21
13.03233429271197
 31
0.0
 12
10.9999680457504
 22
12.85233429271197
 32
0.0
 13
10.9999680457504
 23
12.85233429271197
 33
0.0
  0
MTEXT
  5
A45
330
599
100
AcDbEntity
  8
Dem
 62
     0
100
AcDbMText
 10
10.9999680457504
 20
14.60233429271197
 30
0.0
 40
0.18
 41
0.0
 71
     5
 72
     1
  1
\A1;3.5
 73
     1
 44
1.0
  0
POINT
  5
A46
330
599
100
AcDbEntity
  8
Defpoints
 62
     0
100
AcDbPoint
 10
15.03449655200009
 20
16.35233429271197
 30
0.0
  0
POINT
  5
A47
330
599
100
AcDbEntity
  8
Defpoints
 62
     0
100
AcDbPoint
 10
15.03449655200009
 20
12.85233429271197
 30
0.0
  0
POINT
  5
A48
330
599
100
AcDbEntity
  8
Defpoints
 62
     0
100
AcDbPoint
 10
10.9999680457504
 20
12.85233429271197
 30
0.0
  0
ENDBLK
  5
5A5
330
599
100
AcDbEntity
  8
0
100
AcDbBlockEnd
  0
BLOCK
  5
5C8
330
5BD
100
AcDbEntity
  8
0
100
AcDbBlockBegin
  2
*D5
 70
     1
 10
0.0
 20
0.0
 30
0.0
  3
*D5
  1

  0
LINE
  5
861
330
5BD
100
AcDbEntity
  8
Dem
 62
     0
370
    -2
100
AcDbLine
 10
14.97199655200009
 20
10.85233429271197
 30
0.0
 11
10.8199680457504
 21
10.85233429271197
 31
0.0
  0
LINE
  5
862
330
5BD
100
AcDbEntity
  8
Dem
 62
     0
370
    -2
100
AcDbLine
 10
16.97199655200009
 20
5.102334292711972
 30
0.0
 11
10.8199680457504
 21
5.102334292711973
 31
0.0
  0
LINE
  5
863
330
5BD
100
AcDbEntity
  8
Dem
 62
     0
370
    -2
100
AcDbLine
 10
10.9999680457504
 20
10.67233429271197
 30
0.0
 11
10.9999680457504
 21
8.157334292711974
 31
0.0
  0
LINE
  5
864
330
5BD
100
AcDbEntity
  8
Dem
 62
     0
370
    -2
100
AcDbLine
 10
10.9999680457504
 20
5.282334292711973
 30
0.0
 11
10.9999680457504
 21
7.797334292711973
 31
0.0
  0
SOLID
  5
865
330
5BD
100
AcDbEntity
  8
Dem
 62
     0
100
AcDbTrace
 10
10.9699680457504
 20
10.67233429271197
 30
0.0
 11
11.0299680457504
 21
10.67233429271197
 31
0.0
 12
10.9999680457504
 22
10.85233429271197
 32
0.0
 13
10.9999680457504
 23
10.85233429271197
 33
0.0
  0
SOLID
  5
866
330
5BD
100
AcDbEntity
  8
Dem
 62
     0
100
AcDbTrace
 10
10.9699680457504
 20
5.282334292711973
 30
0.0
 11
11.0299680457504
 21
5.282334292711973
 31
0.0
 12
10.9999680457504
 22
5.102334292711973
 32
0.0
 13
10.9999680457504
 23
5.102334292711973
 33
0.0
  0
MTEXT
  5
867
330
5BD
100
AcDbEntity
  8
Dem
 62
     0
100
AcDbMText
 10
10.9999680457504
 20
7.977334292711975
 30
0.0
 40
0.18
 41
0.0
 71
     5
 72
     1
  1
\A1;5.75
 73
     1
 44
1.0
  0
POINT
  5
868
330
5BD
100
AcDbEntity
  8
Defpoints
 62
     0
100
AcDbPoint
 10
15.03449655200009
 20
10.85233429271197
 30
0.0
  0
POINT
  5
869
330
5BD
100
AcDbEntity
  8
Defpoints
 62
     0
100
AcDbPoint
 10
17.03449655200009
 20
5.102334292711972
 30
0.0
  0
POINT
  5
86A
330
5BD
100
AcDbEntity
  8
Defpoints
 62
     0
100
AcDbPoint
 10
10.9999680457504
 20
5.102334292711973
 30
0.0
  0
ENDBLK
  5
5C9
330
5BD
100
AcDbEntity
  8
0
100
AcDbBlockEnd
  0
BLOCK
  5
5EC
330
5E1
100
AcDbEntity
  8
0
100
AcDbBlockBegin
  2
*D6
 70
     1
 10
0.0
 20
0.0
 30
0.0
  3
*D6
  1

  0
LINE
  5
797
330
5E1
100
AcDbEntity
  8
Dem
 62
     0
370
    -2
100
AcDbLine
 10
14.53449655200009
 20
18.91483429271197
 30
0.0
 11
14.53449655200009
 21
21.3622901144187
 31
0.0
  0
LINE
  5
798
330
5E1
100
AcDbEntity
  8
Dem
 62
     0
370
    -2
100
AcDbLine
 10
20.53449655200009
 20
18.91483429271197
 30
0.0
 11
20.53449655200009
 21
21.3622901144187
 31
0.0
  0
LINE
  5
799
330
5E1
100
AcDbEntity
  8
Dem
 62
     0
370
    -2
100
AcDbLine
 10
14.71449655200009
 20
21.1822901144187
 30
0.0
 11
17.27949655200009
 21
21.1822901144187
 31
0.0
  0
LINE
  5
79A
330
5E1
100
AcDbEntity
  8
Dem
 62
     0
370
    -2
100
AcDbLine
 10
20.35449655200009
 20
21.1822901144187
 30
0.0
 11
17.78949655200009
 21
21.1822901144187
 31
0.0
  0
SOLID
  5
79B
330
5E1
100
AcDbEntity
  8
Dem
 62
     0
100
AcDbTrace
 10
14.71449655200009
 20
21.2122901144187
 30
0.0
 11
14.71449655200009
 21
21.1522901144187
 31
0.0
 12
14.53449655200009
 22
21.1822901144187
 32
0.0
 13
14.53449655200009
 23
21.1822901144187
 33
0.0
  0
SOLID
  5
79C
330
5E1
100
AcDbEntity
  8
Dem
 62
     0
100
AcDbTrace
 10
20.35449655200009
 20
21.2122901144187
 30
0.0
 11
20.35449655200009
 21
21.1522901144187
 31
0.0
 12
20.53449655200009
 22
21.1822901144187
 32
0.0
 13
20.53449655200009
 23
21.1822901144187
 33
0.0
  0
MTEXT
  5
79D
330
5E1
100
AcDbEntity
  8
Dem
 62
     0
100
AcDbMText
 10
17.53449655200009
 20
21.1822901144187
 30
0.0
 40
0.18
 41
0.0
 71
     5
 72
     1
  1
\A1;6.0
 73
     1
 44
1.0
  0
POINT
  5
79E
330
5E1
100
AcDbEntity
  8
Defpoints
 62
     0
100
AcDbPoint
 10
14.53449655200009
 20
18.85233429271197
 30
0.0
  0
POINT
  5
79F
330
5E1
100
AcDbEntity
  8
Defpoints
 62
     0
100
AcDbPoint
 10
20.53449655200009
 20
18.85233429271197
 30
0.0
  0
POINT
  5
7A0
330
5E1
100
AcDbEntity
  8
Defpoints
 62
     0
100
AcDbPoint
 10
20.53449655200009
 20
21.1822901144187
 30
0.0
  0
ENDBLK
  5
5ED
330
5E1
100
AcDbEntity
  8
0
100
AcDbBlockEnd
  0
BLOCK
  5
62A
330
61F
100
AcDbEntity
  8
0
100
AcDbBlockBegin
  2
*D7
 70
     1
 10
0.0
 20
0.0
 30
0.0
  3
*D7
  1

  0
LINE
  5
6DF
330
61F
100
AcDbEntity
  8
Dem
 62
     0
370
    -2
100
AcDbLine
 10
14.97199655200009
 20
12.85233429271197
 30
0.0
 11
10.8199680457504
 21
12.85233429271197
 31
0.0
  0
LINE
  5
6E0
330
61F
100
AcDbEntity
  8
Dem
 62
     0
370
    -2
100
AcDbLine
 10
14.97199655200009
 20
10.85233429271197
 30
0.0
 11
10.8199680457504
 21
10.85233429271197
 31
0.0
  0
LINE
  5
6E1
330
61F
100
AcDbEntity
  8
Dem
 62
     0
370
    -2
100
AcDbLine
 10
10.9999680457504
 20
12.67233429271197
 30
0.0
 11
10.9999680457504
 21
12.03233429271197
 31
0.0
  0
LINE
  5
6E2
330
61F
100
AcDbEntity
  8
Dem
 62
     0
370
    -2
100
AcDbLine
 10
10.9999680457504
 20
11.03233429271197
 30
0.0
 11
10.9999680457504
 21
11.67233429271197
 31
0.0
  0
SOLID
  5
6E3
330
61F
100
AcDbEntity
  8
Dem
 62
     0
100
AcDbTrace
 10
10.9699680457504
 20
12.67233429271197
 30
0.0
 11
11.0299680457504
 21
12.67233429271197
 31
0.0
 12
10.9999680457504
 22
12.85233429271197
 32
0.0
 13
10.9999680457504
 23
12.85233429271197
 33
0.0
  0
SOLID
  5
6E4
330
61F
100
AcDbEntity
  8
Dem
 62
     0
100
AcDbTrace
 10
10.9699680457504
 20
11.03233429271197
 30
0.0
 11
11.0299680457504
 21
11.03233429271197
 31
0.0
 12
10.9999680457504
 22
10.85233429271197
 32
0.0
 13
10.9999680457504
 23
10.85233429271197
 33
0.0
  0
MTEXT
  5
6E5
330
61F
100
AcDbEntity
  8
Dem
 62
     0
100
AcDbMText
 10
10.9999680457504
 20
11.85233429271197
 30
0.0
 40
0.18
 41
0.0
 71
     5
 72
     1
  1
\A1;2.0
 73
     1
 44
1.0
  0
POINT
  5
6E6
330
61F
100
AcDbEntity
  8
Defpoints
 62
     0
100
AcDbPoint
 10
15.03449655200009
 20
12.85233429271197
 30
0.0
  0
POINT
  5
6E7
330
61F
100
AcDbEntity
  8
Defpoints
 62
     0
100
AcDbPoint
 10
15.03449655200009
 20
10.85233429271197
 30
0.0
  0
POINT
  5
6E8
330
61F
100
AcDbEntity
  8
Defpoints
 62
     0
100
AcDbPoint
 10
10.9999680457504
 20
10.85233429271197
 30
0.0
  0
ENDBLK
  5
62B
330
61F
100
AcDbEntity
  8
0
100
AcDbBlockEnd
  0
BLOCK
  5
6FF
330
6F4
100
AcDbEntity
  8
0
100
AcDbBlockBegin
  2
*D8
 70
     1
 10
0.0
 20
0.0
 30
0.0
  3
*D8
  1

  0
LINE
  5
A35
330
6F4
100
AcDbEntity
  8
Dem
 62
     0
370
    -2
100
AcDbLine
 10
16.03449655200009
 20
12.78983429271197
 30
0.0
 11
16.03449655200009
 21
11.82968767724376
 31
0.0
  0
LINE
  5
A36
330
6F4
100
AcDbEntity
  8
Dem
 62
     0
370
    -2
100
AcDbLine
 10
15.03449655200009
 20
12.78983429271197
 30
0.0
 11
15.03449655200009
 21
11.82968767724376
 31
0.0
  0
LINE
  5
A37
330
6F4
100
AcDbEntity
  8
Dem
 62
     0
370
    -2
100
AcDbLine
 10
15.85449655200009
 20
12.00968767724376
 30
0.0
 11
15.75949655200009
 21
12.00968767724376
 31
0.0
  0
LINE
  5
A38
330
6F4
100
AcDbEntity
  8
Dem
 62
     0
370
    -2
100
AcDbLine
 10
15.21449655200009
 20
12.00968767724376
 30
0.0
 11
15.30949655200009
 21
12.00968767724376
 31
0.0
  0
SOLID
  5
A39
330
6F4
100
AcDbEntity
  8
Dem
 62
     0
100
AcDbTrace
 10
15.85449655200009
 20
12.03968767724376
 30
0.0
 11
15.85449655200009
 21
11.97968767724376
 31
0.0
 12
16.03449655200009
 22
12.00968767724376
 32
0.0
 13
16.03449655200009
 23
12.00968767724376
 33
0.0
  0
SOLID
  5
A3A
330
6F4
100
AcDbEntity
  8
Dem
 62
     0
100
AcDbTrace
 10
15.21449655200009
 20
12.03968767724376
 30
0.0
 11
15.21449655200009
 21
11.97968767724376
 31
0.0
 12
15.03449655200009
 22
12.00968767724376
 32
0.0
 13
15.03449655200009
 23
12.00968767724376
 33
0.0
  0
MTEXT
  5
A3B
330
6F4
100
AcDbEntity
  8
Dem
 62
     0
100
AcDbMText
 10
15.53449655200009
 20
12.00968767724376
 30
0.0
 40
0.18
 41
0.0
 71
     5
 72
     1
  1
\A1;1.0
 73
     1
 44
1.0
  0
POINT
  5
A3C
330
6F4
100
AcDbEntity
  8
Defpoints
 62
     0
100
AcDbPoint
 10
16.03449655200009
 20
12.85233429271197
 30
0.0
  0
POINT
  5
A3D
330
6F4
100
AcDbEntity
  8
Defpoints
 62
     0
100
AcDbPoint
 10
15.03449655200009
 20
12.85233429271197
 30
0.0
  0
POINT
  5
A3E
330
6F4
100
AcDbEntity
  8
Defpoints
 62
     0
100
AcDbPoint
 10
15.03449655200009
 20
12.00968767724376
 30
0.0
  0
ENDBLK
  5
700
330
6F4
100
AcDbEntity
  8
0
100
AcDbBlockEnd
  0
BLOCK
  5
723
330
718
100
AcDbEntity
  8
0
100
AcDbBlockBegin
  2
*D9
 70
     1
 10
0.0
 20
0.0
 30
0.0
  3
*D9
  1

  0
LINE
  5
731
330
718
100
AcDbEntity
  8
Dem
 62
     0
370
    -2
100
AcDbLine
 10
14.47199655200009
 20
18.85233429271197
 30
0.0
 11
13.04006287440831
 21
18.85233429271197
 31
0.0
  0
LINE
  5
732
330
718
100
AcDbEntity
  8
Dem
 62
     0
370
    -2
100
AcDbLine
 10
14.97199655200009
 20
18.35233429271197
 30
0.0
 11
13.04006287440831
 21
18.35233429271197
 31
0.0
  0
LINE
  5
733
330
718
100
AcDbEntity
  8
Dem
 62
     0
370
    -2
100
AcDbLine
 10
13.22006287440831
 20
19.03233429271197
 30
0.0
 11
13.22006287440831
 21
19.21233429271197
 31
0.0
  0
LINE
  5
734
330
718
100
AcDbEntity
  8
Dem
 62
     0
370
    -2
100
AcDbLine
 10
13.22006287440831
 20
18.17233429271197
 30
0.0
 11
13.22006287440831
 21
17.99233429271197
 31
0.0
  0
SOLID
  5
735
330
718
100
AcDbEntity
  8
Dem
 62
     0
100
AcDbTrace
 10
13.19006287440831
 20
19.03233429271197
 30
0.0
 11
13.25006287440831
 21
19.03233429271197
 31
0.0
 12
13.22006287440831
 22
18.85233429271197
 32
0.0
 13
13.22006287440831
 23
18.85233429271197
 33
0.0
  0
SOLID
  5
736
330
718
100
AcDbEntity
  8
Dem
 62
     0
100
AcDbTrace
 10
13.19006287440831
 20
18.17233429271197
 30
0.0
 11
13.25006287440831
 21
18.17233429271197
 31
0.0
 12
13.22006287440831
 22
18.35233429271197
 32
0.0
 13
13.22006287440831
 23
18.35233429271197
 33
0.0
  0
MTEXT
  5
737
330
718
100
AcDbEntity
  8
Dem
 62
     0
100
AcDbMText
 10
13.22006287440831
 20
18.60233429271197
 30
0.0
 40
0.18
 41
0.0
 71
     5
 72
     1
  1
\A1;0.5
 73
     1
 44
1.0
  0
POINT
  5
738
330
718
100
AcDbEntity
  8
Defpoints
 62
     0
100
AcDbPoint
 10
14.53449655200009
 20
18.85233429271197
 30
0.0
  0
POINT
  5
739
330
718
100
AcDbEntity
  8
Defpoints
 62
     0
100
AcDbPoint
 10
15.03449655200009
 20
18.35233429271197
 30
0.0
  0
POINT
  5
73A
330
718
100
AcDbEntity
  8
Defpoints
 62
     0
100
AcDbPoint
 10
13.22006287440831
 20
18.35233429271197
 30
0.0
  0
ENDBLK
  5
724
330
718
100
AcDbEntity
  8
0
100
AcDbBlockEnd
  0
BLOCK
  5
747
330
73C
100
AcDbEntity
  8
0
100
AcDbBlockBegin
  2
*D10
 70
     1
 10
0.0
 20
0.0
 30
0.0
  3
*D10
  1

  0
LINE
  5
755
330
73C
100
AcDbEntity
  8
Dem
 62
     0
370
    -2
100
AcDbLine
 10
15.03449655200009
 20
18.41483429271197
 30
0.0
 11
15.03449655200009
 21
20.03429874958681
 31
0.0
  0
LINE
  5
756
330
73C
100
AcDbEntity
  8
Dem
 62
     0
370
    -2
100
AcDbLine
 10
14.53449655200009
 20
18.91483429271197
 30
0.0
 11
14.53449655200009
 21
20.03429874958681
 31
0.0
  0
LINE
  5
757
330
73C
100
AcDbEntity
  8
Dem
 62
     0
370
    -2
100
AcDbLine
 10
15.21449655200009
 20
19.85429874958681
 30
0.0
 11
15.39449655200009
 21
19.85429874958681
 31
0.0
  0
LINE
  5
758
330
73C
100
AcDbEntity
  8
Dem
 62
     0
370
    -2
100
AcDbLine
 10
14.35449655200009
 20
19.85429874958681
 30
0.0
 11
14.17449655200009
 21
19.85429874958681
 31
0.0
  0
SOLID
  5
759
330
73C
100
AcDbEntity
  8
Dem
 62
     0
100
AcDbTrace
 10
15.21449655200009
 20
19.88429874958681
 30
0.0
 11
15.21449655200009
 21
19.82429874958681
 31
0.0
 12
15.03449655200009
 22
19.85429874958681
 32
0.0
 13
15.03449655200009
 23
19.85429874958681
 33
0.0
  0
SOLID
  5
75A
330
73C
100
AcDbEntity
  8
Dem
 62
     0
100
AcDbTrace
 10
14.35449655200009
 20
19.88429874958681
 30
0.0
 11
14.35449655200009
 21
19.82429874958681
 31
0.0
 12
14.53449655200009
 22
19.85429874958681
 32
0.0
 13
14.53449655200009
 23
19.85429874958681
 33
0.0
  0
MTEXT
  5
75B
330
73C
100
AcDbEntity
  8
Dem
 62
     0
100
AcDbMText
 10
13.91949655200009
 20
19.85429874958681
 30
0.0
 40
0.18
 41
0.0
 71
     5
 72
     1
  1
\A1;0.5
 73
     1
 44
1.0
  0
POINT
  5
75C
330
73C
100
AcDbEntity
  8
Defpoints
 62
     0
100
AcDbPoint
 10
15.03449655200009
 20
18.35233429271197
 30
0.0
  0
POINT
  5
75D
330
73C
100
AcDbEntity
  8
Defpoints
 62
     0
100
AcDbPoint
 10
14.53449655200009
 20
18.85233429271197
 30
0.0
  0
POINT
  5
75E
330
73C
100
AcDbEntity
  8
Defpoints
 62
     0
100
AcDbPoint
 10
14.53449655200009
 20
19.85429874958681
 30
0.0
  0
ENDBLK
  5
748
330
73C
100
AcDbEntity
  8
0
100
AcDbBlockEnd
  0
BLOCK
  5
7E6
330
7DB
100
AcDbEntity
  8
0
100
AcDbBlockBegin
  2
*D11
 70
     1
 10
0.0
 20
0.0
 30
0.0
  3
*D11
  1

  0
LINE
  5
7F4
330
7DB
100
AcDbEntity
  8
Dem
 62
     0
370
    -2
100
AcDbLine
 10
30.33378989809168
 20
18.85233429271197
 30
0.0
 11
28.5935932633237
 21
18.85233429271197
 31
0.0
  0
LINE
  5
7F5
330
7DB
100
AcDbEntity
  8
Dem
 62
     0
370
    -2
100
AcDbLine
 10
30.33378989809168
 20
12.85233429271197
 30
0.0
 11
28.5935932633237
 21
12.85233429271197
 31
0.0
  0
LINE
  5
7F6
330
7DB
100
AcDbEntity
  8
Dem
 62
     0
370
    -2
100
AcDbLine
 10
28.7735932633237
 20
18.67233429271197
 30
0.0
 11
28.7735932633237
 21
16.03233429271197
 31
0.0
  0
LINE
  5
7F7
330
7DB
100
AcDbEntity
  8
Dem
 62
     0
370
    -2
100
AcDbLine
 10
28.7735932633237
 20
13.03233429271197
 30
0.0
 11
28.7735932633237
 21
15.67233429271197
 31
0.0
  0
SOLID
  5
7F8
330
7DB
100
AcDbEntity
  8
Dem
 62
     0
100
AcDbTrace
 10
28.7435932633237
 20
18.67233429271197
 30
0.0
 11
28.8035932633237
 21
18.67233429271197
 31
0.0
 12
28.7735932633237
 22
18.85233429271197
 32
0.0
 13
28.7735932633237
 23
18.85233429271197
 33
0.0
  0
SOLID
  5
7F9
330
7DB
100
AcDbEntity
  8
Dem
 62
     0
100
AcDbTrace
 10
28.7435932633237
 20
13.03233429271197
 30
0.0
 11
28.8035932633237
 21
13.03233429271197
 31
0.0
 12
28.7735932633237
 22
12.85233429271197
 32
0.0
 13
28.7735932633237
 23
12.85233429271197
 33
0.0
  0
MTEXT
  5
7FA
330
7DB
100
AcDbEntity
  8
Dem
 62
     0
100
AcDbMText
 10
28.7735932633237
 20
15.85233429271197
 30
0.0
 40
0.18
 41
0.0
 71
     5
 72
     1
  1
\A1;6.0
 73
     1
 44
1.0
  0
POINT
  5
7FB
330
7DB
100
AcDbEntity
  8
Defpoints
 62
     0
100
AcDbPoint
 10
30.39628989809168
 20
18.85233429271197
 30
0.0
  0
POINT
  5
7FC
330
7DB
100
AcDbEntity
  8
Defpoints
 62
     0
100
AcDbPoint
 10
30.39628989809168
 20
12.85233429271197
 30
0.0
  0
POINT
  5
7FD
330
7DB
100
AcDbEntity
  8
Defpoints
 62
     0
100
AcDbPoint
 10
28.7735932633237
 20
12.85233429271197
 30
0.0
  0
ENDBLK
  5
7E7
330
7DB
100
AcDbEntity
  8
0
100
AcDbBlockEnd
  0
BLOCK
  5
80B
330
800
100
AcDbEntity
  8
0
100
AcDbBlockBegin
  2
*D12
 70
     1
 10
0.0
 20
0.0
 30
0.0
  3
*D12
  1

  0
LINE
  5
819
330
800
100
AcDbEntity
  8
Dem
 62
     0
370
    -2
100
AcDbLine
 10
15.03449655200008
 20
-4.846449667925668
 30
0.0
 11
15.03449655200008
 21
-9.105153927768554
 31
0.0
  0
LINE
  5
81A
330
800
100
AcDbEntity
  8
Dem
 62
     0
370
    -2
100
AcDbLine
 10
20.03449655200009
 20
-4.846449667925668
 30
0.0
 11
20.03449655200009
 21
-9.105153927768554
 31
0.0
  0
LINE
  5
81B
330
800
100
AcDbEntity
  8
Dem
 62
     0
370
    -2
100
AcDbLine
 10
15.21449655200008
 20
-8.925153927768555
 30
0.0
 11
17.27949655200009
 21
-8.925153927768555
 31
0.0
  0
LINE
  5
81C
330
800
100
AcDbEntity
  8
Dem
 62
     0
370
    -2
100
AcDbLine
 10
19.85449655200008
 20
-8.925153927768555
 30
0.0
 11
17.78949655200008
 21
-8.925153927768555
 31
0.0
  0
SOLID
  5
81D
330
800
100
AcDbEntity
  8
Dem
 62
     0
100
AcDbTrace
 10
15.21449655200008
 20
-8.895153927768555
 30
0.0
 11
15.21449655200008
 21
-8.955153927768554
 31
0.0
 12
15.03449655200008
 22
-8.925153927768555
 32
0.0
 13
15.03449655200008
 23
-8.925153927768555
 33
0.0
  0
SOLID
  5
81E
330
800
100
AcDbEntity
  8
Dem
 62
     0
100
AcDbTrace
 10
19.85449655200008
 20
-8.895153927768555
 30
0.0
 11
19.85449655200008
 21
-8.955153927768554
 31
0.0
 12
20.03449655200009
 22
-8.925153927768555
 32
0.0
 13
20.03449655200009
 23
-8.925153927768555
 33
0.0
  0
MTEXT
  5
81F
330
800
100
AcDbEntity
  8
Dem
 62
     0
100
AcDbMText
 10
17.53449655200008
 20
-8.925153927768555
 30
0.0
 40
0.18
 41
0.0
 71
     5
 72
     1
  1
\A1;5.0
 73
     1
 44
1.0
  0
POINT
  5
820
330
800
100
AcDbEntity
  8
Defpoints
 62
     0
100
AcDbPoint
 10
15.03449655200008
 20
-4.783949667925668
 30
0.0
  0
POINT
  5
821
330
800
100
AcDbEntity
  8
Defpoints
 62
     0
100
AcDbPoint
 10
20.03449655200009
 20
-4.783949667925668
 30
0.0
  0
POINT
  5
822
330
800
100
AcDbEntity
  8
Defpoints
 62
     0
100
AcDbPoint
 10
20.03449655200009
 20
-8.925153927768555
 30
0.0
  0
ENDBLK
  5
80C
330
800
100
AcDbEntity
  8
0
100
AcDbBlockEnd
  0
BLOCK
  5
880
330
875
100
AcDbEntity
  8
0
100
AcDbBlockBegin
  2
*D13
 70
     1
 10
0.0
 20
0.0
 30
0.0
  3
*D13
  1

  0
LINE
  5
883
330
875
100
AcDbEntity
  8
Dem
 62
     0
370
    -2
100
AcDbLine
 10
17.78449655200009
 20
5.477334292711972
 30
0.0
 11
19.70074405872605
 21
5.477334292711971
 31
0.0
  0
LINE
  5
884
330
875
100
AcDbEntity
  8
Dem
 62
     0
370
    -2
100
AcDbLine
 10
18.09699655200009
 20
5.102334292711972
 30
0.0
 11
19.70074405872605
 21
5.102334292711972
 31
0.0
  0
LINE
  5
885
330
875
100
AcDbEntity
  8
Dem
 62
     0
370
    -2
100
AcDbLine
 10
19.52074405872605
 20
5.657334292711971
 30
0.0
 11
19.52074405872605
 21
5.837334292711972
 31
0.0
  0
LINE
  5
886
330
875
100
AcDbEntity
  8
Dem
 62
     0
370
    -2
100
AcDbLine
 10
19.52074405872605
 20
4.922334292711973
 30
0.0
 11
19.52074405872605
 21
4.742334292711972
 31
0.0
  0
SOLID
  5
887
330
875
100
AcDbEntity
  8
Dem
 62
     0
100
AcDbTrace
 10
19.49074405872605
 20
5.657334292711971
 30
0.0
 11
19.55074405872605
 21
5.657334292711971
 31
0.0
 12
19.52074405872605
 22
5.477334292711971
 32
0.0
 13
19.52074405872605
 23
5.477334292711971
 33
0.0
  0
SOLID
  5
888
330
875
100
AcDbEntity
  8
Dem
 62
     0
100
AcDbTrace
 10
19.49074405872605
 20
4.922334292711973
 30
0.0
 11
19.55074405872605
 21
4.922334292711973
 31
0.0
 12
19.52074405872605
 22
5.102334292711972
 32
0.0
 13
19.52074405872605
 23
5.102334292711972
 33
0.0
  0
MTEXT
  5
889
330
875
100
AcDbEntity
  8
Dem
 62
     0
100
AcDbMText
 10
19.52074405872605
 20
5.289834292711975
 30
0.0
 40
0.18
 41
0.0
 71
     5
 72
     1
  1
\A1;0.3750
 73
     1
 44
1.0
  0
POINT
  5
88A
330
875
100
AcDbEntity
  8
Defpoints
 62
     0
100
AcDbPoint
 10
17.72199655200009
 20
5.477334292711972
 30
0.0
  0
POINT
  5
88B
330
875
100
AcDbEntity
  8
Defpoints
 62
     0
100
AcDbPoint
 10
18.03449655200009
 20
5.102334292711972
 30
0.0
  0
POINT
  5
88C
330
875
100
AcDbEntity
  8
Defpoints
 62
     0
100
AcDbPoint
 10
19.52074405872605
 20
5.102334292711972
 30
0.0
  0
ENDBLK
  5
881
330
875
100
AcDbEntity
  8
0
100
AcDbBlockEnd
  0
BLOCK
  5
8A3
330
897
100
AcDbEntity
  8
0
100
AcDbBlockBegin
  2
*D14
 70
     1
 10
0.0
 20
0.0
 30
0.0
  3
*D14
  1

  0
LINE
  5
8B2
330
897
100
AcDbEntity
  8
Dem
 62
     0
370
    -2
100
AcDbLine
 10
32.20878989809168
 20
5.852334292711971
 30
0.0
 11
34.10186772934491
 21
5.852334292711971
 31
0.0
  0
LINE
  5
8B3
330
897
100
AcDbEntity
  8
Dem
 62
     0
370
    -2
100
AcDbLine
 10
31.70878989809168
 20
5.102334292711972
 30
0.0
 11
34.10186772934491
 21
5.102334292711971
 31
0.0
  0
LINE
  5
8B4
330
897
100
AcDbEntity
  8
Dem
 62
     0
370
    -2
100
AcDbLine
 10
33.92186772934491
 20
5.672334292711972
 30
0.0
 11
33.92186772934491
 21
5.282334292711972
 31
0.0
  0
LINE
  5
8B5
330
897
100
AcDbEntity
  8
Dem
 62
     0
370
    -2
100
AcDbLine
 10
33.92186772934491
 20
5.102334292711972
 30
0.0
 11
33.92186772934491
 21
4.922334292711973
 31
0.0
  0
LINE
  5
8B6
330
897
100
AcDbEntity
  8
Dem
 62
     0
370
    -2
100
AcDbLine
 10
33.92186772934491
 20
4.922334292711973
 30
0.0
 11
33.74186772934491
 21
4.922334292711973
 31
0.0
  0
SOLID
  5
8B7
330
897
100
AcDbEntity
  8
Dem
 62
     0
100
AcDbTrace
 10
33.89186772934491
 20
5.672334292711972
 30
0.0
 11
33.95186772934491
 21
5.672334292711972
 31
0.0
 12
33.92186772934491
 22
5.852334292711971
 32
0.0
 13
33.92186772934491
 23
5.852334292711971
 33
0.0
  0
SOLID
  5
8B8
330
897
100
AcDbEntity
  8
Dem
 62
     0
100
AcDbTrace
 10
33.89186772934491
 20
5.282334292711972
 30
0.0
 11
33.95186772934491
 21
5.282334292711972
 31
0.0
 12
33.92186772934491
 22
5.102334292711972
 32
0.0
 13
33.92186772934491
 23
5.102334292711972
 33
0.0
  0
MTEXT
  5
8B9
330
897
100
AcDbEntity
  8
Dem
 62
     0
100
AcDbMText
 10
33.39686772934491
 20
4.922334292711978
 30
0.0
 40
0.18
 41
0.0
 71
     5
 72
     1
  1
\A1;0.75
 73
     1
 44
1.0
  0
POINT
  5
8BA
330
897
100
AcDbEntity
  8
Defpoints
 62
     0
100
AcDbPoint
 10
32.14628989809168
 20
5.852334292711971
 30
0.0
  0
POINT
  5
8BB
330
897
100
AcDbEntity
  8
Defpoints
 62
     0
100
AcDbPoint
 10
31.64628989809168
 20
5.102334292711972
 30
0.0
  0
POINT
  5
8BC
330
897
100
AcDbEntity
  8
Defpoints
 62
     0
100
AcDbPoint
 10
33.92186772934491
 20
5.102334292711972
 30
0.0
  0
ENDBLK
  5
8A4
330
897
100
AcDbEntity
  8
0
100
AcDbBlockEnd
  0
BLOCK
  5
94E
330
943
100
AcDbEntity
  8
0
100
AcDbBlockBegin
  2
*D15
 70
     1
 10
0.0
 20
0.0
 30
0.0
  3
*D15
  1

  0
LINE
  5
95D
330
943
100
AcDbEntity
  8
Dem
 62
     0
370
    -2
100
AcDbLine
 10
-3.271573849911035
 20
18.65964833481993
 30
0.0
 11
-3.271573849911035
 21
21.10710415652666
 31
0.0
  0
LINE
  5
95E
330
943
100
AcDbEntity
  8
Dem
 62
     0
370
    -2
100
AcDbLine
 10
2.728426150088964
 20
18.65964833481993
 30
0.0
 11
2.728426150088964
 21
21.10710415652666
 31
0.0
  0
LINE
  5
95F
330
943
100
AcDbEntity
  8
Dem
 62
     0
370
    -2
100
AcDbLine
 10
-3.091573849911035
 20
20.92710415652666
 30
0.0
 11
-0.5265738499110359
 21
20.92710415652666
 31
0.0
  0
LINE
  5
960
330
943
100
AcDbEntity
  8
Dem
 62
     0
370
    -2
100
AcDbLine
 10
2.548426150088964
 20
20.92710415652666
 30
0.0
 11
-0.0165738499110358
 21
20.92710415652666
 31
0.0
  0
SOLID
  5
961
330
943
100
AcDbEntity
  8
Dem
 62
     0
100
AcDbTrace
 10
-3.091573849911035
 20
20.95710415652666
 30
0.0
 11
-3.091573849911035
 21
20.89710415652666
 31
0.0
 12
-3.271573849911035
 22
20.92710415652666
 32
0.0
 13
-3.271573849911035
 23
20.92710415652666
 33
0.0
  0
SOLID
  5
962
330
943
100
AcDbEntity
  8
Dem
 62
     0
100
AcDbTrace
 10
2.548426150088964
 20
20.95710415652666
 30
0.0
 11
2.548426150088964
 21
20.89710415652666
 31
0.0
 12
2.728426150088964
 22
20.92710415652666
 32
0.0
 13
2.728426150088964
 23
20.92710415652666
 33
0.0
  0
MTEXT
  5
963
330
943
100
AcDbEntity
  8
Dem
 62
     0
100
AcDbMText
 10
-0.2715738499110358
 20
20.92710415652666
 30
0.0
 40
0.18
 41
0.0
 71
     5
 72
     1
  1
\A1;6.0
 73
     1
 44
1.0
  0
POINT
  5
964
330
943
100
AcDbEntity
  8
Defpoints
 62
     0
100
AcDbPoint
 10
-3.271573849911035
 20
18.59714833481993
 30
0.0
  0
POINT
  5
965
330
943
100
AcDbEntity
  8
Defpoints
 62
     0
100
AcDbPoint
 10
2.728426150088964
 20
18.59714833481993
 30
0.0
  0
POINT
  5
966
330
943
100
AcDbEntity
  8
Defpoints
 62
     0
100
AcDbPoint
 10
2.728426150088964
 20
20.92710415652666
 30
0.0
  0
ENDBLK
  5
94F
330
943
100
AcDbEntity
  8
0
100
AcDbBlockEnd
  0
BLOCK
  5
972
330
967
100
AcDbEntity
  8
0
100
AcDbBlockBegin
  2
*D16
 70
     1
 10
0.0
 20
0.0
 30
0.0
  3
*D16
  1

  0
LINE
  5
968
330
967
100
AcDbEntity
  8
Dem
 62
     0
370
    -2
100
AcDbLine
 10
-3.334073849911035
 20
18.59714833481993
 30
0.0
 11
-4.766007527502814
 21
18.59714833481993
 31
0.0
  0
LINE
  5
969
330
967
100
AcDbEntity
  8
Dem
 62
     0
370
    -2
100
AcDbLine
 10
-2.834073849911035
 20
18.09714833481993
 30
0.0
 11
-4.766007527502814
 21
18.09714833481993
 31
0.0
  0
LINE
  5
96A
330
967
100
AcDbEntity
  8
Dem
 62
     0
370
    -2
100
AcDbLine
 10
-4.586007527502815
 20
18.77714833481993
 30
0.0
 11
-4.586007527502815
 21
18.95714833481993
 31
0.0
  0
LINE
  5
96B
330
967
100
AcDbEntity
  8
Dem
 62
     0
370
    -2
100
AcDbLine
 10
-4.586007527502816
 20
17.91714833481993
 30
0.0
 11
-4.586007527502816
 21
17.73714833481993
 31
0.0
  0
SOLID
  5
96C
330
967
100
AcDbEntity
  8
Dem
 62
     0
100
AcDbTrace
 10
-4.616007527502815
 20
18.77714833481993
 30
0.0
 11
-4.556007527502814
 21
18.77714833481993
 31
0.0
 12
-4.586007527502815
 22
18.59714833481993
 32
0.0
 13
-4.586007527502815
 23
18.59714833481993
 33
0.0
  0
SOLID
  5
96D
330
967
100
AcDbEntity
  8
Dem
 62
     0
100
AcDbTrace
 10
-4.616007527502816
 20
17.91714833481993
 30
0.0
 11
-4.556007527502815
 21
17.91714833481993
 31
0.0
 12
-4.586007527502815
 22
18.09714833481993
 32
0.0
 13
-4.586007527502815
 23
18.09714833481993
 33
0.0
  0
MTEXT
  5
96E
330
967
100
AcDbEntity
  8
Dem
 62
     0
100
AcDbMText
 10
-4.586007527502818
 20
18.34714833481993
 30
0.0
 40
0.18
 41
0.0
 71
     5
 72
     1
  1
\A1;0.5
 73
     1
 44
1.0
  0
POINT
  5
96F
330
967
100
AcDbEntity
  8
Defpoints
 62
     0
100
AcDbPoint
 10
-3.271573849911035
 20
18.59714833481993
 30
0.0
  0
POINT
  5
970
330
967
100
AcDbEntity
  8
Defpoints
 62
     0
100
AcDbPoint
 10
-2.771573849911035
 20
18.09714833481993
 30
0.0
  0
POINT
  5
971
330
967
100
AcDbEntity
  8
Defpoints
 62
     0
100
AcDbPoint
 10
-4.586007527502815
 20
18.09714833481993
 30
0.0
  0
ENDBLK
  5
973
330
967
100
AcDbEntity
  8
0
100
AcDbBlockEnd
  0
BLOCK
  5
97F
330
974
100
AcDbEntity
  8
0
100
AcDbBlockBegin
  2
*D17
 70
     1
 10
0.0
 20
0.0
 30
0.0
  3
*D17
  1

  0
LINE
  5
975
330
974
100
AcDbEntity
  8
Dem
 62
     0
370
    -2
100
AcDbLine
 10
-2.771573849911035
 20
18.15964833481993
 30
0.0
 11
-2.771573849911035
 21
19.77911279169477
 31
0.0
  0
LINE
  5
976
330
974
100
AcDbEntity
  8
Dem
 62
     0
370
    -2
100
AcDbLine
 10
-3.271573849911035
 20
18.65964833481993
 30
0.0
 11
-3.271573849911035
 21
19.77911279169477
 31
0.0
  0
LINE
  5
977
330
974
100
AcDbEntity
  8
Dem
 62
     0
370
    -2
100
AcDbLine
 10
-2.591573849911035
 20
19.59911279169477
 30
0.0
 11
-2.411573849911035
 21
19.59911279169477
 31
0.0
  0
LINE
  5
978
330
974
100
AcDbEntity
  8
Dem
 62
     0
370
    -2
100
AcDbLine
 10
-3.451573849911035
 20
19.59911279169477
 30
0.0
 11
-3.631573849911036
 21
19.59911279169477
 31
0.0
  0
SOLID
  5
979
330
974
100
AcDbEntity
  8
Dem
 62
     0
100
AcDbTrace
 10
-2.591573849911035
 20
19.62911279169478
 30
0.0
 11
-2.591573849911035
 21
19.56911279169477
 31
0.0
 12
-2.771573849911035
 22
19.59911279169477
 32
0.0
 13
-2.771573849911035
 23
19.59911279169477
 33
0.0
  0
SOLID
  5
97A
330
974
100
AcDbEntity
  8
Dem
 62
     0
100
AcDbTrace
 10
-3.451573849911035
 20
19.62911279169478
 30
0.0
 11
-3.451573849911035
 21
19.56911279169477
 31
0.0
 12
-3.271573849911035
 22
19.59911279169477
 32
0.0
 13
-3.271573849911035
 23
19.59911279169477
 33
0.0
  0
MTEXT
  5
97B
330
974
100
AcDbEntity
  8
Dem
 62
     0
100
AcDbMText
 10
-3.886573849911036
 20
19.59911279169477
 30
0.0
 40
0.18
 41
0.0
 71
     5
 72
     1
  1
\A1;0.5
 73
     1
 44
1.0
  0
POINT
  5
97C
330
974
100
AcDbEntity
  8
Defpoints
 62
     0
100
AcDbPoint
 10
-2.771573849911035
 20
18.09714833481993
 30
0.0
  0
POINT
  5
97D
330
974
100
AcDbEntity
  8
Defpoints
 62
     0
100
AcDbPoint
 10
-3.271573849911035
 20
18.59714833481993
 30
0.0
  0
POINT
  5
97E
330
974
100
AcDbEntity
  8
Defpoints
 62
     0
100
AcDbPoint
 10
-3.271573849911035
 20
19.59911279169477
 30
0.0
  0
ENDBLK
  5
980
330
974
100
AcDbEntity
  8
0
100
AcDbBlockEnd
  0
BLOCK
  5
9A3
330
998
100
AcDbEntity
  8
0
100
AcDbBlockBegin
  2
*D19
 70
     1
 10
0.0
 20
0.0
 30
0.0
  3
*D19
  1

  0
LINE
  5
9D5
330
998
100
AcDbEntity
  8
Dem
 62
     0
370
    -2
100
AcDbLine
 10
-0.2090738499110349
 20
14.09714833481993
 30
0.0
 11
4.490148193568638
 21
14.09714833481993
 31
0.0
  0
LINE
  5
9D6
330
998
100
AcDbEntity
  8
Dem
 62
     0
370
    -2
100
AcDbLine
 10
2.790926150088964
 20
12.59714833481993
 30
0.0
 11
4.490148193568636
 21
12.59714833481993
 31
0.0
  0
LINE
  5
9D7
330
998
100
AcDbEntity
  8
Dem
 62
     0
370
    -2
100
AcDbLine
 10
4.310148193568636
 20
13.91714833481993
 30
0.0
 11
4.310148193568636
 21
13.52714833481993
 31
0.0
  0
LINE
  5
9D8
330
998
100
AcDbEntity
  8
Dem
 62
     0
370
    -2
100
AcDbLine
 10
4.310148193568636
 20
12.77714833481993
 30
0.0
 11
4.310148193568636
 21
13.16714833481993
 31
0.0
  0
SOLID
  5
9D9
330
998
100
AcDbEntity
  8
Dem
 62
     0
100
AcDbTrace
 10
4.280148193568636
 20
13.91714833481993
 30
0.0
 11
4.340148193568636
 21
13.91714833481993
 31
0.0
 12
4.310148193568637
 22
14.09714833481993
 32
0.0
 13
4.310148193568637
 23
14.09714833481993
 33
0.0
  0
SOLID
  5
9DA
330
998
100
AcDbEntity
  8
Dem
 62
     0
100
AcDbTrace
 10
4.280148193568636
 20
12.77714833481993
 30
0.0
 11
4.340148193568636
 21
12.77714833481993
 31
0.0
 12
4.310148193568636
 22
12.59714833481993
 32
0.0
 13
4.310148193568636
 23
12.59714833481993
 33
0.0
  0
MTEXT
  5
9DB
330
998
100
AcDbEntity
  8
Dem
 62
     0
100
AcDbMText
 10
4.310148193568634
 20
13.34714833481993
 30
0.0
 40
0.18
 41
0.0
 71
     5
 72
     1
  1
\A1;1.5
 73
     1
 44
1.0
  0
POINT
  5
9DC
330
998
100
AcDbEntity
  8
Defpoints
 62
     0
100
AcDbPoint
 10
-0.2715738499110349
 20
14.09714833481993
 30
0.0
  0
POINT
  5
9DD
330
998
100
AcDbEntity
  8
Defpoints
 62
     0
100
AcDbPoint
 10
2.728426150088964
 20
12.59714833481993
 30
0.0
  0
POINT
  5
9DE
330
998
100
AcDbEntity
  8
Defpoints
 62
     0
100
AcDbPoint
 10
4.310148193568636
 20
12.59714833481993
 30
0.0
  0
ENDBLK
  5
9A4
330
998
100
AcDbEntity
  8
0
100
AcDbBlockEnd
  0
BLOCK
  5
9BD
330
9B2
100
AcDbEntity
  8
0
100
AcDbBlockBegin
  2
*D20
 70
     1
 10
0.0
 20
0.0
 30
0.0
  3
*D20
  1

  0
LINE
  5
9CB
330
9B2
100
AcDbEntity
  8
Dem
 62
     0
370
    -2
100
AcDbLine
 10
-0.2715738499110349
 20
13.94464833481993
 30
0.0
 11
-0.2715738499110351
 21
11.01123187881213
 31
0.0
  0
LINE
  5
9CC
330
9B2
100
AcDbEntity
  8
Dem
 62
     0
370
    -2
100
AcDbLine
 10
2.728426150088964
 20
12.53464833481993
 30
0.0
 11
2.728426150088964
 21
11.01123187881213
 31
0.0
  0
LINE
  5
9CD
330
9B2
100
AcDbEntity
  8
Dem
 62
     0
370
    -2
100
AcDbLine
 10
-0.0915738499110351
 20
11.19123187881213
 30
0.0
 11
0.9734261500889644
 21
11.19123187881213
 31
0.0
  0
LINE
  5
9CE
330
9B2
100
AcDbEntity
  8
Dem
 62
     0
370
    -2
100
AcDbLine
 10
2.548426150088964
 20
11.19123187881213
 30
0.0
 11
1.483426150088964
 21
11.19123187881213
 31
0.0
  0
SOLID
  5
9CF
330
9B2
100
AcDbEntity
  8
Dem
 62
     0
100
AcDbTrace
 10
-0.0915738499110351
 20
11.22123187881213
 30
0.0
 11
-0.0915738499110351
 21
11.16123187881213
 31
0.0
 12
-0.2715738499110351
 22
11.19123187881213
 32
0.0
 13
-0.2715738499110351
 23
11.19123187881213
 33
0.0
  0
SOLID
  5
9D0
330
9B2
100
AcDbEntity
  8
Dem
 62
     0
100
AcDbTrace
 10
2.548426150088964
 20
11.22123187881213
 30
0.0
 11
2.548426150088964
 21
11.16123187881213
 31
0.0
 12
2.728426150088964
 22
11.19123187881213
 32
0.0
 13
2.728426150088964
 23
11.19123187881213
 33
0.0
  0
MTEXT
  5
9D1
330
9B2
100
AcDbEntity
  8
Dem
 62
     0
100
AcDbMText
 10
1.228426150088964
 20
11.19123187881213
 30
0.0
 40
0.18
 41
0.0
 71
     5
 72
     1
  1
\A1;3.0
 73
     1
 44
1.0
  0
POINT
  5
9D2
330
9B2
100
AcDbEntity
  8
Defpoints
 62
     0
100
AcDbPoint
 10
-0.2715738499110349
 20
14.00714833481993
 30
0.0
  0
POINT
  5
9D3
330
9B2
100
AcDbEntity
  8
Defpoints
 62
     0
100
AcDbPoint
 10
2.728426150088964
 20
12.59714833481993
 30
0.0
  0
POINT
  5
9D4
330
9B2
100
AcDbEntity
  8
Defpoints
 62
     0
100
AcDbPoint
 10
2.728426150088964
 20
11.19123187881213
 30
0.0
  0
ENDBLK
  5
9BE
330
9B2
100
AcDbEntity
  8
0
100
AcDbBlockEnd
  0
BLOCK
  5
9F3
330
9E8
100
AcDbEntity
  8
0
100
AcDbBlockBegin
  2
*D21
 70
     1
 10
0.0
 20
0.0
 30
0.0
  3
*D21
  1

  0
LINE
  5
A25
330
9E8
100
AcDbEntity
  8
Dem
 62
     0
370
    -2
100
AcDbLine
 10
2.290926150088964
 20
18.09714833481993
 30
0.0
 11
3.550359015846816
 21
18.09714833481993
 31
0.0
  0
LINE
  5
A26
330
9E8
100
AcDbEntity
  8
Dem
 62
     0
370
    -2
100
AcDbLine
 10
2.290926150088964
 20
17.09714833481993
 30
0.0
 11
3.550359015846816
 21
17.09714833481993
 31
0.0
  0
LINE
  5
A27
330
9E8
100
AcDbEntity
  8
Dem
 62
     0
370
    -2
100
AcDbLine
 10
3.370359015846815
 20
17.91714833481993
 30
0.0
 11
3.370359015846815
 21
17.77714833481993
 31
0.0
  0
LINE
  5
A28
330
9E8
100
AcDbEntity
  8
Dem
 62
     0
370
    -2
100
AcDbLine
 10
3.370359015846815
 20
17.27714833481993
 30
0.0
 11
3.370359015846815
 21
17.41714833481993
 31
0.0
  0
SOLID
  5
A29
330
9E8
100
AcDbEntity
  8
Dem
 62
     0
100
AcDbTrace
 10
3.340359015846816
 20
17.91714833481993
 30
0.0
 11
3.400359015846815
 21
17.91714833481993
 31
0.0
 12
3.370359015846815
 22
18.09714833481993
 32
0.0
 13
3.370359015846815
 23
18.09714833481993
 33
0.0
  0
SOLID
  5
A2A
330
9E8
100
AcDbEntity
  8
Dem
 62
     0
100
AcDbTrace
 10
3.340359015846816
 20
17.27714833481993
 30
0.0
 11
3.400359015846815
 21
17.27714833481993
 31
0.0
 12
3.370359015846815
 22
17.09714833481993
 32
0.0
 13
3.370359015846815
 23
17.09714833481993
 33
0.0
  0
MTEXT
  5
A2B
330
9E8
100
AcDbEntity
  8
Dem
 62
     0
100
AcDbMText
 10
3.370359015846812
 20
17.59714833481993
 30
0.0
 40
0.18
 41
0.0
 71
     5
 72
     1
  1
\A1;1.0
 73
     1
 44
1.0
  0
POINT
  5
A2C
330
9E8
100
AcDbEntity
  8
Defpoints
 62
     0
100
AcDbPoint
 10
2.228426150088964
 20
18.09714833481993
 30
0.0
  0
POINT
  5
A2D
330
9E8
100
AcDbEntity
  8
Defpoints
 62
     0
100
AcDbPoint
 10
2.228426150088964
 20
17.09714833481993
 30
0.0
  0
POINT
  5
A2E
330
9E8
100
AcDbEntity
  8
Defpoints
 62
     0
100
AcDbPoint
 10
3.370359015846815
 20
17.09714833481993
 30
0.0
  0
ENDBLK
  5
9F4
330
9E8
100
AcDbEntity
  8
0
100
AcDbBlockEnd
  0
BLOCK
  5
A0D
330
A02
100
AcDbEntity
  8
0
100
AcDbBlockBegin
  2
*D22
 70
     1
 10
0.0
 20
0.0
 30
0.0
  3
*D22
  1

  0
LINE
  5
A1B
330
A02
100
AcDbEntity
  8
Dem
 62
     0
370
    -2
100
AcDbLine
 10
2.228426150088964
 20
18.15964833481993
 30
0.0
 11
2.228426150088964
 21
19.54759449638213
 31
0.0
  0
LINE
  5
A1C
330
A02
100
AcDbEntity
  8
Dem
 62
     0
370
    -2
100
AcDbLine
 10
1.228426150088964
 20
18.15964833481993
 30
0.0
 11
1.228426150088964
 21
19.54759449638213
 31
0.0
  0
LINE
  5
A1D
330
A02
100
AcDbEntity
  8
Dem
 62
     0
370
    -2
100
AcDbLine
 10
2.048426150088964
 20
19.36759449638214
 30
0.0
 11
1.953426150088964
 21
19.36759449638214
 31
0.0
  0
LINE
  5
A1E
330
A02
100
AcDbEntity
  8
Dem
 62
     0
370
    -2
100
AcDbLine
 10
1.408426150088964
 20
19.36759449638214
 30
0.0
 11
1.503426150088964
 21
19.36759449638214
 31
0.0
  0
SOLID
  5
A1F
330
A02
100
AcDbEntity
  8
Dem
 62
     0
100
AcDbTrace
 10
2.048426150088964
 20
19.39759449638214
 30
0.0
 11
2.048426150088964
 21
19.33759449638214
 31
0.0
 12
2.228426150088964
 22
19.36759449638214
 32
0.0
 13
2.228426150088964
 23
19.36759449638214
 33
0.0
  0
SOLID
  5
A20
330
A02
100
AcDbEntity
  8
Dem
 62
     0
100
AcDbTrace
 10
1.408426150088964
 20
19.39759449638214
 30
0.0
 11
1.408426150088964
 21
19.33759449638214
 31
0.0
 12
1.228426150088964
 22
19.36759449638214
 32
0.0
 13
1.228426150088964
 23
19.36759449638214
 33
0.0
  0
MTEXT
  5
A21
330
A02
100
AcDbEntity
  8
Dem
 62
     0
100
AcDbMText
 10
1.728426150088964
 20
19.36759449638214
 30
0.0
 40
0.18
 41
0.0
 71
     5
 72
     1
  1
\A1;1.0
 73
     1
 44
1.0
  0
POINT
  5
A22
330
A02
100
AcDbEntity
  8
Defpoints
 62
     0
100
AcDbPoint
 10
2.228426150088964
 20
18.09714833481993
 30
0.0
  0
POINT
  5
A23
330
A02
100
AcDbEntity
  8
Defpoints
 62
     0
100
AcDbPoint
 10
1.228426150088964
 20
18.09714833481993
 30
0.0
  0
POINT
  5
A24
330
A02
100
AcDbEntity
  8
Defpoints
 62
     0
100
AcDbPoint
 10
1.228426150088964
 20
19.36759449638214
 30
0.0
  0
ENDBLK
  5
A0E
330
A02
100
AcDbEntity
  8
0
100
AcDbBlockEnd
  0
BLOCK
  5
A55
330
A4A
100
AcDbEntity
  8
0
100
AcDbBlockBegin
  2
*D23
 70
     1
 10
0.0
 20
0.0
 30
0.0
  3
*D23
  1

  0
LINE
  5
A63
330
A4A
100
AcDbEntity
  8
Dem
 62
     0
370
    -2
100
AcDbLine
 10
15.03449655200009
 20
16.41483429271197
 30
0.0
 11
15.03449655200009
 21
17.05997029677318
 31
0.0
  0
LINE
  5
A64
330
A4A
100
AcDbEntity
  8
Dem
 62
     0
370
    -2
100
AcDbLine
 10
20.03449655200009
 20
16.41483429271197
 30
0.0
 11
20.03449655200009
 21
17.05997029677318
 31
0.0
  0
LINE
  5
A65
330
A4A
100
AcDbEntity
  8
Dem
 62
     0
370
    -2
100
AcDbLine
 10
15.21449655200009
 20
16.87997029677318
 30
0.0
 11
17.27949655200009
 21
16.87997029677318
 31
0.0
  0
LINE
  5
A66
330
A4A
100
AcDbEntity
  8
Dem
 62
     0
370
    -2
100
AcDbLine
 10
19.85449655200009
 20
16.87997029677318
 30
0.0
 11
17.78949655200009
 21
16.87997029677318
 31
0.0
  0
SOLID
  5
A67
330
A4A
100
AcDbEntity
  8
Dem
 62
     0
100
AcDbTrace
 10
15.21449655200009
 20
16.90997029677318
 30
0.0
 11
15.21449655200009
 21
16.84997029677318
 31
0.0
 12
15.03449655200009
 22
16.87997029677318
 32
0.0
 13
15.03449655200009
 23
16.87997029677318
 33
0.0
  0
SOLID
  5
A68
330
A4A
100
AcDbEntity
  8
Dem
 62
     0
100
AcDbTrace
 10
19.85449655200009
 20
16.90997029677318
 30
0.0
 11
19.85449655200009
 21
16.84997029677318
 31
0.0
 12
20.03449655200009
 22
16.87997029677318
 32
0.0
 13
20.03449655200009
 23
16.87997029677318
 33
0.0
  0
MTEXT
  5
A69
330
A4A
100
AcDbEntity
  8
Dem
 62
     0
100
AcDbMText
 10
17.53449655200009
 20
16.87997029677318
 30
0.0
 40
0.18
 41
0.0
 71
     5
 72
     1
  1
\A1;5.0
 73
     1
 44
1.0
  0
POINT
  5
A6A
330
A4A
100
AcDbEntity
  8
Defpoints
 62
     0
100
AcDbPoint
 10
15.03449655200009
 20
16.35233429271197
 30
0.0
  0
POINT
  5
A6B
330
A4A
100
AcDbEntity
  8
Defpoints
 62
     0
100
AcDbPoint
 10
20.03449655200009
 20
16.35233429271197
 30
0.0
  0
POINT
  5
A6C
330
A4A
100
AcDbEntity
  8
Defpoints
 62
     0
100
AcDbPoint
 10
20.03449655200009
 20
16.87997029677318
 30
0.0
  0
ENDBLK
  5
A56
330
A4A
100
AcDbEntity
  8
0
100
AcDbBlockEnd
  0
BLOCK
  5
A90
330
A87
100
AcDbEntity
  8
0
100
AcDbBlockBegin
  2
*D24
 70
     1
 10
0.0
 20
0.0
 30
0.0
  3
*D24
  1

  0
LINE
  5
A9C
330
A87
100
AcDbEntity
  8
Dem
 62
     0
370
    -2
100
AcDbLine
 10
1.139148609877881
 20
15.60287456485018
 30
0.0
 11
0.7341486098778783
 21
15.60287456485018
 31
0.0
  0
LINE
  5
A9D
330
A87
100
AcDbEntity
  8
Dem
 62
     0
370
    -2
100
AcDbLine
 10
0.7341486098778783
 20
15.60287456485018
 30
0.0
 11
0.5226886619093128
 21
15.28628544311183
 31
0.0
  0
MTEXT
  5
A9E
330
A87
100
AcDbEntity
  8
Dem
 62
     0
100
AcDbMText
 10
1.49914860987788
 20
15.60287456485018
 30
0.0
 40
0.18
 41
0.0
 71
     5
 72
     1
  1
\A1;\U+22052.5
 73
     1
 44
1.0
  0
SOLID
  5
A9F
330
A87
100
AcDbEntity
  8
Dem
 62
     0
100
AcDbTrace
 10
0.4977417295675251
 20
15.30294829301016
 30
0.0
 11
0.5476355942511005
 21
15.26962259321351
 31
0.0
 12
0.4227115625193392
 22
15.13660384906111
 32
0.0
 13
0.4227115625193392
 23
15.13660384906111
 33
0.0
  0
LINE
  5
AA0
330
A87
100
AcDbEntity
  8
Dem
 62
     0
370
    -2
100
AcDbLine
 10
-0.3615738499110348
 20
14.09714833481993
 30
0.0
 11
-0.1815738499110351
 21
14.09714833481993
 31
0.0
  0
LINE
  5
AA1
330
A87
100
AcDbEntity
  8
Dem
 62
     0
370
    -2
100
AcDbLine
 10
-0.2715738499110349
 20
14.00714833481993
 30
0.0
 11
-0.2715738499110341
 21
14.18714833481993
 31
0.0
  0
POINT
  5
AA2
330
A87
100
AcDbEntity
  8
Defpoints
 62
     0
100
AcDbPoint
 10
0.4227115625193392
 20
15.13660384906111
 30
0.0
  0
POINT
  5
AA3
330
A87
100
AcDbEntity
  8
Defpoints
 62
     0
100
AcDbPoint
 10
-0.9658592623414108
 20
13.05769282057875
 30
0.0
  0
ENDBLK
  5
A91
330
A87
100
AcDbEntity
  8
0
100
AcDbBlockEnd
  0
ENDSEC
  0
SECTION
  2
ENTITIES
  0
LWPOLYLINE
  5
B7
102
{ACAD_REACTORS
330
4D2
102
}
330
1F
100
AcDbEntity
  8
0
  6
DASHED2
 62
     1
100
AcDbPolyline
 90
        4
 70
     1
 43
0.0
 10
16.03449655200009
 20
15.60233429271197
 10
15.03449655200009
 20
15.60233429271197
 10
15.03449655200009
 20
16.10233429271197
 10
16.03449655200009
 20
16.10233429271197
  0
LWPOLYLINE
  5
B8
102
{ACAD_REACTORS
330
4D3
102
}
330
1F
100
AcDbEntity
  8
0
  6
DASHED2
 62
     1
100
AcDbPolyline
 90
        4
 70
     1
 43
0.0
 10
19.03449655200009
 20
15.60233429271197
 10
20.03449655200009
 20
15.60233429271197
 10
20.03449655200009
 20
16.10233429271197
 10
19.03449655200009
 20
16.10233429271197
  0
LINE
  5
CA
102
{ACAD_REACTORS
330
4D3
330
501
102
}
330
1F
100
AcDbEntity
  8
0
  6
DASHED2
 62
     1
100
AcDbLine
 10
20.53449655200009
 20
15.85233429271197
 30
0.0
 11
18.53449655200009
 21
15.85233429271197
 31
0.0
  0
LINE
  5
CB
102
{ACAD_REACTORS
330
4D2
102
}
330
1F
100
AcDbEntity
  8
0
  6
DASHED2
 62
     1
100
AcDbLine
 10
16.53449655200009
 20
15.85233429271197
 30
0.0
 11
14.53449655200009
 21
15.85233429271197
 31
0.0
  0
LINE
  5
F4
102
{ACAD_REACTORS
330
4D3
102
}
330
1F
100
AcDbEntity
  8
0
  6
DASHED2
 62
     3
100
AcDbLine
 10
19.03449655200009
 20
16.35233429271197
 30
0.0
 11
20.03449655200009
 21
16.35233429271197
 31
0.0
  0
LINE
  5
F5
102
{ACAD_REACTORS
330
4D3
102
}
330
1F
100
AcDbEntity
  8
0
  6
DASHED2
 62
     3
100
AcDbLine
 10
19.03449655200009
 20
15.35233429271197
 30
0.0
 11
20.03449655200009
 21
15.35233429271197
 31
0.0
  0
LINE
  5
F6
102
{ACAD_REACTORS
330
4D2
102
}
330
1F
100
AcDbEntity
  8
0
  6
DASHED2
 62
     3
100
AcDbLine
 10
16.03449655200009
 20
16.35233429271197
 30
0.0
 11
15.03449655200009
 21
16.35233429271197
 31
0.0
  0
LINE
  5
F7
102
{ACAD_REACTORS
330
4D2
102
}
330
1F
100
AcDbEntity
  8
0
  6
DASHED2
 62
     3
100
AcDbLine
 10
16.03449655200009
 20
15.35233429271197
 30
0.0
 11
15.03449655200009
 21
15.35233429271197
 31
0.0
  0
LWPOLYLINE
  5
22D
330
1F
100
AcDbEntity
  8
0
100
AcDbPolyline
 90
        4
 70
     1
 43
0.0
 10
17.03449655200009
 20
-2.783949667925668
 10
18.03449655200009
 20
-2.783949667925668
 10
18.03449655200009
 20
-3.783949667925668
 10
17.03449655200009
 20
-3.783949667925668
  0
LWPOLYLINE
  5
234
330
1F
100
AcDbEntity
  8
0
 62
     3
100
AcDbPolyline
 90
        4
 70
     1
 43
0.0
 10
15.03449655200008
 20
-4.783949667925668
 10
16.03449655200009
 20
-4.783949667925668
 10
16.03449655200009
 20
-5.783949667925668
 10
15.03449655200008
 20
-5.783949667925668
  0
LWPOLYLINE
  5
235
330
1F
100
AcDbEntity
  8
0
 62
     3
100
AcDbPolyline
 90
        4
 70
     1
 43
0.0
 10
19.03449655200009
 20
-4.783949667925668
 10
20.03449655200009
 20
-4.783949667925668
 10
20.03449655200009
 20
-5.783949667925668
 10
19.03449655200009
 20
-5.783949667925668
  0
LINE
  5
237
330
1F
100
AcDbEntity
  8
0
  6
DASHED2
 62
     3
100
AcDbLine
 10
19.03449655200009
 20
-5.533949667925668
 30
0.0
 11
20.03449655200009
 21
-5.533949667925668
 31
0.0
  0
LINE
  5
238
330
1F
100
AcDbEntity
  8
0
  6
DASHED2
 62
     3
100
AcDbLine
 10
15.03449655200008
 20
-5.533949667925668
 30
0.0
 11
16.03449655200009
 21
-5.533949667925668
 31
0.0
  0
LINE
  5
240
102
{ACAD_REACTORS
330
54E
102
}
330
1F
100
AcDbEntity
  8
0
 62
     3
100
AcDbLine
 10
33.64628989809168
 20
16.35233429271197
 30
0.0
 11
33.39628989809168
 21
15.85233429271197
 31
0.0
  0
LINE
  5
241
102
{ACAD_REACTORS
330
54E
102
}
330
1F
100
AcDbEntity
  8
0
 62
     3
100
AcDbLine
 10
33.39628989809168
 20
15.85233429271197
 30
0.0
 11
33.64628989809168
 21
15.35233429271197
 31
0.0
  0
LINE
  5
242
102
{ACAD_REACTORS
330
54E
102
}
330
1F
100
AcDbEntity
  8
0
 62
     3
100
AcDbLine
 10
33.64628989809168
 20
15.35233429271197
 30
0.0
 11
32.64628989809168
 21
15.35233429271197
 31
0.0
  0
LINE
  5
243
330
1F
100
AcDbEntity
  8
0
 62
     3
100
AcDbLine
 10
32.64628989809168
 20
13.85233429271197
 30
0.0
 11
32.64628989809168
 21
14.85233429271197
 31
0.0
  0
LINE
  5
244
102
{ACAD_REACTORS
330
54E
102
}
330
1F
100
AcDbEntity
  8
0
 62
     3
100
AcDbLine
 10
32.64628989809168
 20
16.35233429271197
 30
0.0
 11
33.64628989809168
 21
16.35233429271197
 31
0.0
  0
LWPOLYLINE
  5
245
330
1F
100
AcDbEntity
  8
0
 62
     1
100
AcDbPolyline
 90
        4
 70
     1
 43
0.0
 10
33.39628989809168
 20
15.85233429271197
 10
33.74984328868495
 20
15.49878090211869
 10
34.10339667927823
 20
15.85233429271196
 10
33.74984328868495
 20
16.20588768330524
  0
LINE
  5
24B
330
1F
100
AcDbEntity
  8
0
 62
     1
100
AcDbLine
 10
33.85339667927823
 20
16.10233429271197
 30
0.0
 11
34.85339667927823
 21
16.10233429271197
 31
0.0
  0
LINE
  5
24C
330
1F
100
AcDbEntity
  8
0
100
AcDbLine
 10
34.85339667927823
 20
15.60233429271197
 30
0.0
 11
34.85339667927823
 21
15.10233429271196
 31
0.0
  0
LINE
  5
24D
330
1F
100
AcDbEntity
  8
0
 62
     1
100
AcDbLine
 10
34.85339667927823
 20
15.60233429271197
 30
0.0
 11
33.85339667927823
 21
15.60233429271197
 31
0.0
  0
LINE
  5
2CC
102
{ACAD_REACTORS
330
4D3
102
}
330
1F
100
AcDbEntity
  8
0
  6
DASHED2
 62
     3
100
AcDbLine
 10
20.03449655200009
 20
16.35233429271197
 30
0.0
 11
19.03449655200009
 21
16.35233429271197
 31
0.0
  0
LINE
  5
2DA
330
1F
100
AcDbEntity
  8
0
 62
     3
100
AcDbLine
 10
15.03449655200009
 20
14.85233429271197
 30
0.0
 11
15.03449655200009
 21
11.85233429271197
 31
0.0
  0
LINE
  5
2EB
330
1F
100
AcDbEntity
  8
0
 62
     3
100
AcDbLine
 10
20.03449655200009
 20
11.85233429271197
 30
0.0
 11
20.03449655200009
 21
14.85233429271197
 31
0.0
  0
LINE
  5
446
330
1F
100
AcDbEntity
  8
0
 62
     3
100
AcDbLine
 10
15.03449655200009
 20
14.85233429271197
 30
0.0
 11
15.03449655200009
 21
15.85233429271197
 31
0.0
  0
LINE
  5
448
330
1F
100
AcDbEntity
  8
0
 62
     3
100
AcDbLine
 10
20.03449655200009
 20
15.85233429271197
 30
0.0
 11
20.03449655200009
 21
14.85233429271197
 31
0.0
  0
LWPOLYLINE
  5
483
102
{ACAD_REACTORS
330
49E
102
}
330
1F
100
AcDbEntity
  8
0
 62
     1
100
AcDbPolyline
 90
        4
 70
     1
 43
0.0
 10
34.85339667927823
 20
13.85233429271196
 10
38.85339667927823
 20
13.85233429271196
 10
38.85339667927823
 20
16.85233429271197
 10
34.85339667927823
 20
16.85233429271197
  0
DIMENSION
  5
485
102
{ACAD_XDICTIONARY
360
493
102
}
102
{ACAD_REACTORS
330
49E
102
}
330
1F
100
AcDbEntity
  8
Dem
100
AcDbDimension
  2
*D1
 10
38.85339667927823
 20
12.11419018512342
 30
0.0
 11
36.85339667927823
 21
12.11419018512342
 31
0.0
 70
    32
 71
     5
 42
4.0
  3
Standard
100
AcDbAlignedDimension
 13
34.85339667927823
 23
13.85233429271196
 33
0.0
 14
38.85339667927823
 24
13.85233429271196
 34
0.0
100
AcDbRotatedDimension
1001
ACAD
1000
DSTYLE
1002
{
1070
   271
1070
     1
1002
}
  0
LWPOLYLINE
  5
4D6
102
{ACAD_REACTORS
330
5B1
330
70C
330
A62
102
}
330
1F
100
AcDbEntity
  8
Dem
  6
DASHED2
100
AcDbPolyline
 90
        4
 70
     1
 43
0.0
 10
15.03449655200009
 20
12.85233429271197
 10
16.03449655200009
 20
12.85233429271197
 10
16.03449655200009
 20
16.35233429271197
 10
15.03449655200009
 20
16.35233429271197
  0
LWPOLYLINE
  5
4D7
102
{ACAD_REACTORS
330
A62
102
}
330
1F
100
AcDbEntity
  8
Dem
  6
DASHED2
100
AcDbPolyline
 90
        4
 70
     1
 43
0.0
 10
20.03449655200009
 20
12.85233429271197
 10
19.03449655200009
 20
12.85233429271197
 10
19.03449655200009
 20
16.35233429271197
 10
20.03449655200009
 20
16.35233429271197
  0
LWPOLYLINE
  5
4D8
102
{ACAD_REACTORS
330
5B1
330
5D5
330
637
330
70C
102
}
330
1F
100
AcDbEntity
  8
Dem
100
AcDbPolyline
 90
        4
 70
     1
 43
0.0
 10
15.03449655200009
 20
12.85233429271197
 10
20.03449655200009
 20
12.85233429271197
 10
20.03449655200009
 20
10.85233429271197
 10
15.03449655200009
 20
10.85233429271197
  0
LINE
  5
4D9
330
1F
100
AcDbEntity
  8
Dem
  6
DASHED2
 62
     3
100
AcDbLine
 10
16.03449655200009
 20
15.35233429271197
 30
0.0
 11
16.03449655200009
 21
16.35233429271197
 31
0.0
  0
LINE
  5
4DA
330
1F
100
AcDbEntity
  8
Dem
  6
DASHED2
 62
     3
100
AcDbLine
 10
19.03449655200009
 20
15.35233429271197
 30
0.0
 11
19.03449655200009
 21
16.35233429271197
 31
0.0
  0
CIRCLE
  5
4E2
102
{ACAD_REACTORS
330
730
330
754
102
}
330
1F
100
AcDbEntity
  8
Dem
100
AcDbCircle
 10
15.03449655200009
 20
18.35233429271197
 30
0.0
 40
0.125
  0
CIRCLE
  5
4E3
330
1F
100
AcDbEntity
  8
Dem
100
AcDbCircle
 10
16.03449655200009
 20
18.35233429271197
 30
0.0
 40
0.125
  0
CIRCLE
  5
4E4
330
1F
100
AcDbEntity
  8
Dem
100
AcDbCircle
 10
17.03449655200009
 20
18.35233429271197
 30
0.0
 40
0.125
  0
CIRCLE
  5
4E5
330
1F
100
AcDbEntity
  8
Dem
100
AcDbCircle
 10
18.03449655200009
 20
18.35233429271197
 30
0.0
 40
0.125
  0
CIRCLE
  5
4E6
330
1F
100
AcDbEntity
  8
Dem
100
AcDbCircle
 10
19.03449655200009
 20
18.35233429271197
 30
0.0
 40
0.125
  0
CIRCLE
  5
4E7
102
{ACAD_REACTORS
330
501
330
788
102
}
330
1F
100
AcDbEntity
  8
Dem
100
AcDbCircle
 10
20.03449655200009
 20
18.35233429271197
 30
0.0
 40
0.125
  0
DIMENSION
  5
4E8
102
{ACAD_XDICTIONARY
360
4F6
102
}
102
{ACAD_REACTORS
330
501
102
}
330
1F
100
AcDbEntity
  8
Dem
100
AcDbDimension
  2
*D2
 10
23.06994825399392
 20
15.85233429271197
 30
0.0
 11
23.06994825399392
 21
17.10233429271197
 31
0.0
 70
    32
 71
     5
 42
2.499999999999998
  3
Standard
100
AcDbAlignedDimension
 13
20.03449655200009
 23
18.35233429271197
 33
0.0
 14
20.53449655200009
 24
15.85233429271197
 34
0.0
 50
90.0
100
AcDbRotatedDimension
  0
LWPOLYLINE
  5
503
102
{ACAD_REACTORS
330
88D
102
}
330
1F
100
AcDbEntity
  8
Dem
100
AcDbPolyline
 90
        4
 70
     1
 43
0.0
 10
17.03449655200009
 20
10.85233429271197
 10
18.03449655200009
 20
10.85233429271197
 10
18.03449655200009
 20
5.102334292711972
 10
17.03449655200009
 20
5.102334292711972
  0
LINE
  5
510
102
{ACAD_REACTORS
330
52A
102
}
330
1F
100
AcDbEntity
  8
Dem
  6
CENTER
100
AcDbLine
 10
18.53449655200009
 20
5.852334292711972
 30
0.0
 11
16.11090040185641
 21
5.852334292711972
 31
0.0
  0
DIMENSION
  5
511
102
{ACAD_XDICTIONARY
360
51F
102
}
102
{ACAD_REACTORS
330
52A
102
}
330
1F
100
AcDbEntity
  8
Dem
100
AcDbDimension
  2
*D3
 10
23.05623863973266
 20
5.852334292711971
 30
0.0
 11
23.05623863973266
 21
10.85233429271197
 31
0.0
 70
    32
 71
     5
 42
10.0
  3
Standard
100
AcDbAlignedDimension
 13
23.24994825399393
 23
15.85233429271197
 33
0.0
 14
18.53449655200009
 24
5.852334292711972
 34
0.0
 50
90.0
100
AcDbRotatedDimension
  0
LWPOLYLINE
  5
54C
330
1F
100
AcDbEntity
  8
Dem
100
AcDbPolyline
 90
        4
 70
     1
 43
0.0
 10
32.64628989809168
 20
16.35233429271197
 10
30.64628989809168
 20
16.35233429271197
 10
30.64628989809168
 20
12.85233429271197
 10
32.64628989809168
 20
12.85233429271197
  0
LWPOLYLINE
  5
54D
330
1F
100
AcDbEntity
  8
Dem
100
AcDbPolyline
 90
        4
 70
     1
 43
0.0
 10
32.64628989809168
 20
12.85233429271197
 10
30.64628989809168
 20
12.85233429271197
 10
30.64628989809168
 20
10.85233429271197
 10
32.64628989809168
 20
10.85233429271197
  0
LWPOLYLINE
  5
559
102
{ACAD_REACTORS
330
8B1
102
}
330
1F
100
AcDbEntity
  8
Dem
100
AcDbPolyline
 90
        4
 70
     1
 43
0.0
 10
30.64628989809168
 20
10.85233429271197
 10
31.64628989809168
 20
10.85233429271197
 10
31.64628989809168
 20
5.102334292711972
 10
30.64628989809168
 20
5.102334292711972
  0
LINE
  5
56D
102
{ACAD_REACTORS
330
573
102
}
330
1F
100
AcDbEntity
  8
Dem
100
AcDbLine
 10
17.03449655200009
 20
-2.783949667925668
 30
0.0
 11
15.03449655200008
 21
-2.783949667925667
 31
0.0
  0
LINE
  5
56E
102
{ACAD_REACTORS
330
573
102
}
330
1F
100
AcDbEntity
  8
Dem
100
AcDbLine
 10
15.03449655200008
 20
-2.783949667925667
 30
0.0
 11
15.03449655200008
 21
-4.783949667925668
 31
0.0
  0
LINE
  5
56F
102
{ACAD_REACTORS
330
573
330
818
102
}
330
1F
100
AcDbEntity
  8
Dem
100
AcDbLine
 10
15.03449655200008
 20
-4.783949667925668
 30
0.0
 11
20.03449655200009
 21
-4.783949667925668
 31
0.0
  0
LINE
  5
570
102
{ACAD_REACTORS
330
573
330
818
102
}
330
1F
100
AcDbEntity
  8
Dem
100
AcDbLine
 10
20.03449655200009
 20
-4.783949667925668
 30
0.0
 11
20.03449655200009
 21
-2.783949667925668
 31
0.0
  0
LINE
  5
571
102
{ACAD_REACTORS
330
573
102
}
330
1F
100
AcDbEntity
  8
Dem
100
AcDbLine
 10
20.03449655200009
 20
-2.783949667925668
 30
0.0
 11
18.03449655200009
 21
-2.783949667925668
 31
0.0
  0
DIMENSION
  5
598
102
{ACAD_XDICTIONARY
360
5A6
102
}
102
{ACAD_REACTORS
330
5B1
102
}
330
1F
100
AcDbEntity
  8
Dem
100
AcDbDimension
  2
*D4
 10
10.9999680457504
 20
12.85233429271197
 30
0.0
 11
10.9999680457504
 21
14.60233429271197
 31
0.0
 70
    32
 71
     5
 42
3.5
  3
Standard
100
AcDbAlignedDimension
 13
15.03449655200009
 23
16.35233429271197
 33
0.0
 14
15.03449655200009
 24
12.85233429271197
 34
0.0
 50
90.0
100
AcDbRotatedDimension
1001
ACAD
1000
DSTYLE
1002
{
1070
   271
1070
     1
1002
}
  0
DIMENSION
  5
5BC
102
{ACAD_XDICTIONARY
360
5CA
102
}
102
{ACAD_REACTORS
330
5D5
102
}
330
1F
100
AcDbEntity
  8
Dem
100
AcDbDimension
  2
*D5
 10
10.9999680457504
 20
5.102334292711973
 30
0.0
 11
10.9999680457504
 21
7.977334292711975
 31
0.0
 70
    32
 71
     5
 42
5.75
  3
Standard
100
AcDbAlignedDimension
 13
15.03449655200009
 23
10.85233429271197
 33
0.0
 14
17.03449655200009
 24
5.102334292711972
 34
0.0
 50
90.0
100
AcDbRotatedDimension
1001
ACAD
1000
DSTYLE
1002
{
1070
   271
1070
     2
1002
}
  0
DIMENSION
  5
5E0
330
1F
100
AcDbEntity
  8
Dem
100
AcDbDimension
  2
*D6
 10
20.53449655200009
 20
21.1822901144187
 30
0.0
 11
17.53449655200009
 21
21.1822901144187
 31
0.0
 70
    32
 71
     5
 42
6.0
  3
Standard
100
AcDbAlignedDimension
 13
14.53449655200009
 23
18.85233429271197
 33
0.0
 14
20.53449655200009
 24
18.85233429271197
 34
0.0
100
AcDbRotatedDimension
1001
ACAD
1000
DSTYLE
1002
{
1070
   271
1070
     1
1002
}
  0
DIMENSION
  5
61E
102
{ACAD_XDICTIONARY
360
62C
102
}
102
{ACAD_REACTORS
330
637
102
}
330
1F
100
AcDbEntity
  8
Dem
100
AcDbDimension
  2
*D7
 10
10.9999680457504
 20
10.85233429271197
 30
0.0
 11
10.9999680457504
 21
11.85233429271197
 31
0.0
 70
    32
 71
     5
 42
2.0
  3
Standard
100
AcDbAlignedDimension
 13
15.03449655200009
 23
12.85233429271197
 33
0.0
 14
15.03449655200009
 24
10.85233429271197
 34
0.0
 50
90.0
100
AcDbRotatedDimension
1001
ACAD
1000
DSTYLE
1002
{
1070
   271
1070
     1
1002
}
  0
DIMENSION
  5
6F3
102
{ACAD_XDICTIONARY
360
701
102
}
102
{ACAD_REACTORS
330
70C
102
}
330
1F
100
AcDbEntity
  8
Dem
100
AcDbDimension
  2
*D8
 10
15.03449655200009
 20
12.00968767724376
 30
0.0
 11
15.53449655200009
 21
12.00968767724376
 31
0.0
 70
    32
 71
     5
  3
Standard
100
AcDbAlignedDimension
 13
16.03449655200009
 23
12.85233429271197
 33
0.0
 14
15.03449655200009
 24
12.85233429271197
 34
0.0
100
AcDbRotatedDimension
1001
ACAD
1000
DSTYLE
1002
{
1070
   271
1070
     1
1002
}
  0
DIMENSION
  5
717
102
{ACAD_XDICTIONARY
360
725
102
}
102
{ACAD_REACTORS
330
730
102
}
330
1F
100
AcDbEntity
  8
Dem
100
AcDbDimension
  2
*D9
 10
13.22006287440831
 20
18.35233429271197
 30
0.0
 11
13.22006287440831
 21
18.60233429271197
 31
0.0
 70
    32
 71
     5
 42
0.5
  3
Standard
100
AcDbAlignedDimension
 13
14.53449655200009
 23
18.85233429271197
 33
0.0
 14
15.03449655200009
 24
18.35233429271197
 34
0.0
 50
90.0
100
AcDbRotatedDimension
1001
ACAD
1000
DSTYLE
1002
{
1070
   271
1070
     1
1002
}
  0
DIMENSION
  5
73B
102
{ACAD_XDICTIONARY
360
749
102
}
102
{ACAD_REACTORS
330
754
102
}
330
1F
100
AcDbEntity
  8
Dem
100
AcDbDimension
  2
*D10
 10
14.53449655200009
 20
19.85429874958681
 30
0.0
 11
13.91949655200009
 21
19.85429874958681
 31
0.0
 70
    32
 71
     5
 42
0.5
  3
Standard
100
AcDbAlignedDimension
 13
15.03449655200009
 23
18.35233429271197
 33
0.0
 14
14.53449655200009
 24
18.85233429271197
 34
0.0
100
AcDbRotatedDimension
1001
ACAD
1000
DSTYLE
1002
{
1070
   271
1070
     1
1002
}
  0
LEADER
  5
785
102
{ACAD_XDICTIONARY
360
787
102
}
102
{ACAD_REACTORS
330
788
102
}
330
1F
100
AcDbEntity
  8
Dem
100
AcDbLeader
  3
Standard
 73
     0
 40
0.5400000000000001
 41
5.789999999999999
 76
     3
 10
20.03449655200009
 20
18.35233429271197
 30
0.0
 10
21.52185284179974
 20
20.03390443094751
 30
0.0
 10
22.22034098919392
 20
20.03390443094751
 30
0.0
340
786
213
0.0
223
-0.09
233
0.0
1001
ACAD
1000
DSTYLE
1002
{
1070
   147
1040
0.09
1070
    77
1070
     0
1002
}
  0
MTEXT
  5
786
102
{ACAD_REACTORS
330
785
102
}
330
1F
100
AcDbEntity
  8
Dem
100
AcDbMText
 10
22.31034098919392
 20
20.12390443094751
 30
0.0
 40
0.18
 41
5.9371
 71
     1
 72
     1
  1
Drill 18) 1/4" dia holes at 1" spacing into 6"x6"x0.25" plate
 73
     1
 44
1.0
  0
LWPOLYLINE
  5
796
330
1F
100
AcDbEntity
  8
Dem
100
AcDbPolyline
 90
        4
 70
     1
 43
0.0
 10
14.53449655200009
 20
18.85233429271197
 10
20.53449655200009
 20
18.85233429271197
 10
20.53449655200009
 20
12.85233429271197
 10
14.53449655200009
 20
12.85233429271197
  0
CIRCLE
  5
7C4
330
1F
100
AcDbEntity
  8
Dem
100
AcDbCircle
 10
15.03449655200009
 20
17.35233429271197
 30
0.0
 40
0.125
  0
CIRCLE
  5
7C6
330
1F
100
AcDbEntity
  8
Dem
100
AcDbCircle
 10
16.03449655200009
 20
18.35233429271197
 30
0.0
 40
0.125
  0
CIRCLE
  5
7C7
330
1F
100
AcDbEntity
  8
Dem
100
AcDbCircle
 10
16.03449655200009
 20
17.35233429271197
 30
0.0
 40
0.125
  0
CIRCLE
  5
7C9
330
1F
100
AcDbEntity
  8
Dem
100
AcDbCircle
 10
17.03449655200009
 20
18.35233429271197
 30
0.0
 40
0.125
  0
CIRCLE
  5
7CA
330
1F
100
AcDbEntity
  8
Dem
100
AcDbCircle
 10
17.03449655200009
 20
17.35233429271197
 30
0.0
 40
0.125
  0
CIRCLE
  5
7CC
330
1F
100
AcDbEntity
  8
Dem
100
AcDbCircle
 10
18.03449655200009
 20
18.35233429271197
 30
0.0
 40
0.125
  0
CIRCLE
  5
7CD
330
1F
100
AcDbEntity
  8
Dem
100
AcDbCircle
 10
18.03449655200009
 20
17.35233429271197
 30
0.0
 40
0.125
  0
CIRCLE
  5
7CF
330
1F
100
AcDbEntity
  8
Dem
100
AcDbCircle
 10
19.03449655200009
 20
18.35233429271197
 30
0.0
 40
0.125
  0
CIRCLE
  5
7D0
330
1F
100
AcDbEntity
  8
Dem
100
AcDbCircle
 10
19.03449655200009
 20
17.35233429271197
 30
0.0
 40
0.125
  0
CIRCLE
  5
7D2
330
1F
100
AcDbEntity
  8
Dem
100
AcDbCircle
 10
20.03449655200009
 20
18.35233429271197
 30
0.0
 40
0.125
  0
CIRCLE
  5
7D3
330
1F
100
AcDbEntity
  8
Dem
100
AcDbCircle
 10
20.03449655200009
 20
17.35233429271197
 30
0.0
 40
0.125
  0
LWPOLYLINE
  5
7D8
102
{ACAD_REACTORS
330
7F3
102
}
330
1F
100
AcDbEntity
  8
Dem
100
AcDbPolyline
 90
        4
 70
     1
 43
0.0
 10
30.64628989809168
 20
12.85233429271197
 10
30.39628989809168
 20
12.85233429271197
 10
30.39628989809168
 20
18.85233429271197
 10
30.64628989809168
 20
18.85233429271197
  0
DIMENSION
  5
7DA
102
{ACAD_XDICTIONARY
360
7E8
102
}
102
{ACAD_REACTORS
330
7F3
102
}
330
1F
100
AcDbEntity
  8
Dem
100
AcDbDimension
  2
*D11
 10
28.7735932633237
 20
12.85233429271197
 30
0.0
 11
28.7735932633237
 21
15.85233429271197
 31
0.0
 70
    32
 71
     5
 42
6.0
  3
Standard
100
AcDbAlignedDimension
 13
30.39628989809168
 23
18.85233429271197
 33
0.0
 14
30.39628989809168
 24
12.85233429271197
 34
0.0
 50
90.0
100
AcDbRotatedDimension
1001
ACAD
1000
DSTYLE
1002
{
1070
   271
1070
     1
1002
}
  0
DIMENSION
  5
7FF
102
{ACAD_XDICTIONARY
360
80D
102
}
102
{ACAD_REACTORS
330
818
102
}
330
1F
100
AcDbEntity
  8
Dem
100
AcDbDimension
  2
*D12
 10
20.03449655200009
 20
-8.925153927768555
 30
0.0
 11
17.53449655200008
 21
-8.925153927768555
 31
0.0
 70
    32
 71
     5
 42
5.0
  3
Standard
100
AcDbAlignedDimension
 13
15.03449655200008
 23
-4.783949667925668
 33
0.0
 14
20.03449655200009
 24
-4.783949667925668
 34
0.0
100
AcDbRotatedDimension
1001
ACAD
1000
DSTYLE
1002
{
1070
   271
1070
     1
1002
}
  0
LINE
  5
823
330
1F
100
AcDbEntity
  8
Dem
100
AcDbLine
 10
17.03449655200009
 20
-2.783949667925667
 30
0.0
 11
14.53449655200008
 21
-2.783949667925667
 31
0.0
  0
LINE
  5
824
330
1F
100
AcDbEntity
  8
Dem
100
AcDbLine
 10
14.53449655200008
 20
-2.783949667925667
 30
0.0
 11
14.53449655200008
 21
-2.533949667925667
 31
0.0
  0
LINE
  5
825
330
1F
100
AcDbEntity
  8
Dem
100
AcDbLine
 10
14.53449655200008
 20
-2.533949667925667
 30
0.0
 11
18.03449655200009
 21
-2.533949667925667
 31
0.0
  0
LINE
  5
826
330
1F
100
AcDbEntity
  8
Dem
100
AcDbLine
 10
18.03449655200009
 20
-2.533949667925667
 30
0.0
 11
20.53449655200008
 21
-2.533949667925667
 31
0.0
  0
LINE
  5
827
330
1F
100
AcDbEntity
  8
Dem
100
AcDbLine
 10
20.53449655200008
 20
-2.533949667925667
 30
0.0
 11
20.53449655200008
 21
-2.783949667925667
 31
0.0
  0
LINE
  5
828
330
1F
100
AcDbEntity
  8
Dem
100
AcDbLine
 10
20.53449655200008
 20
-2.783949667925667
 30
0.0
 11
18.03449655200009
 21
-2.783949667925668
 31
0.0
  0
CIRCLE
  5
86D
102
{ACAD_REACTORS
330
895
102
}
330
1F
100
AcDbEntity
  8
Dem
100
AcDbCircle
 10
31.14628989809168
 20
5.852334292711971
 30
0.0
 40
0.125
  0
LINE
  5
86E
102
{ACAD_REACTORS
330
8B1
102
}
330
1F
100
AcDbEntity
  8
Dem
  6
CENTER
100
AcDbLine
 10
30.14628989809168
 20
5.852334292711971
 30
0.0
 11
32.14628989809168
 21
5.852334292711971
 31
0.0
  0
LWPOLYLINE
  5
873
102
{ACAD_REACTORS
330
88D
330
891
102
}
330
1F
100
AcDbEntity
  8
Dem
  6
DASHED2
100
AcDbPolyline
 90
        4
 70
     1
 43
0.0
 10
17.34699655200009
 20
5.477334292711972
 10
17.72199655200009
 20
5.477334292711972
 10
17.72199655200009
 20
6.227334292711972
 10
17.34699655200009
 20
6.227334292711972
  0
DIMENSION
  5
874
102
{ACAD_XDICTIONARY
360
882
102
}
102
{ACAD_REACTORS
330
88D
102
}
330
1F
100
AcDbEntity
  8
Dem
100
AcDbDimension
  2
*D13
 10
19.52074405872605
 20
5.102334292711972
 30
0.0
 11
19.52074405872605
 21
5.289834292711975
 31
0.0
 70
    32
 71
     5
 42
0.3749999999999991
  3
Standard
100
AcDbAlignedDimension
 13
17.72199655200009
 23
5.477334292711972
 33
0.0
 14
18.03449655200009
 24
5.102334292711972
 34
0.0
 50
90.0
100
AcDbRotatedDimension
  0
LEADER
  5
88E
102
{ACAD_XDICTIONARY
360
890
102
}
102
{ACAD_REACTORS
330
891
102
}
330
1F
100
AcDbEntity
  8
Dem
100
AcDbLeader
  3
Standard
 73
     0
 40
0.1800000000000001
 41
5.669999999999999
 76
     3
 10
17.34699655200009
 20
5.477334292711972
 30
0.0
 10
16.36971432779404
 20
3.867565181173773
 30
0.0
 10
17.19569801237398
 20
3.867565181173773
 30
0.0
340
88F
213
0.0
223
-0.09
233
0.0
1001
ACAD
1000
DSTYLE
1002
{
1070
   147
1040
0.09
1070
    77
1070
     0
1002
}
  0
MTEXT
  5
88F
102
{ACAD_REACTORS
330
88E
102
}
330
1F
100
AcDbEntity
  8
Dem
100
AcDbMText
 10
17.28569801237398
 20
3.957565181173773
 30
0.0
 40
0.18
 41
6.401373590236914
 71
     1
 72
     1
  1
\A1;Mill .375 x .75 slot for tie rod end
 73
     1
 44
1.0
  0
LEADER
  5
892
102
{ACAD_XDICTIONARY
360
894
102
}
102
{ACAD_REACTORS
330
895
102
}
330
1F
100
AcDbEntity
  8
Dem
100
AcDbLeader
  3
Standard
 73
     0
 40
0.18
 41
5.31
 76
     3
 10
31.14628989809168
 20
5.727334292711971
 30
0.0
 10
29.0003816029324
 20
4.005120130932766
 30
0.0
 10
29.585453281073
 20
4.005120130932766
 30
0.0
340
893
213
0.0
223
-0.09
233
0.0
1001
ACAD
1000
DSTYLE
1002
{
1070
   147
1040
0.09
1070
    77
1070
     0
1002
}
  0
MTEXT
  5
893
102
{ACAD_REACTORS
330
892
102
}
330
1F
100
AcDbEntity
  8
Dem
100
AcDbMText
 10
29.675453281073
 20
4.095120130932766
 30
0.0
 40
0.18
 41
6.229293684901449
 71
     1
 72
     1
  1
\A1;Drill .25 dia hole for tie rod end
 73
     1
 44
1.0
  0
DIMENSION
  5
896
102
{ACAD_XDICTIONARY
360
8A5
102
}
102
{ACAD_REACTORS
330
8B1
102
}
330
1F
100
AcDbEntity
  8
Dem
100
AcDbDimension
  2
*D14
 10
33.92186772934491
 20
5.102334292711972
 30
0.0
 11
33.39686772934491
 21
4.922334292711978
 31
0.0
 70
    32
 71
     5
 42
0.7499999999999992
  3
Standard
100
AcDbAlignedDimension
 13
32.14628989809168
 23
5.852334292711971
 33
0.0
 14
31.64628989809168
 24
5.102334292711972
 34
0.0
 50
90.0
100
AcDbRotatedDimension
1001
ACAD
1000
DSTYLE
1002
{
1070
   271
1070
     2
1002
}
  0
LWPOLYLINE
  5
8C3
330
1F
100
AcDbEntity
  8
Dem
100
AcDbPolyline
 90
        8
 70
     1
 43
0.0
 10
17.25949655200009
 20
-2.908949667925668
 10
17.80949655200009
 20
-2.908949667925668
 42
-0.4142135623730951
 10
17.90949655200009
 20
-3.008949667925668
 10
17.90949655200009
 20
-3.558949667925667
 42
-0.4142135623730951
 10
17.80949655200009
 20
-3.658949667925667
 10
17.25949655200009
 20
-3.658949667925668
 42
-0.4142135623730951
 10
17.15949655200009
 20
-3.558949667925668
 10
17.15949655200009
 20
-3.008949667925668
 42
-0.4142135623730951
  0
CIRCLE
  5
922
102
{ACAD_REACTORS
330
92E
330
931
102
}
330
1F
100
AcDbEntity
  8
Dem
100
AcDbCircle
 10
-2.771573849911035
 20
18.09714833481993
 30
0.0
 40
0.125
  0
CIRCLE
  5
923
330
1F
100
AcDbEntity
  8
Dem
100
AcDbCircle
 10
-1.771573849911035
 20
18.09714833481993
 30
0.0
 40
0.125
  0
CIRCLE
  5
924
330
1F
100
AcDbEntity
  8
Dem
100
AcDbCircle
 10
-0.7715738499110359
 20
18.09714833481993
 30
0.0
 40
0.125
  0
CIRCLE
  5
925
330
1F
100
AcDbEntity
  8
Dem
100
AcDbCircle
 10
0.2284261500889642
 20
18.09714833481993
 30
0.0
 40
0.125
  0
CIRCLE
  5
926
330
1F
100
AcDbEntity
  8
Dem
100
AcDbCircle
 10
1.228426150088964
 20
18.09714833481993
 30
0.0
 40
0.125
  0
CIRCLE
  5
927
330
1F
100
AcDbEntity
  8
Dem
100
AcDbCircle
 10
2.228426150088964
 20
18.09714833481993
 30
0.0
 40
0.125
  0
DIMENSION
  5
92B
330
1F
100
AcDbEntity
  8
Dem
100
AcDbDimension
  2
*D15
 10
2.728426150088964
 20
20.92710415652666
 30
0.0
 11
-0.2715738499110358
 21
20.92710415652666
 31
0.0
 70
    32
 71
     5
 42
6.0
  3
Standard
100
AcDbAlignedDimension
 13
-3.271573849911035
 23
18.59714833481993
 33
0.0
 14
2.728426150088964
 24
18.59714833481993
 34
0.0
100
AcDbRotatedDimension
1001
ACAD
1000
DSTYLE
1002
{
1070
   271
1070
     1
1002
}
  0
DIMENSION
  5
92C
102
{ACAD_XDICTIONARY
360
92D
102
}
102
{ACAD_REACTORS
330
92E
102
}
330
1F
100
AcDbEntity
  8
Dem
100
AcDbDimension
  2
*D16
 10
-4.586007527502815
 20
18.09714833481993
 30
0.0
 11
-4.586007527502818
 21
18.34714833481993
 31
0.0
 70
    32
 71
     5
 42
0.5
  3
Standard
100
AcDbAlignedDimension
 13
-3.271573849911035
 23
18.59714833481993
 33
0.0
 14
-2.771573849911035
 24
18.09714833481993
 34
0.0
 50
90.0
100
AcDbRotatedDimension
1001
ACAD
1000
DSTYLE
1002
{
1070
   271
1070
     1
1002
}
  0
DIMENSION
  5
92F
102
{ACAD_XDICTIONARY
360
930
102
}
102
{ACAD_REACTORS
330
931
102
}
330
1F
100
AcDbEntity
  8
Dem
100
AcDbDimension
  2
*D17
 10
-3.271573849911035
 20
19.59911279169477
 30
0.0
 11
-3.886573849911036
 21
19.59911279169477
 31
0.0
 70
    32
 71
     5
 42
0.5
  3
Standard
100
AcDbAlignedDimension
 13
-2.771573849911035
 23
18.09714833481993
 33
0.0
 14
-3.271573849911035
 24
18.59714833481993
 34
0.0
100
AcDbRotatedDimension
1001
ACAD
1000
DSTYLE
1002
{
1070
   271
1070
     1
1002
}
  0
LWPOLYLINE
  5
936
102
{ACAD_REACTORS
330
9B0
330
9CA
102
}
330
1F
100
AcDbEntity
  8
Dem
100
AcDbPolyline
 90
        4
 70
     1
 43
0.0
 10
-3.271573849911035
 20
18.59714833481993
 10
2.728426150088964
 20
18.59714833481993
 10
2.728426150088964
 20
12.59714833481993
 10
-3.271573849911035
 20
12.59714833481993
  0
CIRCLE
  5
937
330
1F
100
AcDbEntity
  8
Dem
100
AcDbCircle
 10
-2.771573849911035
 20
17.09714833481993
 30
0.0
 40
0.125
  0
CIRCLE
  5
938
330
1F
100
AcDbEntity
  8
Dem
100
AcDbCircle
 10
-1.771573849911035
 20
18.09714833481993
 30
0.0
 40
0.125
  0
CIRCLE
  5
939
330
1F
100
AcDbEntity
  8
Dem
100
AcDbCircle
 10
-1.771573849911035
 20
17.09714833481993
 30
0.0
 40
0.125
  0
CIRCLE
  5
93A
330
1F
100
AcDbEntity
  8
Dem
100
AcDbCircle
 10
-0.7715738499110359
 20
18.09714833481993
 30
0.0
 40
0.125
  0
CIRCLE
  5
93B
330
1F
100
AcDbEntity
  8
Dem
100
AcDbCircle
 10
-0.7715738499110359
 20
17.09714833481993
 30
0.0
 40
0.125
  0
CIRCLE
  5
93C
330
1F
100
AcDbEntity
  8
Dem
100
AcDbCircle
 10
0.2284261500889642
 20
18.09714833481993
 30
0.0
 40
0.125
  0
CIRCLE
  5
93D
330
1F
100
AcDbEntity
  8
Dem
100
AcDbCircle
 10
0.2284261500889642
 20
17.09714833481993
 30
0.0
 40
0.125
  0
CIRCLE
  5
93E
102
{ACAD_REACTORS
330
A1A
102
}
330
1F
100
AcDbEntity
  8
Dem
100
AcDbCircle
 10
1.228426150088964
 20
18.09714833481993
 30
0.0
 40
0.125
  0
CIRCLE
  5
93F
330
1F
100
AcDbEntity
  8
Dem
100
AcDbCircle
 10
1.228426150088964
 20
17.09714833481993
 30
0.0
 40
0.125
  0
CIRCLE
  5
940
102
{ACAD_REACTORS
330
A00
330
A1A
102
}
330
1F
100
AcDbEntity
  8
Dem
100
AcDbCircle
 10
2.228426150088964
 20
18.09714833481993
 30
0.0
 40
0.125
  0
CIRCLE
  5
941
102
{ACAD_REACTORS
330
A00
102
}
330
1F
100
AcDbEntity
  8
Dem
100
AcDbCircle
 10
2.228426150088964
 20
17.09714833481993
 30
0.0
 40
0.125
  0
DIMENSION
  5
997
102
{ACAD_XDICTIONARY
360
9A5
102
}
102
{ACAD_REACTORS
330
9B0
102
}
330
1F
100
AcDbEntity
  8
Dem
100
AcDbDimension
  2
*D19
 10
4.310148193568636
 20
12.59714833481993
 30
0.0
 11
4.310148193568634
 21
13.34714833481993
 31
0.0
 70
    32
 71
     5
 42
1.5
  3
Standard
100
AcDbAlignedDimension
 13
-0.2715738499110349
 23
14.09714833481993
 33
0.0
 14
2.728426150088964
 24
12.59714833481993
 34
0.0
 50
90.0
100
AcDbRotatedDimension
1001
ACAD
1000
DSTYLE
1002
{
1070
   271
1070
     1
1002
}
  0
DIMENSION
  5
9B1
102
{ACAD_XDICTIONARY
360
9BF
102
}
102
{ACAD_REACTORS
330
9CA
102
}
330
1F
100
AcDbEntity
  8
Dem
100
AcDbDimension
  2
*D20
 10
2.728426150088964
 20
11.19123187881213
 30
0.0
 11
1.228426150088964
 21
11.19123187881213
 31
0.0
 70
    32
 71
     5
 42
2.999999999999999
  3
Standard
100
AcDbAlignedDimension
 13
-0.2715738499110349
 23
14.00714833481993
 33
0.0
 14
2.728426150088964
 24
12.59714833481993
 34
0.0
100
AcDbRotatedDimension
1001
ACAD
1000
DSTYLE
1002
{
1070
   271
1070
     1
1002
}
  0
DIMENSION
  5
9E7
102
{ACAD_XDICTIONARY
360
9F5
102
}
102
{ACAD_REACTORS
330
A00
102
}
330
1F
100
AcDbEntity
  8
Dem
100
AcDbDimension
  2
*D21
 10
3.370359015846815
 20
17.09714833481993
 30
0.0
 11
3.370359015846812
 21
17.59714833481993
 31
0.0
 70
    32
 71
     5
  3
Standard
100
AcDbAlignedDimension
 13
2.228426150088964
 23
18.09714833481993
 33
0.0
 14
2.228426150088964
 24
17.09714833481993
 34
0.0
 50
90.0
100
AcDbRotatedDimension
1001
ACAD
1000
DSTYLE
1002
{
1070
   271
1070
     1
1002
}
  0
DIMENSION
  5
A01
102
{ACAD_XDICTIONARY
360
A0F
102
}
102
{ACAD_REACTORS
330
A1A
102
}
330
1F
100
AcDbEntity
  8
Dem
100
AcDbDimension
  2
*D22
 10
1.228426150088964
 20
19.36759449638214
 30
0.0
 11
1.728426150088964
 21
19.36759449638214
 31
0.0
 70
    32
 71
     5
  3
Standard
100
AcDbAlignedDimension
 13
2.228426150088964
 23
18.09714833481993
 33
0.0
 14
1.228426150088964
 24
18.09714833481993
 34
0.0
100
AcDbRotatedDimension
1001
ACAD
1000
DSTYLE
1002
{
1070
   271
1070
     1
1002
}
  0
DIMENSION
  5
A49
102
{ACAD_XDICTIONARY
360
A57
102
}
102
{ACAD_REACTORS
330
A62
102
}
330
1F
100
AcDbEntity
  8
Dem
100
AcDbDimension
  2
*D23
 10
20.03449655200009
 20
16.87997029677318
 30
0.0
 11
17.53449655200009
 21
16.87997029677318
 31
0.0
 70
    32
 71
     5
 42
5.0
  3
Standard
100
AcDbAlignedDimension
 13
15.03449655200009
 23
16.35233429271197
 33
0.0
 14
20.03449655200009
 24
16.35233429271197
 34
0.0
100
AcDbRotatedDimension
1001
ACAD
1000
DSTYLE
1002
{
1070
   271
1070
     1
1002
}
  0
CIRCLE
  5
A75
102
{ACAD_REACTORS
330
A9B
102
}
330
1F
100
AcDbEntity
  8
Dem
100
AcDbCircle
 10
-0.2715738499110358
 20
14.09714833481993
 30
0.0
 40
1.25
  0
DIMENSION
  5
A86
102
{ACAD_XDICTIONARY
360
A92
102
}
102
{ACAD_REACTORS
330
A9B
102
}
330
1F
100
AcDbEntity
  8
Dem
100
AcDbDimension
  2
*D24
 10
-0.9658592623414108
 20
13.05769282057875
 30
0.0
 11
1.49914860987788
 21
15.60287456485018
 31
0.0
 70
   163
 71
     5
 42
2.5
  3
Standard
100
AcDbDiametricDimension
 15
0.4227115625193392
 25
15.13660384906111
 35
0.0
 40
0.0
1001
ACAD
1000
DSTYLE
1002
{
1070
   271
1070
     1
1070
   288
1070
     1
1002
}
  0
CIRCLE
  5
AA4
330
1F
100
AcDbEntity
  8
Dem
100
AcDbCircle
 10
17.53449655200009
 20
14.35233429271197
 30
0.0
 40
1.25
  0
ENDSEC
  0
SECTION
  2
OBJECTS
  0
DICTIONARY
  5
C
330
0
100
AcDbDictionary
281
     1
  3
ACAD_GROUP
350
D
  3
ACAD_LAYOUT
350
1A
  3
ACAD_MLINESTYLE
350
17
  3
ACAD_PLOTSETTINGS
350
19
  3
ACAD_PLOTSTYLENAME
350
E
  3
AcadDim
350
25B
  3
AcDbVariableDictionary
350
66
  3
DWGPROPS
350
26C
  0
DICTIONARY
  5
42E
330
1F
100
AcDbDictionary
280
     1
281
     1
  3
ACAD_SORTENTS
360
42F
  0
DICTIONARY
  5
493
330
485
100
AcDbDictionary
280
     1
281
     1
  3
ACAD_DIMASSOC
360
49E
  0
DICTIONARY
  5
4F6
330
4E8
100
AcDbDictionary
280
     1
281
     1
  3
ACAD_DIMASSOC
360
501
  0
DICTIONARY
  5
51F
330
511
100
AcDbDictionary
280
     1
281
     1
  3
ACAD_DIMASSOC
360
52A
  0
DICTIONARY
  5
5A6
330
598
100
AcDbDictionary
280
     1
281
     1
  3
ACAD_DIMASSOC
360
5B1
  0
DICTIONARY
  5
5CA
330
5BC
100
AcDbDictionary
280
     1
281
     1
  3
ACAD_DIMASSOC
360
5D5
  0
DICTIONARY
  5
62C
330
61E
100
AcDbDictionary
280
     1
281
     1
  3
ACAD_DIMASSOC
360
637
  0
DICTIONARY
  5
701
330
6F3
100
AcDbDictionary
280
     1
281
     1
  3
ACAD_DIMASSOC
360
70C
  0
DICTIONARY
  5
725
330
717
100
AcDbDictionary
280
     1
281
     1
  3
ACAD_DIMASSOC
360
730
  0
DICTIONARY
  5
749
330
73B
100
AcDbDictionary
280
     1
281
     1
  3
ACAD_DIMASSOC
360
754
  0
DICTIONARY
  5
787
330
785
100
AcDbDictionary
280
     1
281
     1
  3
ACAD_DIMASSOC
360
788
  0
DICTIONARY
  5
7E8
330
7DA
100
AcDbDictionary
280
     1
281
     1
  3
ACAD_DIMASSOC
360
7F3
  0
DICTIONARY
  5
80D
330
7FF
100
AcDbDictionary
280
     1
281
     1
  3
ACAD_DIMASSOC
360
818
  0
DICTIONARY
  5
882
330
874
100
AcDbDictionary
280
     1
281
     1
  3
ACAD_DIMASSOC
360
88D
  0
DICTIONARY
  5
890
330
88E
100
AcDbDictionary
280
     1
281
     1
  3
ACAD_DIMASSOC
360
891
  0
DICTIONARY
  5
894
330
892
100
AcDbDictionary
280
     1
281
     1
  3
ACAD_DIMASSOC
360
895
  0
DICTIONARY
  5
8A5
330
896
100
AcDbDictionary
280
     1
281
     1
  3
ACAD_DIMASSOC
360
8B1
  0
DICTIONARY
  5
92D
330
92C
100
AcDbDictionary
280
     1
281
     1
  3
ACAD_DIMASSOC
360
92E
  0
DICTIONARY
  5
930
330
92F
100
AcDbDictionary
280
     1
281
     1
  3
ACAD_DIMASSOC
360
931
  0
DICTIONARY
  5
9A5
330
997
100
AcDbDictionary
280
     1
281
     1
  3
ACAD_DIMASSOC
360
9B0
  0
DICTIONARY
  5
9BF
330
9B1
100
AcDbDictionary
280
     1
281
     1
  3
ACAD_DIMASSOC
360
9CA
  0
DICTIONARY
  5
9F5
330
9E7
100
AcDbDictionary
280
     1
281
     1
  3
ACAD_DIMASSOC
360
A00
  0
DICTIONARY
  5
A0F
330
A01
100
AcDbDictionary
280
     1
281
     1
  3
ACAD_DIMASSOC
360
A1A
  0
DICTIONARY
  5
A57
330
A49
100
AcDbDictionary
280
     1
281
     1
  3
ACAD_DIMASSOC
360
A62
  0
DICTIONARY
  5
A92
330
A86
100
AcDbDictionary
280
     1
281
     1
  3
ACAD_DIMASSOC
360
A9B
  0
DICTIONARY
  5
D
102
{ACAD_REACTORS
330
C
102
}
330
C
100
AcDbDictionary
281
     1
  3
*A1
350
4D2
  3
*A2
350
4D3
  3
*A3
350
54E
  3
*A4
350
56C
  3
*A5
350
573
  0
DICTIONARY
  5
1A
102
{ACAD_REACTORS
330
C
102
}
330
C
100
AcDbDictionary
281
     1
  3
Layout1
350
59
  3
Layout2
350
5E
  3
Model
350
22
  0
DICTIONARY
  5
17
102
{ACAD_REACTORS
330
C
102
}
330
C
100
AcDbDictionary
281
     1
  3
Standard
350
18
  0
DICTIONARY
  5
19
102
{ACAD_REACTORS
330
C
102
}
330
C
100
AcDbDictionary
281
     1
  0
ACDBDICTIONARYWDFLT
  5
E
102
{ACAD_REACTORS
330
C
102
}
330
C
100
AcDbDictionary
281
     1
  3
Normal
350
F
100
AcDbDictionaryWithDefault
340
F
  0
XRECORD
  5
25B
102
{ACAD_REACTORS
330
C
102
}
330
C
100
AcDbXrecord
280
     1
 90
   990106
  3

 60
     0
 61
     0
 62
     1
 63
     3
 64
     0
 65
     0
 66
     0
 67
     3
 68
     1
 69
     0
 70
     0
 71
     0
 72
     0
 40
6.229293684901449
170
     0
340
893
  0
DICTIONARY
  5
66
102
{ACAD_REACTORS
330
C
102
}
330
C
100
AcDbDictionary
281
     1
  3
DIMASSOC
350
67
  3
HIDETEXT
350
6B
  3
SORTENTS
350
45F
  0
XRECORD
  5
26C
102
{ACAD_REACTORS
330
C
102
}
330
C
100
AcDbXrecord
280
     1
  1
DWGPROPS COOKIE
  2

  3

  4

  6

  7

  8

  9

300
=
301
=
302
=
303
=
304
=
305
=
306
=
307
=
308
=
309
=
 40
0.9378477662037036
 41
2458893.604061551
 42
2458899.632727511
  1

 90
        0
  0
SORTENTSTABLE
  5
42F
102
{ACAD_REACTORS
330
42E
102
}
330
42E
100
AcDbSortentsTable
330
1F
331
2CC
  5
2CC
331
24B
  5
24C
331
B7
  5
B8
331
2DA
  5
2DA
331
446
  5
446
331
F6
  5
F7
331
CB
  5
F4
331
4D6
  5
4D6
331
4D9
  5
4D9
331
234
  5
235
331
503
  5
503
331
4E2
  5
4E2
331
237
  5
238
331
4E5
  5
4E5
331
511
  5
511
331
240
  5
241
331
54D
  5
54D
331
243
  5
244
331
24C
  5
24D
331
B8
  5
B9
331
F4
  5
F5
331
485
  5
485
331
F7
  5
F8
331
22D
  5
22F
331
4D7
  5
4D7
331
4DA
  5
4DA
331
235
  5
237
331
238
  5
23A
331
4E3
  5
4E3
331
4E6
  5
4E6
331
2EB
  5
2EB
331
241
  5
242
331
244
  5
245
331
24D
  5
25C
331
483
  5
483
331
F5
  5
F6
331
4E8
  5
4E8
331
448
  5
448
331
CA
  5
CB
331
4D8
  5
4D8
331
559
  5
559
331
4E4
  5
4E4
331
510
  5
510
331
4E7
  5
4E7
331
54C
  5
54C
331
242
  5
243
331
245
  5
24A
  0
DIMASSOC
  5
49E
102
{ACAD_REACTORS
330
493
102
}
330
493
100
AcDbDimAssoc
330
485
 90
        3
 70
     0
 71
     0
  1
AcDbOsnapPointRef
 72
    13
331
483
 73
     2
 91
        1
 40
0.0
 10
34.85339667927823
 20
13.85233429271196
 30
0.0
 75
     0
  1
AcDbOsnapPointRef
 72
     1
331
483
 73
     2
 91
        1
 40
1.0
 10
38.85339667927823
 20
13.85233429271196
 30
0.0
 75
     0
  0
DIMASSOC
  5
501
102
{ACAD_REACTORS
330
4F6
102
}
330
4F6
100
AcDbDimAssoc
330
4E8
 90
        3
 70
     0
 71
     0
  1
AcDbOsnapPointRef
 72
     3
331
4E7
 73
     2
 91
        0
 40
0.0
 10
20.03449655200009
 20
18.35233429271197
 30
0.0
 75
     0
  1
AcDbOsnapPointRef
 72
    13
331
CA
 73
     2
 91
        0
 40
0.0
 10
20.53449655200009
 20
15.85233429271197
 30
0.0
 75
     0
  0
DIMASSOC
  5
52A
102
{ACAD_REACTORS
330
51F
102
}
330
51F
100
AcDbDimAssoc
330
511
 90
        2
 70
     0
 71
     0
  1
AcDbOsnapPointRef
 72
    13
331
510
 73
     2
 91
        0
 40
0.0
 10
18.53449655200009
 20
5.852334292711972
 30
0.0
 75
     0
  0
DIMASSOC
  5
5B1
102
{ACAD_REACTORS
330
5A6
102
}
330
5A6
100
AcDbDimAssoc
330
598
 90
        3
 70
     0
 71
     0
  1
AcDbOsnapPointRef
 72
     1
331
4D6
 73
     2
 91
        3
 40
1.0
 10
15.03449655200009
 20
16.35233429271197
 30
0.0
 75
     0
  1
AcDbOsnapPointRef
 72
    13
331
4D8
 73
     2
 91
        1
 40
0.0
 10
15.03449655200009
 20
12.85233429271197
 30
0.0
 75
     0
  0
DIMASSOC
  5
5D5
102
{ACAD_REACTORS
330
5CA
102
}
330
5CA
100
AcDbDimAssoc
330
5BC
 90
        1
 70
     0
 71
     0
  1
AcDbOsnapPointRef
 72
     1
331
4D8
 73
     2
 91
        3
 40
1.0
 10
15.03449655200009
 20
10.85233429271197
 30
0.0
 75
     0
  0
DIMASSOC
  5
637
102
{ACAD_REACTORS
330
62C
102
}
330
62C
100
AcDbDimAssoc
330
61E
 90
        3
 70
     0
 71
     0
  1
AcDbOsnapPointRef
 72
    13
331
4D8
 73
     2
 91
        1
 40
0.0
 10
15.03449655200009
 20
12.85233429271197
 30
0.0
 75
     0
  1
AcDbOsnapPointRef
 72
     1
331
4D8
 73
     2
 91
        3
 40
1.0
 10
15.03449655200009
 20
10.85233429271197
 30
0.0
 75
     0
  0
DIMASSOC
  5
70C
102
{ACAD_REACTORS
330
701
102
}
330
701
100
AcDbDimAssoc
330
6F3
 90
        3
 70
     0
 71
     0
  1
AcDbOsnapPointRef
 72
     1
331
4D6
 73
     2
 91
        1
 40
1.0
 10
16.03449655200009
 20
12.85233429271197
 30
0.0
 75
     0
  1
AcDbOsnapPointRef
 72
    13
331
4D8
 73
     2
 91
        1
 40
0.0
 10
15.03449655200009
 20
12.85233429271197
 30
0.0
 75
     0
  0
DIMASSOC
  5
730
102
{ACAD_REACTORS
330
725
102
}
330
725
100
AcDbDimAssoc
330
717
 90
        2
 70
     0
 71
     0
  1
AcDbOsnapPointRef
 72
     3
331
4E2
 73
     2
 91
        0
 40
0.0
 10
15.03449655200009
 20
18.35233429271197
 30
0.0
 75
     0
  0
DIMASSOC
  5
754
102
{ACAD_REACTORS
330
749
102
}
330
749
100
AcDbDimAssoc
330
73B
 90
        1
 70
     0
 71
     0
  1
AcDbOsnapPointRef
 72
     3
331
4E2
 73
     2
 91
        0
 40
0.0
 10
15.03449655200009
 20
18.35233429271197
 30
0.0
 75
     0
  0
DIMASSOC
  5
788
102
{ACAD_REACTORS
330
787
102
}
330
787
100
AcDbDimAssoc
330
785
 90
        1
 70
     0
 71
     0
  1
AcDbOsnapPointRef
 72
     3
331
4E7
 73
     2
 91
        0
 40
0.0
 10
20.03449655200009
 20
18.35233429271197
 30
0.0
 75
     0
  0
DIMASSOC
  5
7F3
102
{ACAD_REACTORS
330
7E8
102
}
330
7E8
100
AcDbDimAssoc
330
7DA
 90
        3
 70
     0
 71
     0
  1
AcDbOsnapPointRef
 72
     1
331
7D8
 73
     2
 91
        2
 40
1.0
 10
30.39628989809168
 20
18.85233429271197
 30
0.0
 75
     0
  1
AcDbOsnapPointRef
 72
     1
331
7D8
 73
     2
 91
        1
 40
1.0
 10
30.39628989809168
 20
12.85233429271197
 30
0.0
 75
     0
  0
DIMASSOC
  5
818
102
{ACAD_REACTORS
330
80D
102
}
330
80D
100
AcDbDimAssoc
330
7FF
 90
        3
 70
     0
 71
     0
  1
AcDbOsnapPointRef
 72
    13
331
56F
 73
     2
 91
        0
 40
0.0
 10
15.03449655200008
 20
-4.783949667925668
 30
0.0
 75
     0
  1
AcDbOsnapPointRef
 72
    13
331
570
 73
     2
 91
        0
 40
0.0
 10
20.03449655200009
 20
-4.783949667925668
 30
0.0
 75
     0
  0
DIMASSOC
  5
88D
102
{ACAD_REACTORS
330
882
102
}
330
882
100
AcDbDimAssoc
330
874
 90
        3
 70
     0
 71
     0
  1
AcDbOsnapPointRef
 72
    13
331
873
 73
     2
 91
        2
 40
0.0
 10
17.72199655200009
 20
5.477334292711972
 30
0.0
 75
     0
  1
AcDbOsnapPointRef
 72
     1
331
503
 73
     2
 91
        2
 40
1.0
 10
18.03449655200009
 20
5.102334292711972
 30
0.0
 75
     0
  0
DIMASSOC
  5
891
102
{ACAD_REACTORS
330
890
102
}
330
890
100
AcDbDimAssoc
330
88E
 90
        1
 70
     0
 71
     0
  1
AcDbOsnapPointRef
 72
     1
331
873
 73
     2
 91
        4
 40
1.0
 10
17.34699655200009
 20
5.477334292711972
 30
0.0
 75
     0
  0
DIMASSOC
  5
895
102
{ACAD_REACTORS
330
894
102
}
330
894
100
AcDbDimAssoc
330
892
 90
        1
 70
     0
 71
     0
  1
AcDbOsnapPointRef
 72
     5
331
86D
 73
     2
 91
        0
 40
4.712388980384689
 10
31.14628989809168
 20
5.727334292711971
 30
0.0
 75
     0
  0
DIMASSOC
  5
8B1
102
{ACAD_REACTORS
330
8A5
102
}
330
8A5
100
AcDbDimAssoc
330
896
 90
        3
 70
     0
 71
     0
  1
AcDbOsnapPointRef
 72
     1
331
86E
 73
     2
 91
        0
 40
1.0
 10
32.14628989809168
 20
5.852334292711971
 30
0.0
 75
     0
  1
AcDbOsnapPointRef
 72
     1
331
559
 73
     2
 91
        2
 40
1.0
 10
31.64628989809168
 20
5.102334292711972
 30
0.0
 75
     0
  0
DIMASSOC
  5
92E
102
{ACAD_REACTORS
330
92D
102
}
330
92D
100
AcDbDimAssoc
330
92C
 90
        2
 70
     0
 71
     0
  1
AcDbOsnapPointRef
 72
     3
331
922
 73
     2
 91
        0
 40
0.0
 10
-2.771573849911035
 20
18.09714833481993
 30
0.0
 75
     0
  0
DIMASSOC
  5
931
102
{ACAD_REACTORS
330
930
102
}
330
930
100
AcDbDimAssoc
330
92F
 90
        1
 70
     0
 71
     0
  1
AcDbOsnapPointRef
 72
     3
331
922
 73
     2
 91
        0
 40
0.0
 10
-2.771573849911035
 20
18.09714833481993
 30
0.0
 75
     0
  0
DIMASSOC
  5
9B0
102
{ACAD_REACTORS
330
9A5
102
}
330
9A5
100
AcDbDimAssoc
330
997
 90
        2
 70
     0
 71
     0
  1
AcDbOsnapPointRef
 72
     1
331
936
 73
     2
 91
        2
 40
1.0
 10
2.728426150088964
 20
12.59714833481993
 30
0.0
 75
     0
  0
DIMASSOC
  5
9CA
102
{ACAD_REACTORS
330
9BF
102
}
330
9BF
100
AcDbDimAssoc
330
9B1
 90
        2
 70
     0
 71
     0
  1
AcDbOsnapPointRef
 72
     1
331
936
 73
     2
 91
        2
 40
1.0
 10
2.728426150088964
 20
12.59714833481993
 30
0.0
 75
     0
  0
DIMASSOC
  5
A00
102
{ACAD_REACTORS
330
9F5
102
}
330
9F5
100
AcDbDimAssoc
330
9E7
 90
        3
 70
     0
 71
     0
  1
AcDbOsnapPointRef
 72
     3
331
940
 73
     2
 91
        0
 40
0.0
 10
2.228426150088964
 20
18.09714833481993
 30
0.0
 75
     0
  1
AcDbOsnapPointRef
 72
     3
331
941
 73
     2
 91
        0
 40
0.0
 10
2.228426150088964
 20
17.09714833481993
 30
0.0
 75
     0
  0
DIMASSOC
  5
A1A
102
{ACAD_REACTORS
330
A0F
102
}
330
A0F
100
AcDbDimAssoc
330
A01
 90
        3
 70
     0
 71
     0
  1
AcDbOsnapPointRef
 72
     3
331
940
 73
     2
 91
        0
 40
0.0
 10
2.228426150088964
 20
18.09714833481993
 30
0.0
 75
     0
  1
AcDbOsnapPointRef
 72
     3
331
93E
 73
     2
 91
        0
 40
0.0
 10
1.228426150088964
 20
18.09714833481993
 30
0.0
 75
     0
  0
DIMASSOC
  5
A62
102
{ACAD_REACTORS
330
A57
102
}
330
A57
100
AcDbDimAssoc
330
A49
 90
        3
 70
     0
 71
     0
  1
AcDbOsnapPointRef
 72
     1
331
4D6
 73
     2
 91
        3
 40
1.0
 10
15.03449655200009
 20
16.35233429271197
 30
0.0
 75
     0
  1
AcDbOsnapPointRef
 72
     1
331
4D7
 73
     2
 91
        3
 40
1.0
 10
20.03449655200009
 20
16.35233429271197
 30
0.0
 75
     0
  0
DIMASSOC
  5
A9B
102
{ACAD_REACTORS
330
A92
102
}
330
A92
100
AcDbDimAssoc
330
A86
 90
        2
 70
     0
 71
     0
  1
AcDbOsnapPointRef
 72
     3
331
A75
 73
     2
 91
        0
 40
0.0
 10
0.0
 20
0.0
 30
0.0
 75
     0
  0
GROUP
  5
4D2
102
{ACAD_REACTORS
330
D
102
}
330
D
100
AcDbGroup
300

 70
     1
 71
     1
340
F7
340
F6
340
B7
340
CB
  0
GROUP
  5
4D3
102
{ACAD_REACTORS
330
D
102
}
330
D
100
AcDbGroup
300

 70
     1
 71
     1
340
2CC
340
F5
340
F4
340
CA
340
B8
  0
GROUP
  5
54E
102
{ACAD_REACTORS
330
D
102
}
330
D
100
AcDbGroup
300

 70
     1
 71
     1
340
242
340
241
340
240
340
244
  0
GROUP
  5
56C
102
{ACAD_REACTORS
330
D
102
}
330
D
100
AcDbGroup
300

 70
     1
 71
     1
  0
GROUP
  5
573
102
{ACAD_REACTORS
330
D
102
}
330
D
100
AcDbGroup
300

 70
     1
 71
     1
340
56D
340
56E
340
56F
340
570
340
571
  0
LAYOUT
  5
59
102
{ACAD_REACTORS
330
1A
102
}
330
1A
100
AcDbPlotSettings
  1

  2
None
  4

  6

 40
0.0
 41
0.0
 42
0.0
 43
0.0
 44
0.0
 45
0.0
 46
0.0
 47
0.0
 48
0.0
 49
0.0
140
0.0
141
0.0
142
1.0
143
1.0
 70
   688
 72
     0
 73
     0
 74
     5
  7

 75
    16
147
1.0
148
0.0
149
0.0
100
AcDbLayout
  1
Layout1
 70
     1
 71
     1
 10
0.0
 20
0.0
 11
12.0
 21
9.0
 12
0.0
 22
0.0
 32
0.0
 14
0.0
 24
0.0
 34
0.0
 15
0.0
 25
0.0
 35
0.0
146
0.0
 13
0.0
 23
0.0
 33
0.0
 16
1.0
 26
0.0
 36
0.0
 17
0.0
 27
1.0
 37
0.0
 76
     0
330
58
  0
LAYOUT
  5
5E
102
{ACAD_REACTORS
330
1A
102
}
330
1A
100
AcDbPlotSettings
  1

  2
None
  4

  6

 40
0.0
 41
0.0
 42
0.0
 43
0.0
 44
0.0
 45
0.0
 46
0.0
 47
0.0
 48
0.0
 49
0.0
140
0.0
141
0.0
142
1.0
143
1.0
 70
   688
 72
     0
 73
     0
 74
     5
  7

 75
    16
147
1.0
148
0.0
149
0.0
100
AcDbLayout
  1
Layout2
 70
     1
 71
     2
 10
0.0
 20
0.0
 11
12.0
 21
9.0
 12
0.0
 22
0.0
 32
0.0
 14
0.0
 24
0.0
 34
0.0
 15
0.0
 25
0.0
 35
0.0
146
0.0
 13
0.0
 23
0.0
 33
0.0
 16
1.0
 26
0.0
 36
0.0
 17
0.0
 27
1.0
 37
0.0
 76
     0
330
5D
  0
LAYOUT
  5
22
102
{ACAD_REACTORS
330
1A
102
}
330
1A
100
AcDbPlotSettings
  1

  2
CutePDF Writer
  4
Letter
  6

 40
3.174999952316284
 41
3.174999952316284
 42
3.175003051757812
 43
3.17498779296875
 44
215.8999938964843
 45
279.3999938964843
 46
0.0
 47
0.0
 48
0.0
 49
0.0
140
0.0
141
0.0
142
1.0
143
2.282790910655773
 70
 11952
 72
     0
 73
     1
 74
     0
  7

 75
     0
147
0.4380602688280075
148
285.8363132829823
149
-230.1619385360129
100
AcDbLayout
  1
Model
 70
     1
 71
     0
 10
0.0
 20
0.0
 11
12.0
 21
9.0
 12
0.0
 22
0.0
 32
0.0
 14
0.0
 24
0.0
 34
0.0
 15
0.0
 25
0.0
 35
0.0
146
0.0
 13
0.0
 23
0.0
 33
0.0
 16
1.0
 26
0.0
 36
0.0
 17
0.0
 27
1.0
 37
0.0
 76
     0
330
1F
  0
MLINESTYLE
  5
18
102
{ACAD_REACTORS
330
17
102
}
330
17
100
AcDbMlineStyle
  2
STANDARD
 70
     0
  3

 62
   256
 51
90.0
 52
90.0
 71
     2
 49
0.5
 62
   256
  6
BYLAYER
 49
-0.5
 62
   256
  6
BYLAYER
  0
ACDBPLACEHOLDER
  5
F
102
{ACAD_REACTORS
330
E
102
}
330
E
  0
DICTIONARYVAR
  5
67
102
{ACAD_REACTORS
330
66
102
}
330
66
100
DictionaryVariables
280
     0
  1
2
  0
DICTIONARYVAR
  5
6B
102
{ACAD_REACTORS
330
66
102
}
330
66
100
DictionaryVariables
280
     0
  1
1
  0
DICTIONARYVAR
  5
45F
102
{ACAD_REACTORS
330
66
102
}
330
66
100
DictionaryVariables
280
     0
  1
127
  0
ENDSEC
  0
EOF
